<?xml version="1.0" encoding="utf-8"?>
<!-- Generator: Adobe Illustrator 22.1.0, SVG Export Plug-In . SVG Version: 6.00 Build 0)  -->
<svg version="1.1" id="图层_1" xmlns="http://www.w3.org/2000/svg" xmlns:xlink="http://www.w3.org/1999/xlink" x="0px" y="0px"
	 viewBox="0 0 8192 8192" style="enable-background:new 0 0 8192 8192;" xml:space="preserve">
<style type="text/css">
	.st0{fill:url(#SVGID_1_);}
	.st1{fill:url(#SVGID_2_);}
	.st2{fill:url(#SVGID_3_);}
	.st3{fill:url(#SVGID_4_);}
	.st4{fill:url(#SVGID_5_);}
	.st5{fill:url(#SVGID_6_);}
	.st6{fill:url(#SVGID_7_);}
	.st7{fill:url(#SVGID_8_);}
	.st8{fill:url(#SVGID_9_);}
	.st9{fill:url(#SVGID_10_);}
	.st10{fill:url(#SVGID_11_);}
	.st11{fill:#FC9CFF;}
	.st12{fill:url(#SVGID_12_);}
	.st13{fill:url(#SVGID_13_);}
</style>
<linearGradient id="SVGID_1_" gradientUnits="userSpaceOnUse" x1="4081.2622" y1="2516.5098" x2="4984.9541" y2="2516.5098" gradientTransform="matrix(0.867 0 0 -0.867 504.1835 7594.4297)">
	<stop  offset="0" style="stop-color:#2A5BFF"/>
	<stop  offset="1" style="stop-color:#D4009A"/>
</linearGradient>
<path class="st0" d="M4071.6,5476.7c7.8,3.5,20.4,5,53,6.4c18.9,0.9,35.4,2.2,38.3,3.1c1.6,0.5,4,2.3,5.4,3.9
	c5.3,6.1,6.7,15.9,7.5,53.2c0.3,14.6,1,30.4,1.4,35.4c2.3,23.3,10.1,40.9,25.7,57.5c27,28.8,60.1,34.5,96,16.6
	c10.2-5.1,20.3-12.4,29-21.1c25.4-25.1,37.5-54.3,40.7-98.8c2-27.3,2.7-31.4,6.8-38.1c5.1-8.4,17.2-11.3,48.5-11.3
	c28,0,36.2,1.7,40.7,8.6c4.1,6.1,5.1,15.3,6.3,54.7c0.4,16,1.3,32.3,1.7,36.3c2.7,21.4,16.2,47.1,31.9,60.6
	c23.3,20.2,53,25.3,84.3,14.4c18-6.2,30-13.7,42.9-26.8c9.4-9.4,13.3-14.7,18.6-25.5c7.7-15.6,11.4-31.6,13-57
	c2.5-38.6,3.5-45.5,6.9-52.4c4.9-9.6,11.1-11.2,53.4-13.5c37.5-2.1,51.2-4.3,64.2-10.3c8.6-4,15.5-8.8,21.8-15.4
	c13-13.5,16.4-23.2,16.4-47.1c0-12.2-0.3-16.2-2-23.8c-8.8-39.4-32.9-71.7-59.6-80.1c-9.3-2.9-24.3-2.7-34.1,0.6
	c-8.1,2.7-19.2,9.7-34.4,21.9c-11.4,9-21.2,16-22.7,16c-1.9,0-3.7-4.9-3.7-9.7c0-2.5,1.3-12.2,2.9-21.5c1.6-9.3,3.6-21.8,4.4-27.7
	c1.7-13.4,2-36.9,0.4-46.4c-3.7-22.6-12.6-39.8-29-56.1c-11.4-11.4-26.4-17.8-48.2-20.5c-9.4-1.2-29.2-1.7-34.2-1
	c-12.6,2-28.8,9.4-37.8,17.1c-9.9,8.4-19.9,21-25.7,32c-10.6,20.5-16.8,45.8-21.9,89.6c-3.1,26.1-6.2,36.9-12.5,44
	c-4.4,4.9-9.8,7.8-16.7,8.9c-6.6,1-45.9,1-53.4-0.1c-7.4-1-11.7-3.2-15.7-7.9l-3.1-3.6l0.1-44.2c0.1-42.9-0.3-51.2-2.8-60.7
	c-2.3-9-7.9-21.1-13.6-29.8c-4.2-6.4-15.6-18.3-22.6-23.5c-21.8-16.4-51.1-22.9-73.8-16.5c-22.9,6.5-48.3,29.8-64.6,59.4
	c-4.1,7.4-9.7,22.1-12.1,31.2c-2.6,10.5-3.6,17.1-4.9,32.5c-3.2,37.9-4.7,49.2-7.9,57.7c-2.3,6.2-6.7,10.5-11.4,11.3
	c-6,1-22.6,0.6-40.4-1c-17.6-1.6-27.6-1.1-38.8,1.7c-18,4.6-31.8,17.9-40.5,39l-2.9,6.9l-0.3,17.9c-0.3,20.6,0.3,23.8,5.8,32.5
	C4054.5,5465.5,4062.8,5472.8,4071.6,5476.7z"/>
<linearGradient id="SVGID_2_" gradientUnits="userSpaceOnUse" x1="4708.6528" y1="1712.5297" x2="7813.769" y2="1712.5297" gradientTransform="matrix(0.867 0 0 -0.867 504.1835 7594.4297)">
	<stop  offset="0" style="stop-color:#2A5BFF"/>
	<stop  offset="1" style="stop-color:#D4009A"/>
</linearGradient>
<path class="st1" d="M7273.4,5816.8c-9.6-33.4-36.3-60.6-68.4-69.7c-8.9-2.5-24.8-2.8-33.4-0.4c-13.8,3.7-27,12.4-42.9,28.1
	c-12.6,12.4-18,16.7-25.6,20.5c-9.7,4.9-14,5.6-38.6,6.6c-27.2,1.1-205.2,0.3-224.2-1c-13.2-1-19.8-2.3-22.5-4.9
	c-3.7-3.4-9.6-23.4-15.6-52.8c-2.4-12.1-2.9-15.7-2.9-27.7c-0.1-13.6,0-14,2.3-18.5c4.9-9.4,6.7-10.7,66.5-48.6
	c123.7-78.6,176.1-119.2,221.4-171.7c28.9-33.5,44.1-65.1,47.3-98.6c3.3-33.7-8.2-61.3-38.6-92.9c-20.7-21.6-34.1-28.3-68.5-34.3
	c-27-4.8-39.4-5.8-74.1-6.1c-17.9-0.2-39.7,0.1-48.6,0.4c-38.4,1.6-117.5,4.4-171.7,6.1c-56.4,1.6-147.1,2.6-272.2,3
	c-80.3,0.3-127.8,0.7-132.2,1.3c-13.3,1.7-26.6,10-38.3,23.7c-16.4,19.1-22.6,33.6-21.7,51c0.8,13.9,5.6,24.5,17.6,38.4
	c7.5,8.8,14.9,14.5,24.2,18.8l6.9,3.2l192,0.6c205.3,0.6,336.2,1.7,344.5,3c8.8,1.3,11.9,6.2,8.8,13.4c-1.8,4.4-24.3,31.9-50.9,62.4
	c-1.2,1.4-9,10.4-17.3,19.9c-8.2,9.5-16.6,19.1-18.6,21.2c-1.9,2.2-6.1,6.8-9.2,10.3c-16.3,18.5-34.1,37.5-39.5,42
	c-10.1,8.8-10.7,9.1-18.9,14.6c-11.4,7.5-19.3,11.3-35.4,16.7c-22.9,7.9-34.4,14.9-48.9,30c-14.7,15.3-22.8,30.5-27.5,52.2
	c-1.6,7.7-1.9,11.4-1.9,28.4c0,16.8,0.3,21.6,2.3,34.7c4.3,28.3,4.9,43.3,1.7,50.1c-4.2,9.1-15.4,11.2-70.8,13.2
	c-22.7,0.8-49.3,1.6-155.2,4.3c-44.6,1.2-107.3,2.4-153,3c-62.3,0.9-74.7,2-86.3,8.1c-13.8,7.3-24.4,18.6-32.1,34.4
	c-12.2,25-12.7,48.8-1.6,71c10.7,21.3,30.1,38.9,48.2,43.5c6.4,1.6,14.7,1.2,38.7-1.9c24-3.1,47.2-3.8,173.5-4.8
	c136.6-1,218.9-1,228.3,0.1c10.8,1.2,15.8,4.7,19,12.8c2.9,7.4,3.2,29.7,0.9,51.7c-1.7,16.1-3.4,36.5-5.3,65.9
	c-3.7,56.9-12.4,106.2-32.9,187.3c-23.1,91.2-37.2,130.5-47,130.5c-1.2,0-9.2-7.5-23.6-21.9c-28.8-29-38.7-36.2-58.1-43.1
	c-31.4-11-61.8-14.2-74.5-7.7c-12,6.2-22.1,26.8-19,38.7c2.4,9.4,7.5,13.7,37.4,33.1c42.3,27.4,58.7,42,68.3,61.2
	c4.5,8.9,5.6,14.8,5.2,28.5c-0.3,12-0.3,12.2-3.6,19c-4.4,9.3-9.4,16-19,25.7c-11.6,11.8-27.7,24.5-48.9,38.7
	c-14,9.4-23.1,14.6-41.5,23.6c-73.5,36.2-179.9,65.8-267.9,74.6c-78.9,7.8-191.2,7.6-250.5-0.4c-5.3-0.7-31.6-4.4-58.6-8.1
	c-27-3.8-64.6-9-83.7-11.7c-65.8-9.2-99-15.3-229.3-42c-135-27.7-189.6-37.2-263.1-45.9c-36.3-4.2-57-5.2-113.1-5.2
	c-67.9,0-95.1,1.9-143.5,10c-110,18.5-189.7,52.6-270.9,116.4c-31.2,24.5-46.6,40.8-58.8,62.4c-9.5,16.8-17.8,38.9-20.5,55.1
	c-6.1,34.9,1.4,74.6,19.1,102c13.2,20.4,28.2,32.3,61,48.8c16.6,8.3,26.7,11.5,40.5,12.7c13.6,1.2,43.5,0.4,51.6-1.3
	c19.6-4.2,56.9-21.4,93.8-43.3c20.2-12,27.5-20.3,34.9-40.2c3.7-10,2-17.4-5.6-23.8c-6.8-5.7-11.4-4.8-35,7
	c-26.4,13.2-37.3,17.5-53.1,21c-12,2.7-28.2,2.7-38.8,0.1c-20.6-5-37.4-16.2-43.4-29c-4.2-8.8-5.1-26.7-1.9-38.8
	c4.9-18.8,14.3-31.2,38.2-50.4c36.3-29,69.8-44,131.8-58.8c7.5-1.7,30.8-5.4,39.4-6.1c13.2-1,80.6-1.1,101-0.1
	c32.9,1.6,58.4,4.6,93.6,10.5c19.9,3.4,55,10.2,70.7,13.8c4.1,1,23.8,5.5,43.8,10c20,4.6,43,9.9,51.2,11.8
	c26,6.1,43.8,10.3,60.3,14.2c8.8,2.1,28.5,6.8,43.8,10.4c27.8,6.6,43.1,10.2,88.9,21.3c49.3,12,65.3,15.9,104.6,25.6
	c112.5,27.7,135,32.4,183.6,38.8c42,5.5,143.8,13.3,202,15.3c59.5,2.2,117.8-1.4,179.9-10.9c126-19.3,233.1-54.4,325.1-106.4
	c91.7-51.8,151.9-104.3,206.5-180.2c52.8-73.3,83.7-144,111.6-255.3c22.9-91.3,27.5-134.3,29.1-272.2c0.7-54.3,1.6-75.9,3.5-81.3
	c2-5.9,8.8-13.1,13.6-14.4c4.9-1.3,60.9-2.4,179.7-3.6c114.4-1.1,129.3-1.7,159.7-6.6c29.6-4.7,48.4-9.6,60.9-16
	c7.8-4,11-6.2,17.7-12.7C7276.5,5898.2,7285,5856.9,7273.4,5816.8z"/>
<linearGradient id="SVGID_3_" gradientUnits="userSpaceOnUse" x1="1166.739" y1="1950.6382" x2="1932.965" y2="1950.6382" gradientTransform="matrix(0.867 0 0 -0.867 504.1835 7594.4297)">
	<stop  offset="0" style="stop-color:#2A5BFF"/>
	<stop  offset="1" style="stop-color:#D4009A"/>
</linearGradient>
<path class="st2" d="M1552.1,5397.7l8.9,4.2l51.6,0.1c138.3,0.2,283,1.5,302.1,2.8c22.1,1.4,26,2.8,33.5,11.4
	c9.4,10.8,10.6,14.9,12.1,39.7c1.4,22.5,1.4,154.2,0.1,181.2c-10.4,210.1-47.9,515.2-76.1,618c-9.1,33.4-36.7,109.5-48.7,134.6
	c-5,10.5-11.9,19.4-25.3,32.9c-11.8,11.9-16.3,14.2-26.9,14.2c-12-0.1-25.1-5.2-29.2-11.4c-2.3-3.6-2.1-17.8,0.5-30.3
	c2.9-13.7,2.8-26.3-0.3-35.5c-5.5-16.8-22.7-35.2-40.4-43c-4.2-1.8-6.1-2.1-15.6-2.1c-10.1,0-11.3,0.2-17.4,2.7
	c-14.1,5.7-31.6,19.9-40.4,32.9c-8.1,12-14,26.9-16.4,41.6c-2.1,12.6-1.3,34.8,1.6,47.3c7.5,32.2,20.4,51.2,46.9,69.7
	c8.3,5.8,8.7,6,21.8,13.6c40.4,23.1,74.2,31.9,123.5,32c37.8,0,56.1-5.2,111.1-31.9c27.4-13.3,35.6-18.8,53.6-36.2
	c20.5-19.9,34.8-40.6,55.8-81.1c17.8-34.2,33.6-71.1,45-104.8c23.7-69.9,36.2-137.2,58.9-315.6c12.1-94.8,14.4-116.2,17.8-163.4
	c2-27.9,6-77.9,6.9-87.1c0.3-2.2,1.4-15.4,2.6-29.5c7.5-88.3,10.1-149.6,10.2-248.4c0.1-57.9-0.3-68.6-3.7-88
	c-11.5-65.5-41.1-102-91.1-112.4c-10.1-2.1-13-2.3-47.9-3c-41.4-0.9-134.6-0.8-168.6,0.1c-12.1,0.3-28.3,1-36,1.6
	c-7.9,0.5-60.3,1.4-121.8,1.8c-59.4,0.5-111.2,1.2-115.2,1.6c-9,1-21.4,4.9-32.2,10.3c-21.2,10.5-38.1,28.5-45.3,48.7
	c-2.5,7-3.2,28-1.1,35.2C1523.1,5374.2,1535,5389.4,1552.1,5397.7z"/>
<linearGradient id="SVGID_4_" gradientUnits="userSpaceOnUse" x1="5024.8301" y1="2546.2373" x2="6441.9536" y2="2546.2373" gradientTransform="matrix(0.867 0 0 -0.867 504.1835 7594.4297)">
	<stop  offset="0" style="stop-color:#2A5BFF"/>
	<stop  offset="1" style="stop-color:#D4009A"/>
</linearGradient>
<path class="st3" d="M4900.6,5663c5.9,1.3,29.1,1.1,41.1-0.3c40.1-5,78.5-19.2,195.1-72.3c58.4-26.6,77.4-36.2,90.7-46.2
	c10.1-7.5,14-9,17-6.4c1,0.9,3.9,5.1,6.6,9.5c12.1,19.8,24.7,30.1,41.9,34.3c5.9,1.5,23.2,1.3,47.3-0.5c9.5-0.7,25-1.9,34.2-2.6
	c30.3-2.3,72.7-3.2,197.2-4.4c56.9-0.5,97.8-1.7,105.1-3c7.2-1.3,16.5-6,21.2-10.8c7.4-7.4,10.7-16.4,13.7-37.1
	c3.1-21.8,3.4-21.8,27.8-2.8c30.3,23.7,131.6,92.3,160.8,109c18.8,10.8,32.9,16.1,48.1,18.6c12.1,1.9,36.7,1.3,48.1-1.3
	c18.1-4.1,33.6-10.8,46.4-20.5c29.4-22,46.2-56.4,46.2-94.6c0-26.6-7.2-50.3-21.8-72.4c-6.8-10.3-22-25.3-31-30.6
	c-13.3-7.9-36.5-16.2-106.5-38.3c-88-27.7-123.2-42.2-241.5-99c-6.9-3.3-22.5-10.8-34.7-16.6c-32.3-15.5-46-22.5-49.3-25
	c-5.9-4.4-7.9-14.3-7.9-39.4c-0.1-32.3-5.5-52.4-18.6-67.6c-15.4-18-36.7-26.9-75.9-31.5c-10-1.2-24.4-1.5-30.8-0.7
	c-31,4-52,15.8-92.3,52.2c-5,4.5-41.1,40.2-80.2,79.4c-80.5,80.6-93.5,92.9-142.6,133.7c-58.6,48.7-137.4,104.8-225,160.2
	c-54.1,34.2-69.4,49.1-70.5,68.5c-0.5,8.7,0.8,14.7,5.5,24.4C4875.3,5649,4886.2,5659.8,4900.6,5663z M5398.3,5429.3
	c95.3-75.5,108.2-85.6,113.3-88.3c5.4-2.8,10.7-2.9,15.2-0.6c5.3,2.7,30.4,24.6,77.3,67.2c34.2,31,50.2,46.3,51.8,49.2
	c2.1,4.1,1.3,6.2-2.7,6.9c-4.9,1-215.8,1.7-256.6,0.9c-31.6-0.6-33.8-0.8-34.1-2.3C5361.9,5459.9,5375,5447.9,5398.3,5429.3z"/>
<linearGradient id="SVGID_5_" gradientUnits="userSpaceOnUse" x1="1977.5872" y1="2130.2686" x2="3482.8533" y2="2130.2686" gradientTransform="matrix(0.867 0 0 -0.867 504.1835 7594.4297)">
	<stop  offset="0" style="stop-color:#2A5BFF"/>
	<stop  offset="1" style="stop-color:#D4009A"/>
</linearGradient>
<path class="st4" d="M2293.6,6363.1c13.3,6.5,20.4,8.8,31,10.1c27.2,3.1,75.6-11.9,116.4-36.1c82.1-48.6,158.4-116.9,214.9-192.5
	c20.6-27.6,27.1-39.6,36.4-67.5c5.3-15.9,7.3-28,5.9-36.2c-1.5-8.3-5.2-15.3-12.3-22.8c-8.3-8.8-13.1-11.3-22.5-11.6
	c-13.3-0.6-18.7,2.1-40.9,19.9c-19.9,16-30.8,23.2-35.1,23.2c-2.5,0-7.7-4-9.1-7.1c-3.7-7.9-3.4-12.8,8.5-128.6
	c1.1-11.4,3.1-31.6,4.2-44.6c3.5-38.1,4.3-50.7,8.3-114c2.3-37.3,4.2-52.2,7.5-59.1c3.6-7.5,10.1-11.8,30.8-20
	c15.5-6.2,24.2-10.4,34.9-16.9c18.8-11.5,21.4-11.3,37.5,3.7c23.1,21.5,30.4,23.1,79.7,17.8c22.6-2.4,83.1-3.1,310.4-3.3
	c213.3-0.2,227.6-0.1,249.7,1.5c28.1,1.9,75.9,1.6,96.2-0.7c24.4-2.8,41.4-6.5,50.2-11.2c11.1-5.9,21-18,25.4-31.2
	c2.2-6.4,2.3-8.2,2.3-19.6c0-11.5-0.2-13.2-2.4-19.5c-5.6-16.1-13-27.8-24.8-39.4c-11.7-11.5-23.6-17.9-39.3-21.3
	c-15.1-3.2-26.3-1.1-60.4,11.1c-11.2,4-24.9,8.5-30.3,10c-11.1,3-27.1,5.4-36.9,5.4c-6.2,0-6.4-0.1-6.4-2c0-3.6,5.9-10.8,13.7-17
	c14.7-11.7,31.6-35,37.2-51.6c2.1-6.1,2.3-8.3,2.4-17.4c0-12.4-1-17.3-6.1-27.7c-5.7-11.9-15.9-23.1-34.1-37.4
	c-10.2-8.1-14.9-12.4-14.9-14c0-1.6,6.5-1.5,27.7,0.6c26.3,2.5,44.7,3.5,68.5,3.5h21.2l8.1-4.7c18.4-10.5,31.4-27.5,37.5-48.8
	c1.6-5.4,1.9-9,1.9-18c0-12.9-1.2-18.4-6.4-29.7c-4.5-9.7-8.8-16-16.4-23.9c-14.6-15.3-28-20.8-51.2-20.8c-14.1,0-23.8,1.8-40.4,7.7
	c-23.7,8.4-34.8,11.4-50.7,13.4c-21.8,2.7-69.7,6.2-85.4,6.2c-10.6,0-10.7,0-12.5-2.4c-2.1-2.6-2.1-4.9,0-18.9
	c1.1-8.1,1.2-30.9,0.1-37.8c-3.6-22.8-16.9-46.4-36.8-65.5c-11.4-11-21.2-17.2-38.5-24.1c-19.6-7.9-32.6-9.7-74.4-10.3
	c-27.7-0.4-31.1-0.3-39,1.3c-27.8,5.5-51.3,15-67,27.2c-12.7,10-20,19.1-22.4,28.4c-1.7,6.7-1.1,11.1,2.3,17
	c3.3,5.7,6.5,8.1,16.5,12.4c16.2,6.9,34,17.5,39.5,23.5c11.1,12.1,18.2,27.9,17.5,39.2c-0.3,6.6-1.2,7.8-6.8,9.2
	c-7.1,1.9-32.3,2.6-116.6,3.5c-112.1,1.1-123.1,1.7-132.6,7.4c-1.9,1.1-6.2,4.9-9.4,8.3c-13.8,14.7-17.5,25.2-16.8,48.7
	c0.3,8.4,0.8,13.6,1.7,16.1c4.3,11.7,15.1,23.3,27.1,29.5c10.8,5.5,22.5,7.1,50.7,7.2c34,0.1,58.1,1.7,58.1,4c0,0.2-3,4-6.8,8.4
	c-13,15.3-19.6,25.4-24.3,37.5c-5.7,14.7-7.3,28.8-5,44.3c2,13.4,3,16.4,18.2,50.1c3.6,8.1,6.4,14.9,6.2,15.3
	c-0.6,1-12.3,4.8-19.7,6.5c-6.8,1.6-36.2,3-62.2,3c-27.7,0-40.1,1.1-53.2,4.8c-6.2,1.6-12.6,3-14.3,3c-6,0-11.6-5.7-17.9-18.2
	c-10.6-21.2-20.5-33.4-29-35.9c-9.7-2.9-25-1.6-38.8,3.4c-2,0.7-6.6,1.9-10.1,2.6c-13.7,2.9-16.2-1.7-14.3-26.4
	c0.5-6.8,1.1-14.3,1.4-16.4c1.6-15.2,8.5-87.7,9.6-101.4c1.6-20.5,1.9-51.8,0.4-64.2c-2.3-20.3-8.4-40.1-18.3-60.3
	c-6.7-13.6-11.9-20.9-20.7-29.3c-12-11.3-25.1-17-40.8-17.8c-10.8-0.5-18.7,0.6-30.2,4.2c-28.7,9.1-55.7,32.2-69.1,58.8
	c-3.8,7.6-7,16.7-8.1,23.3c-2.3,13.1-8.6,116.3-10.5,171.4c-1.4,39.8-2.4,56.8-3.8,61.4c-0.7,2.3-2.8,6.2-4.7,8.7l-3.5,4.5
	l-10.8-1.2c-5.9-0.7-17.9-1.2-26.8-1.3c-15.1-0.1-16.5,0.1-23.7,2.3c-23.8,7.3-43.3,24.1-48.9,42.1c-2.3,7.5-2.1,29.1,0.4,39.4
	c5.3,21.2,19.1,36.1,41.5,44.7c17.3,6.7,20.5,7.3,35.4,6.5c20-1.1,21.7-1,23.6,0.7c1,0.9,2.8,3.6,4.2,6.1c2.2,3.9,2.5,5.7,2.9,12.8
	c0.2,4.6-0.3,14.7-1,22.5c-2.5,25.8-7.7,109.9-13.1,213.6c-0.7,13.9-1.5,29-1.7,33.8c-0.3,4.8-1.2,25.2-2.2,45.5
	c-3.6,75.8-4.4,84-9.7,91.9c-5.5,8.1-11.7,10.1-34.1,11.4c-18.8,1-27.3,2.1-34.9,4.4c-40.1,12.4-75.3,53.8-86.7,102.2
	c-2.7,11.4-3.6,31.6-2.1,42.6C2225,6304.2,2255.7,6344.5,2293.6,6363.1z M2976.3,5396c12.8-1.1,57.2-2.7,101-3.5
	c51.2-0.9,99.3-1,117.5-0.2c16.1,0.7,19.2,1.5,22,5.5c3.4,4.9,1.4,9.7-12.1,28.4c-18.6,25.8-30.3,47.3-49.6,90.6
	c-11.4,25.7-15.4,32.9-21.9,39.5c-9.8,10-18.2,11.8-51.6,10.9c-28.9-0.8-40.9-1.8-43-3.7c-2.3-2.1-2.1-6.1,1.1-20.5
	c2.5-11.4,2.8-13.6,2.8-28c0-14.2-0.3-16.4-2.3-24.3c-3-11.2-11-27.4-18.2-36.8c-7.6-10.1-17.9-19.9-37.4-36.2
	c-9-7.5-17.2-14.7-18.2-16C2963.7,5398.1,2965.6,5397.1,2976.3,5396z"/>
<linearGradient id="SVGID_6_" gradientUnits="userSpaceOnUse" x1="3562.9456" y1="2073.6643" x2="4063.9617" y2="2073.6643" gradientTransform="matrix(0.867 0 0 -0.867 504.1835 7594.4297)">
	<stop  offset="0" style="stop-color:#2A5BFF"/>
	<stop  offset="1" style="stop-color:#D4009A"/>
</linearGradient>
<path class="st5" d="M4017.1,5706.4c0.7-11.2,1.8-30.3,2.6-42.5c3.6-60.4,4.2-68.3,6.2-98c2.8-38.3,1.7-101.9-2.1-126.1
	c-2.7-17.3-11.8-39.9-22.9-56.8c-6.5-10-21-24.7-30.3-31c-21.6-14.5-41.3-19.9-68.1-19c-29.4,1-52.1,8.8-73.7,25
	c-18.9,14.2-23.3,16.6-29.5,16.1c-5.6-0.4-12.7-4.7-28.6-17.2c-14.6-11.4-22.6-16.8-30.5-20.5c-12.8-5.9-28.1-8.2-40-6
	c-25.5,4.9-49.3,31.8-57.8,65.5c-2.9,11.7-5.1,33.2-10.4,104c-3.2,43-11.7,151.4-14.7,187.7c-4.5,55-5.9,72.9-8.2,109.2
	c-1.6,24-2.6,41.9-7.4,123.5c-2.5,43.8-5.1,90.9-7.5,137.8c-0.6,11.2-1,35-1.1,52.9c-0.1,35.6,0.6,43.1,5.5,62.9
	c11.3,44.6,38.3,77.9,70.8,87.3c8.1,2.3,24.5,2.7,32.3,0.8c7.7-1.9,19.9-8.1,27-13.8c8.1-6.5,14.4-13.7,24.7-28.4
	c8.7-12.4,15.7-20.1,20.3-22.6c1.8-1,4.9-1.6,7.8-1.6c8.9,0,19.5,6.4,35.8,21.8c21.6,20.4,35.3,27.7,55.7,29.3
	c9.2,0.8,21.8-0.9,29-3.7c8.8-3.6,14.5-7.5,23.9-17.1c29.7-29.8,52.3-77,63.1-131.4c5.8-29.3,8.2-55.4,14-154.8
	C4008.9,5842.7,4013.3,5768,4017.1,5706.4z M3857.1,5536c-5.5,46.6-6.9,62-9.1,100.6c-1.2,22.5-3.3,72.6-4.3,109.2
	c-0.7,23-2.9,74.5-3.5,83.2c-0.3,3.8-1.2,14.1-2.2,23c-1,8.8-2.4,27.9-3.4,42.5c-1.7,26.1-2.3,36.2-6.6,111.4
	c-3.4,60-4.2,68.1-8.2,75.9c-3.9,7.8-8.4,10.7-18.9,12.1c-8.1,1.1-17.9,0-22-2.4c-4.8-2.8-7.5-7.6-9.5-17.2c-1.7-7.9-1.9-11-1.8-36
	c0.1-32.8,1-47.1,13.3-232.3c1-14,2.3-35.1,3-46.8c2.1-33.4,2.2-35.6,2.7-41.2c2.6-30.4,6.9-125.2,8.2-178.2c1-41.9,1.6-51.8,4-58.2
	c2.9-7.9,11.1-16.7,16.9-18c7.8-1.8,16.6,2,25.9,11.2C3857.5,5490.6,3861,5504.2,3857.1,5536z"/>
<linearGradient id="SVGID_7_" gradientUnits="userSpaceOnUse" x1="4028.48" y1="1749.7454" x2="4943.2266" y2="1749.7454" gradientTransform="matrix(0.867 0 0 -0.867 504.1835 7594.4297)">
	<stop  offset="0" style="stop-color:#2A5BFF"/>
	<stop  offset="1" style="stop-color:#D4009A"/>
</linearGradient>
<path class="st6" d="M4702,6390.9c23.7-48.4,33.9-98.5,31-151.9c-0.5-10-1.6-22.5-2.4-28c-2-14-2-38.2,0-51.6
	c3-20.5,9.5-38.8,22.9-64.7c20.2-39.1,28.9-66.5,33.5-105.8c2.1-18.3,3.4-51.6,2.8-75.3c-0.6-24.4-1.4-33.3-4.5-51.8
	c-8.2-48.6-30-102-55.6-136.4c-20.4-27.4-37.8-36.4-68.1-35.2c-15.2,0.6-28.7,3.6-89.6,20.1c-42.5,11.5-53.4,13.9-61.9,13.3
	c-10.5-0.8-16.9-6.1-24.6-20.5c-7.1-13.2-15.3-20-38.1-31.4c-19.4-9.8-35.1-13.8-56.1-14.3c-6.4-0.2-12.7-0.1-13.9,0.1
	c-1.2,0.3-5.6,1-9.8,1.6c-17.3,2.9-40.9,12.7-58.3,24.3c-4.2,2.8-14,9.9-21.8,15.7c-15.8,11.9-25.6,17.3-34.3,18.7
	c-8.4,1.5-16.3-0.3-30.8-7.1c-24.2-11.2-42-13.1-61.6-6.5c-7.8,2.6-28.4,12.8-40,19.9c-22.9,13.9-42,32.1-55.1,52.3
	c-23.9,37.2-36.4,98.6-34.9,170.5c0.6,26.8,1.6,40.1,4.5,63.3c4,31.3,4.6,54.1,2,78.5c-1.5,14.3-5.3,30.9-16.3,72
	c-16.7,62.7-22.8,93.6-24.1,123.3c-2.3,57,22.7,122.5,62.5,163.5c22.8,23.5,44.7,36.2,72.4,41.9c12.2,2.5,38.7,3.1,53,1.3
	c13.9-1.8,34.2-6.7,59-14c49.6-14.7,60.3-16.8,91-17.5c40.9-0.9,51.2,1,89.5,16.3c24.9,10,40,14.2,65.7,18.5
	c47,7.9,90.3,3.2,126.1-13.8C4653,6462.8,4681,6433.7,4702,6390.9z"/>
<linearGradient id="SVGID_8_" gradientUnits="userSpaceOnUse" x1="5289.5762" y1="2074.2009" x2="6183.0713" y2="2074.2009" gradientTransform="matrix(0.867 0 0 -0.867 504.1835 7594.4297)">
	<stop  offset="0" style="stop-color:#2A5BFF"/>
	<stop  offset="1" style="stop-color:#D4009A"/>
</linearGradient>
<path class="st7" d="M5789,5635.4c-24.7-10.5-33.5-12.2-63.5-12.7c-11.2-0.2-22.1-0.2-24.3,0c-2.2,0.2-6.6,0.7-10,1.2
	c-3.4,0.4-7.6,1-9.5,1.3c-8.4,1-53.7,2.3-129.6,3.5c-146.3,2.3-164.7,3.2-223.7,11.3c-49.6,6.8-56.1,6.4-83.3-5.1
	c-19.2-8.1-28.6-10.4-42.8-10.3c-8.7,0-12.8,0.4-18.2,1.9c-9.2,2.4-22.5,9-32.1,15.9c-10.7,7.5-28.4,25.3-34.4,34.6
	c-14.2,21.7-22.2,45.8-25.9,78.5c-0.5,4.9-1.2,30-1.4,57c-0.6,63.9,0.3,75.7,7.3,94.2c10.8,28.8,25.6,47.3,45.8,57
	c15.4,7.5,24.4,7.8,76.3,2.9c49.9-4.7,59.9-4.9,283.1-6.2c161.6-1,202.8-1.4,228.9-2.7c22.2-1,29.8-2,42.7-5.2
	c21.3-5.3,32.6-11.2,45.7-23.8c19-18.2,28.8-39.6,37.1-81.1c4.7-23.2,6.2-36.7,7.3-60.3c1.1-25.7,0.1-50.6-2.6-64.6
	c-4.9-25.6-15.7-47-31.3-62.3C5820.1,5650.6,5809.5,5644.1,5789,5635.4z M5664.5,5800c-0.7,14.7-3,22.3-10,31.5
	c-7.3,9.6-14.3,10.8-82,14.5c-123.2,6.5-250.7,8.1-274.2,3.4c-5.8-1.1-9.9-4.7-12-10.1c-1.3-3.5-1.6-8.1-1.9-31
	c-0.4-29,0-33.8,3.7-42c4.7-10.2,12.1-14.7,26.4-16.2c3.1-0.3,27.3-0.9,53.8-1.2c69.2-0.9,194.3-1,239.5-0.1l38.8,0.8l3.8,2.3
	C5660.4,5757.7,5665.6,5775.5,5664.5,5800z"/>
<linearGradient id="SVGID_9_" gradientUnits="userSpaceOnUse" x1="1249.454" y1="1425.6221" x2="3523.6536" y2="1425.6221" gradientTransform="matrix(0.867 0 0 -0.867 504.1835 7594.4297)">
	<stop  offset="0" style="stop-color:#2A5BFF"/>
	<stop  offset="1" style="stop-color:#D4009A"/>
</linearGradient>
<path class="st8" d="M3483.9,6263.8c-8.1-2.3-23.1-3-32.9-1.7c-32.1,4.2-66.6,30.6-76.6,58.3c-2.1,5.7-2.3,7.5-2.3,19.3
	c0,11,0.3,14,2,19.5c3.4,11.2,9.6,20.1,28.6,41.2c3.9,4.3,8.5,9.9,10.2,12.4c7.7,11.1,2,18.6-24.6,32.3
	c-15.5,8.1-23.5,10.8-35.7,12.5c-40,5.3-70.9-5.8-88.3-31.8c-11.4-17.1-15.3-33.4-15.3-62.8c0.1-27.1,1.6-42.2,12.7-130.4l2.2-16.9
	l4.9-4.5c6.4-6,9.9-6.9,29.5-7.6c25.7-0.9,34-2.4,47.1-8.7c16.6-8,30.3-21.8,46.6-46.8c19.7-30.3,28.3-51.7,33.3-81.7
	c4.2-25,11.9-108.5,12.2-132.5c0.1-4.3-0.3-16-0.8-26s-1.4-33.4-1.8-52c-0.5-19.5-1.4-36.9-2.1-41.3c-2.3-14.1-9-31.2-17.2-43
	c-6.2-8.9-17.3-19.9-25.1-24.9c-10.7-6.7-39.1-16.9-57.9-20.9c-17.9-3.8-76.4-5.2-192-4.6c-110.5,0.6-144.4,1.8-161.3,5.8
	c-7.1,1.6-19,6.4-25.1,10c-7,4.1-14,5.8-24.3,6c-14,0.2-15.8-0.3-31.2-9c-23.3-13.1-36.8-16.7-54.2-14.6c-8.1,1-22.9,5.9-30.3,10
	c-22.6,12.5-42.6,32.7-54.2,55c-13,25-17,48.6-29.5,173.3c-7.2,71.8-8.3,94.3-6.6,131.8c1.1,24.5,2.4,32.9,7,46.9
	c11.2,33.6,29.8,52.5,62,62.6c2.4,0.8,9,2.3,14.7,3.6c15.5,3.2,19.2,4.6,22.4,8.1c2.1,2.3,1.5,5.3-3.5,19.2
	c-7.6,21.4-25.5,59.3-37.2,79.1c-37.3,62.9-96.1,127-162.9,177.2c-107.3,80.7-236.9,124.8-409.6,139.5c-37.8,3.2-71.9,4.8-149.1,6.9
	c-61,1.7-89.8,3.4-107.1,6.1c-40.2,6.3-64.1,11.6-102.3,22.7c-64.8,18.7-105.3,37.7-146.5,68.5c-44,32.9-85,81.8-106.6,126.9
	c-12.5,26.2-17.9,46.9-17.9,68.8c0,19,4.5,34.2,14.3,49.2c5.6,8.5,15.3,18.1,20.4,20.2c2.2,0.9,4.6,1.9,5.4,2.3
	c2.4,1.2,4.2,1,9.3-1.6c3.1-1.6,6-4,8.4-7.1c6.7-8.4,8.1-12.1,20.8-52.5c21.3-67.6,61.2-117.7,123.4-155.2
	c53.8-32.4,118.9-52.9,183.4-57.7c17.3-1.3,109.4-2.3,211.5-2.4c171.2-0.2,219.2-3.3,297.4-19.2c99.8-20.3,163.5-43.1,234.1-83.8
	c61.5-35.5,110.5-72.3,153.5-115c58.3-58.1,96.2-118.4,129.4-205.9c19.9-52.8,31.6-79.3,38.9-89.1c9.5-12.7,23.2-15.9,34.9-8.1
	c5.7,3.8,7,6.4,7,14c0,3.6-1.4,15.9-3,27.3c-7,47.7-8.1,56.5-10.4,82.4c-4.3,50.2-3.3,100.8,2.8,127.4c20.2,89,79.6,138.9,175,147
	c13.4,1.1,50.4,1.1,65.9,0c37.8-2.8,75.8-9.1,98.4-16.5c42.7-13.9,82.6-44.5,114.8-87.8c15.6-21.1,23.1-34.9,29.5-54.2
	c6.5-19.9,6.8-21.8,6.8-47.8c0-25.8-1-34.7-5.5-48.1C3538.8,6300,3514.6,6272.4,3483.9,6263.8z M3230.8,6028.9
	c0,13-1.2,18.9-5.7,28.4c-6.4,13.4-12.8,16.9-38.9,21.4c-19.6,3.4-30.9,3.9-109.7,4.9c-88.6,1.2-137.3,0.7-142.3-1.4
	c-4.7-2-9-5.5-10.1-8.1c-1.1-2.9-1-27.6,0.2-36.2c1.8-13.2,6.4-21,14.5-24.4c6.4-2.8,28.8-4.1,130.7-7.6c21.9-0.8,47.7-1.6,57.2-2.1
	c26.9-1,80.8-1,87,0c8.8,1.4,11.3,3.1,15.1,9.9C3230.6,6016.9,3230.8,6018.4,3230.8,6028.9z M3233.1,5895.7
	c-3.6,3.4-9.6,4.8-25.3,5.8c-38.1,2.6-245.9,4.2-260.9,1.9c-10.9-1.6-13.2-5.9-13.2-24.9c0-25.3,4.3-34.9,16.7-37.7
	c13-2.9,68-8.1,106.8-10.3c37.8-2.1,93.5,0.4,142.6,6.5c17.9,2.3,24.8,4.5,30.1,10.1c5.7,6,8.1,15.1,8.1,31.7
	C3238.1,5889.4,3237.5,5891.5,3233.1,5895.7z"/>
<linearGradient id="SVGID_10_" gradientUnits="userSpaceOnUse" x1="4985.1533" y1="1565.3557" x2="6429.0527" y2="1565.3557" gradientTransform="matrix(0.867 0 0 -0.867 504.1835 7594.4297)">
	<stop  offset="0" style="stop-color:#2A5BFF"/>
	<stop  offset="1" style="stop-color:#D4009A"/>
</linearGradient>
<path class="st9" d="M4857.7,6461.9l7.6,4l68.8,0.5c65,0.5,214.6-0.4,367-2.3c37.7-0.4,101.7-1.2,142.2-1.7
	c40.6-0.4,91.6-1,113.6-1.3c47.3-0.6,190.9-1.9,280.9-2.6c85.6-0.7,157-2,166-3.1c14.4-1.7,30.6-6.6,40.7-12.1
	c16.2-9,26.8-21.2,31.5-36.3c2.8-9,2.8-27.7,0-39.7c-4.2-17.6-11.5-33.8-20.4-44.8c-9.4-11.8-19.2-17.5-33.3-19.5
	c-15-2.2-24.8,0.9-61.4,19c-12.4,6.2-23.8,11.4-25.4,11.8c-6.1,1.3-10.5-2.9-10.5-10c0-2,2.2-18.1,4.9-35.8
	c2.7-17.7,6-40.1,7.4-49.6c10.3-68.9,10.1-98.5-0.6-131c-12-36.1-34.9-63.5-66.1-79.2c-19.8-10-44-14.6-95.9-18.4
	c-22-1.6-85-1.4-113.1,0.4c-31.2,2-82.4,3-184.2,3.6c-128.7,0.7-194.1,2.3-225,5.3c-13.6,1.3-37.6,4.5-65,8.6
	c-18.3,2.8-30.5,3.1-37.3,1c-2.6-0.8-9.5-4.2-15.2-7.5c-11.9-6.9-21.1-10.8-29.1-12.1c-6.3-1-27.8-1-33.9,0
	c-11.6,2-30.7,10.7-42.3,19.3c-10.3,7.7-25.3,23.5-32.2,33.9c-14.8,22.3-21.7,44.5-22.8,73.7c-1.4,36.3-2.3,56.1-4.3,97.1
	c-3.2,62.6-4.9,83.4-7.7,91.3c-4.1,11.4-11.4,14-45.2,15.7c-39.4,2-45.6,3.1-57.7,10.9c-13.9,8.9-27.7,27.5-31.7,42.9
	c-1.1,4.1-1.5,9.2-1.6,18.6c0,11.4,0.3,13.7,2,18.8C4832.3,6443.9,4841.6,6453.4,4857.7,6461.9z M5648.6,6315.4
	c0.8-20.7,15.1-147.3,19-167.3c0.9-4.4,1.6-5.7,5.1-9.2c3.7-3.6,10.4-7,17.7-8.8c1-0.3,5.2-0.3,9.5-0.1c17.5,0.8,31.7,9.8,38.8,24.7
	c4,8.5,5,14.8,5,32.6c0,26.4-4.9,89.2-9.6,122.1c-1,6.6-2.3,13.4-2.9,14.9c-1.3,3.2-8.1,8.9-14.7,12.4l-4.4,2.3l-21.2-0.1
	c-30.3-0.2-37.3-1.6-40.9-8.1C5648.3,6327.9,5648.2,6326.4,5648.6,6315.4z M5400.9,6304.6c0.1-28.4,9.4-124.8,14.2-146.5
	c2.8-12.9,6-18,13.2-21.8c4.1-2.1,23.6-7.2,35.8-9.4c12.5-2.3,24.7-2.1,29,0.4c3.5,2.1,6.5,6.2,7.8,10.7c1.4,5.1,1,24.9-0.9,43.7
	c-1,9.6-3.9,34.5-6.5,55.3c-10.7,86-12.5,94.1-22.3,98.7c-5.9,2.9-16.2,3.8-34.6,3.4c-19.9-0.5-24.4-1.5-29.8-7
	C5401.5,6326.7,5400.8,6323.5,5400.9,6304.6z M5158.5,6294.6c1.6-33.3,5.4-81.6,8.7-109.9c2.6-22.5,6.7-32.4,17.1-42.3
	c8-7.5,24.3-15.9,35.3-18.2c11.8-2.5,22.6,3.6,28.8,16.2l2.3,4.8l-1.5,29.7c-0.8,16.3-1.8,37-2.3,46.1c-2.9,59.1-3.6,71.3-4.9,87.9
	c-1.5,20.2-2.4,24.4-7.6,31.9l-2.9,4.2l-15.8,0.3c-8.7,0.1-22.6-0.1-31-0.5c-17.6-0.9-18-1-22.7-9.5
	C5158,6327.8,5157.3,6319.3,5158.5,6294.6z"/>
<linearGradient id="SVGID_11_" gradientUnits="userSpaceOnUse" x1="2086.0034" y1="2991.1758" x2="5668.9956" y2="3058.6658">
	<stop  offset="0" style="stop-color:#2A5BFF"/>
	<stop  offset="0.759" style="stop-color:#D4009A"/>
	<stop  offset="1" style="stop-color:#FF151B"/>
</linearGradient>
<path class="st10" d="M6145.9,3210.4c-6.2-27-9.7-37.5-14.1-42.3c-2.3-2.5-7.6-5.4-10.1-5.4c-2.7,0-9.3,6.5-10.9,10.9
	c-1.6,4.1-1.6,3.4,0.6,33.6c2.9,41.3-6.2,93.7-29.1,167c-11.5,36.8-17.9,53.4-29.5,76.2c-19.6,38.7-46.4,76.6-74.5,105.6
	c-13.9,14.3-23.1,21.9-32.7,26.8l-6.5,3.4h-16.8c-19.2,0-19.9-0.2-28.4-7.8c-5.5-4.9-8.4-9.9-9.2-15.2c-0.9-6.4,1-28.2,3.8-41.6
	c4.6-22.7,8.1-31.1,28.7-67.6c47.6-84.8,73.7-162.7,81.7-243.6c1.6-15.6,1.6-74.2,0-86.7c-4.2-34.1-6.9-48.2-21.3-107.1
	c-4.4-18.1-10.5-42.9-13.4-55.1c-10.7-44.5-18.3-75.8-26.9-110.5c-14.3-58.3-16.8-74.8-16.8-110.1c0-42.6,7.2-80.4,23.3-124
	c12.3-33.1,23.4-54,70.1-131.8c34.9-58.1,56.2-96.3,74.6-133.5c10.8-21.8,14.3-30.5,16.7-40.8c5.4-23.1,4.4-59-2.1-78.6
	c-3.6-11-12-13.2-18.9-4.9c-3.4,4-5.5,12.1-6.2,23.4c-2.3,38.6-12.4,65.2-35.6,94.1c-7.5,9.4-22.2,25.2-31.6,34.2
	c-17.3,16.5-31.4,29.6-48.6,45.1c-68.5,61.6-100.3,96.4-132.1,144.6c-38.5,58.3-70.5,134.6-80.2,190.9c-3.2,18.7-4,30.6-4,63.7
	c0,40.4,0.7,47.2,13.4,123.5c8.7,52.4,10.1,62.3,11.6,79.3c2.9,33.2,1,84.7-4.3,116.2c-1.9,11.2-8.4,37.3-12.4,49.6
	c-11,34-32.3,77.3-49.7,101.5c-6.2,8.5-19.8,22.6-28.9,29.8c-8.9,7.1-21.3,15-31.2,19.8c-18.8,9.1-31.6,11.7-54.5,11
	c-12.7-0.3-15.9-0.8-22.6-2.8c-17.2-5.1-33.4-14.7-47-27.7c-24.6-23.5-39.6-53.9-45.9-92.9c-1.9-11.9-2.2-42.1-0.4-53.8
	c5.6-38.6,13-73.3,17.6-82.6c1.7-3.5,3.6-6.1,5.4-7.2c4.9-3,6.4-2.2,13.8,7.9c22.9,31,30.9,38.1,44,38.8c4.9,0.3,6.2,0,10.2-2.2
	c16.6-8.9,41-40.1,52.7-67.5c8.2-19.2,11.4-33.7,12.2-55.6c0.6-16.2,0-22.3-5.4-52.2c-10-55.5-11.5-93.9-5.5-139.8
	c1-7.4,1.9-14.4,2.2-15.6c0.3-1.2,0.8-15.3,1.3-31.6c1.9-64.6,7.2-91.4,35.4-178.7c18.7-58,25.7-82.1,36.1-124.4
	c7.7-31.6,10.8-45.6,26.5-124.8c7.5-37.9,16.1-80.5,19-94.5c11.7-57,16-86.4,17.4-119.6c1.1-25.4,1.7-245.2,0.8-289.1
	c-0.4-19.5-1.2-49.2-1.6-65.9c-4.3-140.1-5.6-189.4-7.9-289.1c-1-44.8-2-66.1-4-85.3c-4.2-40.6-15.2-79.6-29.6-104.7
	c-9.6-16.8-26.1-35.5-39.4-44.6c-25.7-17.6-56.5-25.1-85.1-20.6c-28.8,4.5-56.7,23.1-144.2,96.1c-17.2,14.3-78.5,66.3-87,73.7
	c-1.3,1.1-13.7,11.8-27.5,23.6c-24.5,21.1-54.6,46.9-59.8,51.5c-1.4,1.3-17.6,15.3-36,31.2c-18.4,15.9-37.7,32.6-42.9,37.1
	c-26.2,22.7-35.6,31-36.5,31.7c-0.5,0.5-4.6,4-9,7.8c-4.4,3.8-13,11.3-19,16.5s-13.3,11.5-16.1,14c-7.5,6.6-85,73.9-102.3,88.8
	c-8.1,7-15.5,13.5-16.6,14.4s-4.2,3.6-6.9,6c-2.8,2.4-14.3,12.4-25.5,22.1c-11.2,9.7-44.6,38.8-74.1,64.4
	c-29.6,25.7-71.7,62.3-93.6,81.4c-40.7,35.4-101.1,87.9-156.9,136.5c-40.3,35.1-100.8,87.7-136.5,118.9
	c-15.5,13.4-29.7,25.9-31.6,27.7c-1.9,1.7-6.4,5.6-10,8.8c-3.6,3.1-7.6,6.7-9.1,7.9c-1.5,1.3-15.5,13.5-31.2,27.2
	c-36.6,31.9-34.2,29.8-66.3,58c-28.6,25.1-41.1,35.1-54.3,43.3c-21.6,13.3-18.4,13.1-209.4,12.3l-141-0.5l-9.9-4
	c-10.8-4.3-18.7-8.4-25.5-13.2c-5.1-3.6-36.2-29.8-57.7-48.7c-3.1-2.7-18.4-16-33.9-29.6c-15.5-13.5-45.3-39.6-66.3-58
	c-52.2-45.8-142-124.5-158.3-138.7c-41.3-36.1-125.3-109.2-146.4-127.4c-4.1-3.5-16.9-14.7-28.6-24.7
	c-60.6-52.4-145-124.2-203.3-173.3c-42.7-36-57.3-48.2-94.9-79.8c-67.6-56.8-190.3-158.7-230.4-191.3
	c-74.6-60.7-67.5-55-128.6-103.9c-65.7-52.7-82.9-65.5-105.6-79.2c-14.7-8.9-25.8-13.7-40.2-17.4c-11-2.9-32.2-3.9-42.8-2.2
	c-17.9,2.9-34.6,11.7-54.6,28.9c-25.1,21.5-41,42.7-51.8,69.2c-3.4,8.2-7.9,21.8-9.2,27.7c-2.8,12.8-7.9,56.7-16.9,146.5
	c-4.2,42.3-6.5,66.1-14,145.7c-5.5,59-11.4,131.3-14.7,181.2c-0.3,3.6-1,15.1-1.7,25.6c-0.7,10.5-2.9,43.4-4.8,73.3
	c-1.9,29.8-3.8,59.8-4.3,66.8c-0.4,6.9-1.8,28-3,46.8c-2.5,39.8-9.7,150.2-10.4,159.1c-5.2,71.8-15.2,228.5-18.2,285.7
	c-1.2,22.2-2.8,51.4-3.5,65c-2.5,46.9-6.6,107.5-14.7,221.9c-11.5,161.3-16.9,241.5-20.7,309.1c-0.7,12.9-1.6,26.5-1.7,30.3
	c-3.4,54.2-9.4,175.2-11.7,236.2c-0.5,12.7-1,27.5-1.3,32.9c-0.3,5.5-0.9,21.8-1.3,36.4s-1,31.7-1.3,38.1
	c-0.3,6.4-0.9,23.8-1.3,38.6c-2.8,86.5-2.9,90.9-4.9,107.5c-2.9,24.3-7.6,36.8-34.5,90.2c-17.6,34.9-24.8,49.9-38.1,78.9
	c-23.2,50.4-33.9,79.2-43.3,116.6c-16,63.6-29.4,153.7-32.5,219.5c-4.9,103.7,27.5,224.5,86.2,321.3c30,49.5,84.2,110.4,131.4,147.7
	c28.1,22.2,57.4,42.7,81.9,57.3c2.9,1.7,8.1,4.9,11.7,6.9c62.5,37.1,140.5,66.8,221.9,84.4c82.5,17.9,202.3,29.5,272.6,26.5
	c112.3-4.9,236.7-30.2,343.4-70c91.6-34.2,175-78,260.5-136.9c66.5-45.8,143.7-106.1,205-160.1c1.4-1.3,9.6-8.5,18.2-16
	c30-26.4,75.8-68.1,102.4-93.1c10.7-10.1,68.9-68.3,79.7-79.8c16.5-17.4,41.6-44.6,56.4-61.1c4.2-4.8,8-8.8,8.2-9.1
	c0.3-0.3,11.2-12.3,24.2-26.9c43.3-48.1,67.5-74,71.3-75.9c1.5-0.8,3.3-1,4.3-0.7c3.5,1.1,19.5,17.4,73,74.5
	c6.7,7.1,15.5,16.5,19.5,20.8c4.1,4.3,10.1,10.8,13.4,14.3c49.2,52.5,86.4,90.8,155.2,160.4c114.4,115.8,132.2,134,135.7,139.4
	c7.4,11.4,5.2,14.7-44.6,66.1c-45.7,47.1-92.8,92.7-192,186.4c-45.9,43.3-70.1,66.7-100.9,98c-35.6,36-44.2,48.5-39.9,57.7
	c2,4.2,10.1,10.6,15.5,12.1c10.3,2.9,31,3.5,144.8,3.4c119.9,0,142.1-0.6,215-5.2c93.4-5.9,165.5-13.4,226.3-23.5
	c133.4-22.1,257.2-52.7,404.9-100.1c177.1-56.9,282-104.7,397.9-181.5c82.6-54.8,135.6-100.3,188.6-162.1
	c28.4-33.2,41.3-51.2,68.2-96.2c60.3-100.7,90.8-165.7,102.1-218.4c2.9-13.2,3.1-19.3,1-22.5c-1.9-2.9-8.6-6.1-11.4-5.4
	c-4.5,1.1-10.9,7.5-34.7,33.9c-29.5,32.9-56.6,61.1-75.9,78.9c-26.4,24.4-65.5,55.4-91.9,73c-35.6,23.7-70,38.1-107.1,45.1
	c-9.1,1.7-55.1,2.6-69.4,1.3c-16.2-1.4-23.6-5-36.4-17.9c-19.2-19.1-33.3-53.5-33.3-81.1c0-32.9,24.7-102,52.2-145.7
	c23.6-37.5,56.6-72.2,96.6-101.3c27.7-20.1,79.3-49.2,89.8-50.5c4.2-0.5,4.3-0.5,3.7,1.6c-0.9,3.5-6.9,12.1-19.5,27.8
	c-14.6,18.1-22.3,29.7-28.6,42.9c-15.7,32.5-15.1,54.7,1.8,72.7c10.1,10.8,21.6,14.1,40.1,11.4c15.3-2.2,41.6-10.3,62.1-19.1
	c21.2-9.1,56.5-28.7,79-43.8c29.8-20,81.7-67.2,117.3-106.7c44-48.8,90.6-115.5,122-174.7c2.5-4.8,6.2-11.8,8.3-15.6
	c4.9-9.1,17.9-36.9,24.1-51.2c12.7-29.9,21-52.7,28.8-79.7C6171.3,3441.4,6173.2,3329.3,6145.9,3210.4z M3861.7,3717.6
	c-50.2,57.3-96.8,99.3-199.2,179.5c-7.6,6-20.5,16.1-28.8,22.5c-8.2,6.4-22,17.2-30.7,23.8s-18.6,14.3-21.9,17
	c-51,39.7-118.6,87.6-163.1,115.6c-80.1,50.3-172.9,96-243.2,119.6c-13.1,4.4-32.6,9.5-52.9,13.6c-12.3,2.5-14.4,2.7-25.1,2.3
	c-28.9-1.1-93.5-12.8-133.1-24.1c-79.8-22.8-143.2-56.3-199.8-105.7c-29.2-25.4-44.7-45.5-51.7-66.8c-2.3-6.8-2.4-8.4-2.4-22.1
	c-0.1-12.4,0.3-16.2,2-23.8c10-45,41.6-107.1,87.1-171.2c62.1-87.5,137.5-164.7,262-267.9c8.6-7.1,15.8-13.2,16-13.4
	c1.5-1.7,59.3-47.3,75.4-59.5c86.4-65.3,174.7-121.8,283.9-181.7c23.4-12.8,36.9-19.6,42.9-21.6c11-3.6,16.6-1.4,28.6,11
	c16.3,17,48.6,53.2,119.7,134.7c104.3,119.4,122.8,141.2,154.8,182.1c15.5,19.9,88.1,115.5,89.8,118.4
	C3874.2,3703.5,3874.6,3702.9,3861.7,3717.6z M5076.3,3701.1c-7.4,27.9-24,65.1-50.9,114c-67.2,121.9-136.9,231.7-211.8,333.8
	c-25.5,34.7-32.5,42.7-40.4,45.9c-7.3,3-10.1,1.4-25.2-14.8c-23.1-24.7-55.3-61.6-164.1-188.5c-31.3-36.5-60.4-70.4-64.8-75.4
	c-40.9-47.5-109.5-127.7-117.5-137.3c-17.8-21.4-23.3-31.1-21.7-38.1c0.3-1.7,1.7-4.9,3-7c4.5-7.7,24.7-31.3,76.1-88.9
	c5.3-5.9,18.6-20.5,24.1-26.4c2.7-2.9,7.9-8.5,11.6-12.6c27.7-30.1,89.4-89.5,127.4-122.7c41.8-36.5,58.7-47.3,82.4-52.9
	c15.7-3.6,26.4-2.9,81.9,5.7c74.7,11.6,99.2,18.4,137.4,38.1c17.7,9.1,43.3,23.8,52.5,30.2c30.5,21.2,56.9,57,80.6,109.4
	c7.4,16.4,17.9,43.3,20,51.2C5080,3675.7,5079.8,3688,5076.3,3701.1z M5458.6,2678.5c-3.7,37.6-10.6,71.5-20.6,102.2
	c-12.2,37.3-55.8,160.4-70.7,199.9c-7.9,21-10.3,25-17.6,28.9c-3.1,1.6-4.8,1.9-16.5,1.8c-13.4-0.1-15.3-0.3-56.6-6.9
	c-52.7-8.5-81.4-11.6-124.3-13.4c-101.8-4.2-190.8,6.7-299.8,36.5c-164.6,45.1-328.6,130.8-477.4,249.8
	c-27.5,21.9-169.4,139.2-185.8,153.6c-1.2,1-10.1,8.2-19.8,16c-17.9,14.4-24.2,18.4-28.5,18.4c-6.2,0-13.3-7.2-38.8-39.4
	c-22.2-28-70.1-85.1-233.6-277.9c-18.4-21.7-44.1-52.1-57.2-67.6c-13.1-15.5-26.7-31.6-30.3-36c-11.1-13.1-36.2-43.3-50.6-61.1
	c-22.4-27.5-27-32.9-36.8-42.5c-16.7-16.6-30-23.4-52.5-27.3c-18.7-3.2-78.5-3.2-112.4,0c-19.9,1.9-44.3,5.1-70.6,9.5
	c-139.7,23.2-254.1,56.5-381.5,111c-35.9,15.3-68,30.3-111.4,52c-93.3,46.6-150,79.8-226.3,132.6c-14.9,10.3-38.8,25.9-40.8,26.7
	c-4.2,1.5-13.9-3.4-15.6-7.8c-1.1-2.9-1-51.7,0.1-90.7c1.9-64,2.6-91.7,3.5-128c1-43.7,2.3-133.8,3-205.9
	c1.8-187.7,2.3-230.8,3.5-296.9c0.7-40.7,1.5-80.7,1.7-88.9c0.3-8.1,0.7-23.9,1-35.1c1.2-52.7,3.9-140.4,6.1-196.8
	c6.1-160.3,17.1-377.2,20.3-400.5c0.4-3.2,1.5-11.8,2.2-19.2c0.8-7.4,1.8-15.3,2.3-17.8c1.5-6.8,4.7-12.5,7.9-14
	c3.6-1.6,8.2-1,14,1.7c6.3,3.1,43.2,35.5,189.5,167c74,66.4,103.3,92.8,156.9,141c61.6,55.4,183.3,164.6,235.8,211.8
	c14,12.6,28.7,25.7,32.5,29.1c10.6,9.4,59.8,53.7,67.2,60.3c5.5,4.9,36.9,33.1,46.8,42c11.6,10.5,57.6,51.6,73.3,65.5
	c10.4,9.3,19.3,17.3,19.9,17.8c1.1,1.1,103.9,92.9,119.7,107c6.2,5.5,11.4,10.2,11.7,10.5c1.9,2.2,39.4,34.4,48.6,41.8
	c25.1,20.1,50.9,34.3,78,42.9c24,7.6,15.7,7.4,246.7,7.5c228.1,0.3,297.5-0.3,309.1-2.6c25.1-4.9,49.5-15.3,72.4-30.9
	c10.5-7.1,15.2-11,44.6-37.2c12.7-11.2,28.3-25.1,34.7-30.7c6.4-5.7,14.7-12.9,18.2-16.1c11.4-10.1,29.2-25.9,57.2-50.7
	c28.9-25.6,47.6-42.1,53.3-47.3c1.9-1.7,18.7-16.7,37.3-33.4c48-42.9,100.1-90.1,115.7-104.7c3.1-2.9,10.3-9.6,16-14.8
	c17.9-16.5,82-76,94.1-87.5c4.1-3.8,13-12.3,19.9-18.8c13.8-12.9,137.7-129.5,174.3-164.1c12.7-12,28.6-27,35.5-33.5
	c29.9-28.1,58.5-54.9,69.4-64.9c6.4-6,14.8-13.9,18.6-17.4c6.6-6.2,94.6-88.2,143.5-133.5c45.2-41.9,56.2-51.3,61.7-52.8
	c1.9-0.5,4-0.8,4.6-0.5c2,0.8,3,8.8,4.1,32.9C5460.3,1816.1,5460.3,2662.4,5458.6,2678.5z"/>
<path class="st11" d="M4323.8,5743.7c-6.3,1.1-12.7,3.8-19.2,8.1c-15.7,10.2-20,19-33.5,66.7l-5.7,20.5l0.9,14.6
	c2.1,33,3.2,39.8,8.7,51c6.4,13.2,15.4,22,30.4,29.8c26.3,13.6,44.5,12.3,62.1-4.5c19.3-18.4,30.2-42.1,33.3-73
	c1.5-14.3,0.6-40.7-1.6-51.8c-5.5-27-17.6-45.2-36.7-55.3C4352.9,5744.6,4334.6,5741.8,4323.8,5743.7"/>
<path class="st11" d="M4522,5758.8c-22.7,6.2-47.3,41.6-59.7,86c-7.6,27.2-8.1,51.4-1.5,71c11.8,34.7,40.1,48.3,72.9,35.2
	c30.5-12.2,53.7-45.1,60.7-86.1c1.8-10.5,1.9-27.7,0.2-36.2c-4.5-22.9-23.5-54.8-38.8-65.3c-2.5-1.7-6.9-3.7-9.8-4.5
	C4539.9,5757.3,4527.7,5757.3,4522,5758.8"/>
<path class="st11" d="M4145.5,5868.2c-16,3.8-33,20.7-43.9,43.3c-5.6,11.7-8,18.8-10.1,30.8c-4.1,23.4,5.6,51.2,25.1,71.6
	c22.8,24,47.3,28.9,74.7,14.7c10.4-5.4,20.5-15.7,25.8-26.6c6.6-13.4,8-20.2,8-38.6c0-14-0.3-16.6-2.3-24.9
	c-8.9-35.8-33.8-65-60-70.7C4156.2,5866.5,4152,5866.6,4145.5,5868.2"/>
<path class="st11" d="M4641.1,5924.4c-12.1,3.4-26,11.8-36.9,22.1c-14.8,14-24.5,31.2-28.7,50.5c-2.1,9.5-1.5,49.9,0.9,57
	c5.6,17.5,17.9,30.9,33.8,36.8c10.8,4.1,35.9,5,46.9,1.7c9-2.7,22.5-13.4,31.3-24.9c8.5-11,16.8-28.3,20.3-41.9
	c2.5-10,3.2-35.8,1.2-47.2c-4.2-23.8-21.7-45.6-42.7-53.1C4660.5,5923.2,4647.5,5922.6,4641.1,5924.4"/>
<path class="st11" d="M4376,6000.3c-26.2,3.9-47.8,17.1-88,53.8c-29,26.4-83.4,67.4-112.7,85c-31.7,19-51.2,42.5-61.9,74.7
	c-3.7,11.3-5.3,19.1-6.6,32.9c-1.1,11.9-0.6,38.6,1,49.2c3.4,22.7,11.5,37.7,26.4,48.3c11,7.9,32.3,16.5,50.5,20.5
	c6.8,1.5,11.4,1.9,22.4,1.9c19.2,0,25.9-1.7,51.6-13.4c22.5-10.1,36.2-14.7,57-19c32-6.5,55-4.9,81.7,5.7
	c13.3,5.3,23.3,10.4,44.4,22.5c36.2,20.8,43.6,22.9,72.2,19.9c16.3-1.6,25.1-3.5,32.9-6.7c36.4-15.1,54.3-47.8,52.2-95.2
	c-1-21.8-5.4-40.4-14.4-60.5c-16.6-37.2-102.7-170.8-122.5-189.8c-12.1-11.7-33.2-24.4-45.4-27.5
	C4406,5999.9,4386.2,5998.7,4376,6000.3"/>
<g>
	
		<linearGradient id="SVGID_12_" gradientUnits="userSpaceOnUse" x1="1072.8738" y1="1622.4528" x2="1075.6464" y2="1622.4528" gradientTransform="matrix(0.867 0 0 -0.867 504.1835 7594.4297)">
		<stop  offset="0" style="stop-color:#2A5BFF"/>
		<stop  offset="1" style="stop-color:#D4009A"/>
	</linearGradient>
	<path class="st12" d="M1436.7,6187.3c0.3-0.3-0.8,0.2-2.3,1c0.5-0.2,1-0.3,1.3-0.4C1436,6187.8,1436.3,6187.6,1436.7,6187.3z"/>
	
		<linearGradient id="SVGID_13_" gradientUnits="userSpaceOnUse" x1="642.9196" y1="2016.2018" x2="1408.5588" y2="2016.2018" gradientTransform="matrix(0.867 0 0 -0.867 504.1835 7594.4297)">
		<stop  offset="0" style="stop-color:#2A5BFF"/>
		<stop  offset="1" style="stop-color:#D4009A"/>
	</linearGradient>
	<path class="st13" d="M1265.3,6214.6c0-1.7,24.3-32.8,54-68.9c36.1-43.9,66.6-85,91.6-123.7c20.7-31.9,43.1-65.5,49.9-74.8
		c17.5-24.2,113.8-182.6,141.1-232c28.6-52,35.8-87.1,23.3-114.8c-21.8-48.5-96.2-75.9-136.5-50.2c-20,12.7-33.2,34.9-65.2,110
		c-15.5,36.3-39.2,85.3-63.5,131.1c-9.4,17.7-13.4,22.6-17.2,21.2c-14.8-6-42.6-10.1-64-9.4c-27.7,1-46-3.1-46.2-10.1
		c-0.1-4.8,5.9-13.9,45.9-69.8c25.8-36.2,79.2-125.4,100.8-168.3c8.2-16.3,22.2-43.9,31.2-61.1c19.9-38.3,41.3-93.7,45.4-117.6
		c5.2-29.7-3.1-56.2-24.4-77c-14.5-14.2-21.2-18.1-39.7-23.1c-20.1-5.4-43.3-3.9-61.2,3.9c-27.3,12-45.8,38.4-56.3,80.3
		c-8.8,35.1-41.4,128.4-67.2,192.3c-24.7,61-67.7,144.8-100.3,195.2c-39.8,61.6-45.9,74.7-45.3,99.6c0.6,30.1,25.8,68.1,55.1,82.8
		c11.1,5.6,19.4,7.2,35.4,6.6c34.7-1.2,104.1-17.4,132.5-31c8.3-4,15.6-6.6,16.3-5.9c1.4,1.6-55.7,97.8-89.1,150.6
		c-22.6,35.5-78.4,116.3-97.8,141.5c-38.8,50.4-46.7,69.6-45.9,111.1c0.4,24.8,1.7,32.4,7.5,45c17,36.9,48.6,63.5,84.9,71.4
		c34.2,7.5,200.4-44,283.8-63.6c0.3-0.1,0.8-0.2,1.1-0.3c25.6-1.2,66.1-7.1,135.8-18.4c48.2-7.8,103.5-47.8,123.9-77.3
		c25.7-31.2,41.9-220.7-43.4-222"/>
</g>
</svg>
