<svg xmlns="http://www.w3.org/2000/svg" width="9449" height="9449" viewBox="0 0 9449 9449" version="1.1">
	<path d="M 1258.500 298.666 C 1181.645 302.386, 1120.708 311.219, 1051.500 328.671 C 824.642 385.878, 623.179 523.336, 485.592 714.786 C 390.267 847.431, 329.473 999.725, 307.070 1162 C 304.776 1178.616, 301.647 1209.742, 299.781 1234.500 C 297.886 1259.643, 297.886 8190.357, 299.781 8215.500 C 303.068 8259.118, 307.155 8292.704, 313.566 8328.803 C 358.663 8582.710, 502.283 8810.799, 713 8963.164 C 870.265 9076.879, 1056.062 9141.686, 1251.500 9150.997 C 1280.601 9152.383, 8169.399 9152.383, 8198.500 9150.997 C 8478.579 9137.654, 8735.878 9010.468, 8917.374 8795.646 C 9014.040 8681.231, 9084.946 8543.171, 9121.342 8398.500 C 9136.718 8337.383, 9145.048 8284.685, 9150.190 8216 C 9152.136 8190, 9152.136 1260, 9150.190 1234 C 9149.469 1224.375, 9148.007 1207.725, 9146.940 1197 C 9119.847 924.644, 8981.057 674.978, 8763 506.338 C 8654.693 422.577, 8530.144 361.868, 8398.500 328.671 C 8340.019 313.924, 8293.928 306.420, 8224 300.263 C 8205.620 298.645, 8005.182 298.541, 4734.500 298.461 C 2826 298.414, 1261.800 298.506, 1258.500 298.666 M 1258 472.095 C 1025.799 483.327, 811.226 590.526, 661.706 770 C 584.670 862.468, 528.062 972.593, 497.985 1088.500 C 482.870 1146.749, 474.883 1200.096, 472.009 1262 C 470.627 1291.770, 470.627 8158.230, 472.009 8188 C 474.308 8237.521, 480.431 8285.266, 490.091 8329 C 530.226 8510.703, 628.321 8670.981, 772.500 8790.429 C 856.924 8860.372, 959.316 8914.665, 1064.965 8945.508 C 1123.305 8962.539, 1175.673 8971.844, 1243.500 8977.230 C 1267.123 8979.105, 8182.877 8979.105, 8206.500 8977.230 C 8264.534 8972.621, 8308.146 8965.623, 8357.500 8953.001 C 8416.682 8937.864, 8465.361 8919.632, 8522 8891.388 C 8692.744 8806.245, 8830.085 8662.610, 8907.711 8488 C 8949.855 8393.203, 8973.044 8294.345, 8977.964 8188.500 C 8979.362 8158.428, 8979.396 1292.331, 8977.998 1262 C 8973.108 1155.873, 8949.940 1056.989, 8907.711 962 C 8842.809 816.011, 8734.452 689.535, 8600.145 603.007 C 8548.794 569.924, 8486.574 539.195, 8430.500 519.225 C 8358.690 493.651, 8297.299 480.808, 8208.500 472.784 C 8198.579 471.888, 7375.998 471.572, 4735 471.453 C 2831.725 471.367, 1267.075 471.656, 1258 472.095 M 6450.500 1416.142 C 6425.764 1419.284, 6398.192 1434.169, 6355.535 1467.410 C 6349.062 1472.454, 6306.713 1506.377, 6304 1508.691 C 6301.804 1510.563, 6263.650 1542.499, 6254.074 1550.479 C 6248.340 1555.258, 6183.798 1610.199, 6180.500 1613.109 C 6178.850 1614.565, 6159.500 1631.200, 6137.500 1650.076 C 6115.500 1668.952, 6092.100 1689.090, 6085.500 1694.827 C 6078.900 1700.565, 6069 1709.157, 6063.500 1713.922 C 6058 1718.686, 6029.903 1743.040, 6001.063 1768.042 C 5972.223 1793.044, 5939.823 1821.108, 5929.063 1830.406 C 5918.303 1839.705, 5905.868 1850.505, 5901.430 1854.406 C 5896.991 1858.308, 5885.291 1868.492, 5875.430 1877.038 C 5830.690 1915.810, 5779.204 1960.524, 5765.500 1972.508 C 5757.250 1979.722, 5731.600 2001.991, 5708.500 2021.994 C 5685.400 2041.997, 5664.240 2060.419, 5661.477 2062.931 C 5658.715 2065.444, 5653.779 2069.750, 5650.509 2072.500 C 5647.239 2075.250, 5640.468 2081.100, 5635.461 2085.500 C 5627.726 2092.298, 5499.279 2204.028, 5371.049 2315.500 C 5329.583 2351.548, 5314.826 2364.397, 5224.494 2443.111 C 5139.461 2517.209, 5137.747 2518.706, 5062.610 2584.500 C 5028.064 2614.750, 4994.557 2643.900, 4988.150 2649.279 C 4974.764 2660.514, 4954.240 2674.589, 4944.799 2679.007 C 4927.669 2687.023, 4916.444 2687.399, 4716 2686.678 L 4552.500 2686.090 4542 2681.982 C 4529.021 2676.904, 4516.971 2670.412, 4508.192 2663.767 C 4504.511 2660.981, 4487.624 2646.732, 4470.664 2632.101 C 4453.705 2617.470, 4437.452 2603.475, 4434.548 2601 C 4426.421 2594.073, 4277.942 2464.075, 4232 2423.662 C 3987.583 2208.660, 3786.194 2036.134, 3528 1820.560 C 3509.025 1804.717, 3491.475 1790.059, 3489 1787.986 C 3469.372 1771.547, 3384.790 1701.492, 3372.430 1691.438 C 3369.092 1688.722, 3359.244 1680.650, 3350.547 1673.500 C 3341.850 1666.350, 3332.785 1658.925, 3330.404 1657 C 3328.022 1655.075, 3320.319 1648.795, 3313.287 1643.045 C 3249.588 1590.959, 3135.285 1499.412, 3111.993 1481.828 C 3068.529 1449.013, 3041.812 1434.460, 3013.796 1428.338 C 3007.463 1426.954, 3001.123 1426.523, 2987 1426.517 C 2964.739 1426.507, 2959.022 1427.799, 2940.500 1437.020 C 2916.863 1448.788, 2888.831 1473.417, 2868.895 1499.931 C 2855.108 1518.268, 2841.210 1549.359, 2836.178 1573.124 C 2833.274 1586.841, 2830.424 1609.131, 2824.560 1664 C 2820.360 1703.298, 2812.806 1778.313, 2810.008 1808.500 C 2808.887 1820.600, 2807.750 1832.525, 2807.482 1835 C 2805.778 1850.722, 2797.027 1947.182, 2793.057 1994 C 2787.052 2064.815, 2784.615 2099.639, 2772.027 2294.500 C 2768.723 2345.650, 2765.339 2397.850, 2764.507 2410.500 C 2763.676 2423.150, 2761.437 2457.575, 2759.533 2487 C 2757.628 2516.425, 2755.827 2543.650, 2755.531 2547.500 C 2751.651 2597.874, 2736.910 2829.690, 2734.005 2886 C 2727.633 3009.511, 2726.048 3033.595, 2705.533 3318.500 C 2700.825 3383.883, 2691.907 3521.451, 2689.035 3573 C 2688.468 3583.175, 2687.774 3595.100, 2687.493 3599.500 C 2684.925 3639.682, 2679.090 3754.176, 2676.026 3824.500 C 2672.984 3894.316, 2672.182 3916.390, 2667.001 4073 C 2663.942 4165.434, 2662.690 4176.747, 2652.386 4205 C 2650.280 4210.775, 2638.705 4235.075, 2626.663 4259 C 2592.785 4326.308, 2567.030 4381.915, 2550.005 4424.511 C 2525.867 4484.899, 2504.649 4591.076, 2493.999 4704.760 C 2487.962 4769.203, 2490.026 4820.203, 2501.131 4881 C 2517.281 4969.419, 2552.470 5058.892, 2599.454 5131 C 2630.225 5178.225, 2684.584 5239.261, 2728.854 5276.293 C 2760.815 5303.030, 2805.916 5334.918, 2842.500 5356.645 C 2969.246 5431.921, 3103.663 5469.766, 3300 5485.453 C 3371.065 5491.131, 3423.403 5490.850, 3486 5484.452 C 3503.176 5482.697, 3542.571 5477.652, 3556 5475.488 C 3665.813 5457.795, 3753.964 5433.862, 3848.183 5396.162 C 3960.702 5351.139, 4061.153 5293.452, 4179.992 5205.608 C 4240.114 5161.167, 4293.580 5117.927, 4360 5060.028 C 4394.174 5030.239, 4414.861 5011.656, 4462.500 4967.955 C 4492.966 4940.007, 4552.628 4881.392, 4582.061 4850.491 C 4599.519 4832.163, 4635.962 4792.537, 4662.983 4762.500 C 4748.558 4667.375, 4766.573 4648.311, 4771.810 4647.340 C 4775.026 4646.743, 4775.687 4647.296, 4794.869 4666.613 C 4805.730 4677.551, 4821.532 4693.925, 4829.985 4703 C 4838.438 4712.075, 4848.768 4723.100, 4852.941 4727.500 C 4857.115 4731.900, 4867.042 4742.475, 4875.003 4751 C 4882.963 4759.525, 4892.666 4769.875, 4896.565 4774 C 4900.463 4778.125, 4912.367 4790.725, 4923.018 4802 C 4967.189 4848.762, 5004.950 4887.571, 5087.490 4971.038 C 5158.504 5042.850, 5191.593 5076.484, 5212.393 5098 C 5238.055 5124.545, 5239.483 5127.793, 5231.139 5140.630 C 5226.068 5148.433, 5220.672 5154.338, 5181.115 5195.365 C 5145.947 5231.841, 5104.728 5272.456, 5040.984 5333.444 C 5018.537 5354.920, 5012.038 5361.075, 4966.500 5403.989 C 4910.737 5456.539, 4905.059 5462.002, 4865.683 5500.994 C 4805.616 5560.475, 4791.671 5578.113, 4795.905 5589.250 C 4797.297 5592.913, 4804.965 5600.129, 4810.291 5602.788 C 4816.822 5606.050, 4827.224 5606.872, 4877.500 5608.100 C 4928.578 5609.347, 5096.836 5608.645, 5138.500 5607.011 C 5240.216 5603.023, 5348.540 5594.578, 5428.500 5584.402 C 5492.700 5576.232, 5592.615 5557.879, 5668 5540.408 C 5708.464 5531.031, 5782.426 5512.348, 5796.500 5507.949 C 5798.150 5507.433, 5811.650 5503.597, 5826.500 5499.424 C 5931.477 5469.923, 6056.611 5428.396, 6134.691 5397.148 C 6248.134 5351.748, 6329.421 5308.947, 6428.500 5242.446 C 6515.574 5184.002, 6576.590 5130.681, 6636.134 5061 C 6667.747 5024.003, 6682.499 5002.902, 6716.180 4946.500 C 6772.060 4852.923, 6803.530 4789.454, 6821.298 4734.500 C 6829.674 4708.596, 6834.651 4683.940, 6832.832 4677.355 C 6831.668 4673.138, 6825.271 4668.600, 6820.491 4668.600 C 6813.891 4668.600, 6811.080 4671.328, 6766.088 4721.400 C 6713.646 4779.764, 6671.754 4818.730, 6617.500 4859.611 C 6564.813 4899.311, 6526.998 4918.824, 6480.130 4930.495 C 6458.607 4935.855, 6455.348 4936.203, 6421.680 4936.728 C 6384.951 4937.302, 6370.996 4936.300, 6362.323 4932.464 C 6335.351 4920.536, 6311.443 4884.501, 6302.967 4843 C 6300.202 4829.461, 6300.586 4810.676, 6303.949 4795 C 6311.026 4762.014, 6325.440 4722.069, 6342.921 4686.999 C 6363.477 4645.760, 6386.996 4613.745, 6421.156 4580.500 C 6457.427 4545.202, 6494.634 4519.306, 6555.095 4487.279 C 6568.580 4480.136, 6579.948 4476.489, 6581.401 4478.840 C 6582.282 4480.265, 6574.998 4491.572, 6565.311 4503.819 C 6537.708 4538.716, 6529.532 4551.062, 6521.678 4569.703 C 6515.445 4584.498, 6512.980 4593.812, 6512.335 4605 C 6511.332 4622.399, 6516.176 4635.189, 6528.470 4647.595 C 6536.291 4655.488, 6542.313 4658.446, 6553.983 4660.125 C 6575.103 4663.164, 6622.714 4649.164, 6667.500 4626.745 C 6699.063 4610.945, 6729.519 4592.454, 6752.254 4575.286 C 6786.637 4549.323, 6845.221 4493.830, 6878.185 4456 C 6983.474 4335.169, 7063.885 4184.150, 7093.030 4052.500 C 7116.542 3946.299, 7116.966 3841.761, 7094.345 3729 C 7085.423 3684.526, 7078.410 3660.286, 7072.692 3654.156 C 7070 3651.269, 7063.800 3648, 7061.017 3648 C 7057.907 3648, 7050.339 3655.546, 7048.426 3660.555 C 7046.613 3665.302, 7046.623 3665.885, 7049.071 3698.756 C 7052.927 3750.527, 7040.542 3816.091, 7008.318 3914.500 C 6993.823 3958.763, 6977.355 3992.460, 6950.404 4033 C 6931.720 4061.104, 6914.380 4082.575, 6893 4104.080 C 6873.737 4123.455, 6865.211 4130.111, 6853.599 4134.837 C 6847.963 4137.131, 6846.245 4137.320, 6830.974 4137.335 C 6815.272 4137.351, 6814.163 4137.221, 6808.756 4134.746 C 6802.191 4131.740, 6793.886 4124.374, 6790.476 4118.534 C 6787.221 4112.957, 6786.647 4106.736, 6787.926 4090.855 C 6790.920 4053.681, 6797.102 4034.159, 6817.488 3997.500 C 6832.512 3970.483, 6837.061 3961.942, 6846.839 3942.389 C 6886.123 3863.838, 6908.998 3791.116, 6917.421 3718 C 6920.456 3691.655, 6921.271 3672.954, 6920.706 3642.622 C 6919.708 3589.001, 6916.435 3568.956, 6893.180 3474 C 6881.094 3424.652, 6875.858 3403.053, 6868.086 3370.500 C 6864.803 3356.750, 6857.395 3326.375, 6851.623 3303 C 6839.470 3253.784, 6834.623 3232.231, 6832.594 3218.390 C 6826.093 3174.038, 6827.215 3130.830, 6836.009 3086.905 C 6843.576 3049.112, 6857.047 3010.130, 6875.544 2972.500 C 6883.569 2956.175, 6901.569 2924.669, 6928.961 2879 C 6990.955 2775.644, 7028.968 2705.197, 7039.038 2675 C 7046.948 2651.279, 7048.160 2614.949, 7042.036 2585.149 C 7039.497 2572.794, 7036.598 2567.036, 7031.714 2564.651 C 7026.772 2562.236, 7023.556 2563.089, 7018.816 2568.073 C 7013.956 2573.182, 7011.380 2582.008, 7010.520 2596.500 C 7008.909 2623.643, 7004.054 2644.866, 6994.894 2664.804 C 6979.444 2698.435, 6951.882 2728.848, 6870.654 2801.897 C 6830.745 2837.786, 6811.692 2856.155, 6790.393 2879.276 C 6733.611 2940.912, 6693.234 3005.477, 6660.840 3086.434 C 6645.347 3125.151, 6634.287 3165.030, 6630.035 3197.500 C 6628.397 3210.008, 6627.029 3237.671, 6627.018 3258.500 C 6626.999 3294.747, 6629.750 3318.681, 6643.457 3401.500 C 6657.546 3486.637, 6658.603 3497.344, 6657.661 3545.500 C 6656.681 3595.666, 6654.030 3618.181, 6644.830 3654.500 C 6636.566 3687.126, 6626.259 3714.553, 6609.930 3747.369 C 6587.588 3792.268, 6568.862 3816.862, 6541.933 3836.671 C 6517.973 3854.296, 6497.878 3863.811, 6477.074 3867.382 C 6466.201 3869.248, 6440.555 3869.566, 6431.434 3867.947 C 6412.054 3864.508, 6389.912 3853.573, 6373 3839.089 C 6342.107 3812.631, 6321.976 3773.986, 6314.349 3726.500 C 6311.897 3711.235, 6311.909 3676.081, 6314.370 3660 C 6321.300 3614.736, 6329.267 3578.326, 6334.504 3567.993 C 6337.134 3562.801, 6341.798 3559.011, 6345.563 3559.004 C 6348.218 3558.999, 6350.775 3561.845, 6361.279 3576.500 C 6373.918 3594.135, 6380.336 3601.520, 6387.816 3607.039 C 6396.353 3613.338, 6402.408 3615.422, 6410.139 3614.721 C 6417.887 3614.019, 6423.197 3610.805, 6434.309 3600.093 C 6456.250 3578.941, 6475.666 3548.427, 6484.835 3520.687 C 6489.752 3505.807, 6491.665 3496.688, 6492.977 3481.860 C 6495.040 3458.555, 6494.050 3446.204, 6487.085 3408.341 C 6479.185 3365.395, 6476.302 3332.139, 6477.347 3296 C 6477.888 3277.283, 6479.939 3252.438, 6481.499 3245.686 C 6483.054 3238.957, 6484.184 3221.831, 6485.007 3192.500 C 6487.016 3120.878, 6493.330 3089.069, 6525.003 2991 C 6560.226 2881.935, 6569.933 2843.183, 6598.897 2696 C 6603.280 2673.725, 6609.832 2641.100, 6613.456 2623.500 C 6626.043 2562.379, 6631.483 2533.518, 6634.475 2512 C 6635.355 2505.675, 6636.287 2498.994, 6636.547 2497.154 C 6639.203 2478.346, 6640.080 2457.104, 6641.113 2386.500 C 6642.327 2303.491, 6641.737 2137.956, 6640.018 2079.500 C 6639.452 2060.250, 6637.875 2007.825, 6636.514 1963 C 6633.521 1864.414, 6632.313 1819.189, 6631.037 1758 C 6628.687 1645.287, 6627.238 1617.991, 6621.946 1586.761 C 6609.629 1514.080, 6585.313 1468.199, 6543.500 1438.752 C 6518.256 1420.973, 6481.952 1412.147, 6450.500 1416.142 M 3152.447 2011.806 C 3148.330 2014.402, 3144.425 2023.447, 3143.081 2033.500 C 3137.642 2074.190, 3134.479 2119.541, 3128.014 2249.500 C 3118.519 2440.378, 3112.592 2592.509, 3109.039 2736.500 C 3108.496 2758.500, 3107.804 2785.050, 3107.502 2795.500 C 3106.768 2820.854, 3104.242 2968.785, 3103.548 3027 C 3103.024 3071.039, 3102.770 3096.956, 3101.468 3239.500 C 3100.315 3365.862, 3098.356 3475.881, 3095.495 3575 C 3092.244 3687.599, 3091.827 3721.652, 3093.562 3732.674 C 3094.505 3738.663, 3105.409 3745.264, 3111.299 3743.411 C 3114.687 3742.346, 3132.621 3730.691, 3165 3708.513 C 3191.934 3690.064, 3200.418 3684.406, 3226 3667.827 C 3255.664 3648.602, 3291.488 3627.429, 3331 3605.767 C 3376.641 3580.746, 3459.214 3539.331, 3497.500 3522.260 C 3503 3519.807, 3510.397 3516.448, 3513.937 3514.794 C 3598.453 3475.308, 3717.398 3433.029, 3814.135 3408.088 C 3889.370 3388.691, 3986.543 3369.990, 4050.500 3362.600 C 4082.069 3358.952, 4091.911 3358.500, 4139.500 3358.510 C 4180.479 3358.519, 4189.031 3358.776, 4197.970 3360.267 C 4222.808 3364.410, 4237.215 3371.144, 4254.931 3386.894 C 4264.306 3395.228, 4275.619 3408.207, 4309.500 3449.501 C 4336.105 3481.926, 4346.964 3494.943, 4382.500 3537.001 C 4392.400 3548.719, 4401.846 3559.924, 4403.491 3561.903 C 4409.109 3568.660, 4486.484 3660.022, 4555.534 3741.429 C 4561.565 3748.539, 4569.178 3757.539, 4572.451 3761.429 C 4575.724 3765.318, 4588.119 3779.975, 4599.995 3794 C 4670.044 3876.720, 4711.841 3926.847, 4737.160 3958.500 C 4762.664 3990.385, 4769.430 3997.004, 4776.500 3996.984 C 4783.786 3996.964, 4793.859 3989.219, 4880.504 3917.008 C 5037.259 3786.367, 5063.912 3764.889, 5114.500 3728.449 C 5156.839 3697.951, 5212.580 3661.613, 5251 3639.466 C 5346.977 3584.138, 5430.557 3545.938, 5524.500 3514.462 C 5663.501 3467.890, 5789.138 3446.868, 5913.500 3449.375 C 5980.818 3450.732, 6012.512 3453.727, 6089 3465.959 C 6133.774 3473.119, 6143.608 3474.275, 6155.804 3473.809 C 6174.972 3473.078, 6179.208 3469.013, 6189.619 3441.364 C 6206.145 3397.478, 6238.001 3308.168, 6259.661 3245 C 6277.926 3191.731, 6280.729 3182.459, 6285.358 3160 C 6293.061 3122.622, 6295.833 3100.855, 6297.013 3068.500 C 6298.203 3035.832, 6298.202 2191.481, 6297.011 2106 C 6296.145 2043.844, 6295.128 2021.976, 6292.911 2017.833 C 6291.780 2015.721, 6290.895 2015.624, 6285.760 2017.050 C 6279.322 2018.838, 6268.237 2028.420, 6209 2083.403 C 6127.206 2159.324, 6023.287 2256.155, 6005 2273.490 C 6000.875 2277.400, 5979.500 2297.432, 5957.500 2318.006 C 5935.500 2338.579, 5913.450 2359.303, 5908.500 2364.058 C 5903.550 2368.813, 5883.525 2387.720, 5864 2406.075 C 5844.475 2424.429, 5812.300 2454.736, 5792.500 2473.423 C 5772.700 2492.110, 5752.898 2510.797, 5748.495 2514.950 C 5744.092 2519.102, 5726.092 2535.979, 5708.495 2552.454 C 5690.898 2568.929, 5673.125 2585.614, 5669 2589.533 C 5611.651 2644.017, 5493.402 2752.225, 5409 2827.457 C 5390.575 2843.880, 5372.125 2860.333, 5368 2864.018 C 5363.875 2867.704, 5339.998 2888.895, 5314.940 2911.110 C 5289.882 2933.324, 5246.032 2972.200, 5217.496 2997.500 C 5188.960 3022.800, 5161.987 3046.578, 5157.556 3050.340 C 5131.221 3072.700, 5092.439 3091.743, 5058.500 3098.977 C 5048.919 3101.020, 5044.561 3101.151, 4954.500 3102.112 C 4829.416 3103.448, 4473.604 3102.710, 4454.500 3101.076 C 4427.757 3098.789, 4409.058 3093.450, 4382 3080.375 C 4355.645 3067.641, 4342.145 3058.617, 4312.916 3034.198 C 4296.375 3020.380, 4279.686 3005.588, 4174 2911.076 C 4137.425 2878.367, 4099.175 2844.165, 4089 2835.070 C 4078.825 2825.976, 4068.700 2816.915, 4066.500 2814.936 C 4049.847 2799.956, 4039.614 2790.789, 4027.500 2779.999 C 4019.800 2773.141, 4011.475 2765.682, 4009 2763.423 C 4006.525 2761.164, 3999.519 2754.857, 3993.430 2749.408 C 3987.342 2743.958, 3974.517 2732.472, 3964.930 2723.882 C 3955.344 2715.292, 3933.775 2695.996, 3917 2681.003 C 3900.225 2666.010, 3884.475 2651.873, 3882 2649.587 C 3878.339 2646.207, 3817.554 2591.642, 3796.013 2572.401 C 3792.996 2569.705, 3779.496 2557.593, 3766.013 2545.485 C 3710.049 2495.226, 3693.227 2480.126, 3668.500 2457.955 C 3654.200 2445.132, 3638.675 2431.180, 3634 2426.950 C 3610.908 2406.053, 3464.048 2274.163, 3382 2200.637 C 3331.125 2155.046, 3287.475 2115.883, 3285 2113.607 C 3274.773 2104.204, 3207.973 2044.952, 3192.006 2031.120 C 3182.532 2022.913, 3172.597 2015.010, 3169.926 2013.557 C 3163.336 2009.969, 3156.454 2009.280, 3152.447 2011.806 M 4012.500 3752.934 C 4002.463 3756.522, 3979.244 3768.626, 3938.500 3791.507 C 3930.800 3795.832, 3921.575 3800.998, 3918 3802.988 C 3906.676 3809.291, 3863.747 3834.160, 3857.500 3838.035 C 3854.200 3840.082, 3844.300 3846.160, 3835.500 3851.541 C 3769.437 3891.940, 3703.976 3936.211, 3646.500 3979.361 C 3630.056 3991.706, 3602.055 4013.176, 3598.500 4016.166 C 3597.400 4017.091, 3589.300 4023.588, 3580.500 4030.603 C 3542.292 4061.064, 3504.474 4092.708, 3460 4131.434 C 3370.641 4209.242, 3301.197 4282.259, 3244.995 4357.500 C 3180.952 4443.237, 3136.171 4529.011, 3126.544 4584.381 C 3124.772 4594.572, 3124.541 4611.576, 3126.047 4620.861 C 3130.381 4647.566, 3150.664 4675.899, 3189.500 4709.491 C 3259.539 4770.075, 3343.114 4811.944, 3443 4836.489 C 3486.934 4847.284, 3553.148 4858, 3575.924 4858 C 3592.164 4858, 3629.354 4850.047, 3661 4839.808 C 3709.207 4824.209, 3790.020 4788.036, 3851.500 4754.537 C 3953.100 4699.178, 4030.569 4646.223, 4180 4529.984 C 4316.937 4423.464, 4369.465 4378.722, 4418.894 4326.500 C 4449.721 4293.930, 4468 4273.134, 4468 4270.630 C 4468 4269.263, 4461.090 4260.009, 4407.182 4189.181 C 4333.524 4092.406, 4329.503 4087.559, 4195.053 3933.500 C 4106.258 3831.754, 4064.680 3784.925, 4046.180 3765.827 C 4037.191 3756.547, 4033.911 3753.817, 4030.252 3752.570 C 4024.369 3750.566, 4018.805 3750.679, 4012.500 3752.934 M 5429.290 3955.562 C 5401.845 3961.579, 5382.589 3973.395, 5338.804 4011.085 C 5267.928 4072.097, 5201.144 4138.749, 5124.469 4225 C 5054.882 4303.277, 5049.043 4311.066, 5051.939 4321.750 C 5054.815 4332.358, 5063.332 4343.194, 5129.554 4420.500 C 5418.722 4758.068, 5478.764 4827.007, 5492.400 4837.110 C 5499.478 4842.354, 5506.982 4840.222, 5516.980 4830.125 C 5537.413 4809.490, 5614.436 4700.377, 5671.771 4610.846 C 5737.164 4508.731, 5814.615 4372.730, 5836.270 4321.992 C 5843.376 4305.343, 5850.887 4284.560, 5854.700 4271 C 5857.850 4259.796, 5858.217 4257.204, 5858.245 4246 C 5858.271 4235.278, 5857.895 4232.236, 5855.602 4224.611 C 5850.534 4207.760, 5834.084 4168.917, 5821.457 4143.982 C 5796.966 4095.621, 5769.158 4061.145, 5738 4040.511 C 5713.244 4024.116, 5669.799 4000.794, 5647.736 3992.054 C 5619.586 3980.904, 5590.365 3973.944, 5534.156 3965.001 C 5464.559 3953.929, 5444.837 3952.154, 5429.290 3955.562 M 6305.500 5895.583 C 6271.739 5900.796, 6248.690 5914.464, 6201.500 5957.258 C 6195.450 5962.744, 6156.075 6001.759, 6114 6043.957 C 6034.425 6123.766, 6024.392 6133.579, 6001.995 6153.509 C 5919.664 6226.773, 5837.314 6288.429, 5722.194 6363 C 5634.716 6419.665, 5627.867 6424.616, 5616.579 6439.354 C 5606.957 6451.916, 5603.820 6465.003, 5607.123 6478.807 C 5608.807 6485.845, 5616.185 6500.994, 5622.090 6509.535 C 5630.961 6522.368, 5638.919 6528.227, 5652.047 6531.591 C 5661.050 6533.897, 5692.366 6533.074, 5709.931 6530.070 C 5743.293 6524.362, 5787.007 6509.613, 5839 6486.523 C 5843.125 6484.691, 5856.400 6478.830, 5868.500 6473.499 C 5928.151 6447.217, 5990.136 6418.296, 6010.500 6407.246 C 6016 6404.261, 6024.550 6398.763, 6029.500 6395.029 C 6039.875 6387.201, 6041.972 6386, 6045.260 6386 C 6048.394 6386, 6050.257 6388.156, 6059.516 6402.500 C 6074.138 6425.151, 6089.410 6435.853, 6111.500 6438.928 C 6118.690 6439.929, 6141.283 6438.879, 6184.500 6435.536 C 6226.620 6432.277, 6262.254 6431.221, 6370 6430.036 C 6525.029 6428.331, 6543.682 6427.722, 6554.473 6424.009 C 6574.230 6417.212, 6583.248 6403.910, 6587.021 6376 C 6589.006 6361.312, 6590.960 6353.346, 6593.038 6351.465 C 6594.921 6349.762, 6595.192 6349.822, 6600.433 6353.099 C 6603.426 6354.969, 6612.167 6361.374, 6619.857 6367.332 C 6643.442 6385.603, 6678.386 6410.048, 6733 6446.484 C 6798.887 6490.441, 6821.043 6503.363, 6841.500 6509.768 C 6858.308 6515.030, 6861.889 6515.503, 6884.500 6515.456 C 6902.276 6515.419, 6907.051 6515.075, 6915.604 6513.217 C 6961.161 6503.319, 6993.949 6477.081, 7011.956 6436.112 C 7018.502 6421.219, 7021.568 6408.557, 7022.942 6390.750 C 7027.205 6335.479, 6998.480 6279.645, 6954.446 6257.614 C 6937.645 6249.208, 6912.266 6240.469, 6822.477 6212.176 C 6754.496 6190.754, 6696.479 6167.688, 6624.335 6133.400 C 6617.826 6130.307, 6609.800 6126.535, 6606.500 6125.018 C 6600.790 6122.394, 6550.570 6098.373, 6514.819 6081.166 C 6483.385 6066.037, 6465.499 6056.870, 6463.153 6054.685 C 6456.996 6048.954, 6455.022 6038.483, 6455.008 6011.494 C 6454.989 5974.286, 6449.364 5951.872, 6435.657 5934.391 C 6418.187 5912.109, 6392.447 5900.964, 6346 5895.570 C 6329.875 5893.698, 6317.688 5893.702, 6305.500 5895.583 M 3503.578 5908.610 C 3482.166 5912.476, 3460.631 5919.177, 3445.598 5926.651 C 3432.746 5933.041, 3423.857 5939.293, 3413.289 5949.375 C 3405.833 5956.487, 3403.251 5959.737, 3400.287 5965.734 C 3397.135 5972.111, 3396.588 5974.208, 3396.588 5979.915 C 3396.588 5991.767, 3403.870 6001.199, 3416.718 6005.987 C 3433.889 6012.387, 3458.267 6027.165, 3466.302 6036.045 C 3476.395 6047.198, 3484.976 6065.711, 3485.229 6076.877 C 3485.461 6087.128, 3483.555 6089.074, 3471.379 6091.019 C 3462.355 6092.461, 3404.784 6093.924, 3354 6094.002 C 3300.109 6094.085, 3220.567 6095.717, 3210.096 6096.955 C 3192.755 6099.004, 3187.548 6101.810, 3175.630 6115.531 C 3163.085 6129.974, 3159.047 6142.035, 3159.017 6165.145 C 3159.004 6175.967, 3159.411 6180.119, 3160.985 6185.217 C 3165.791 6200.775, 3181.547 6216.906, 3198 6223.111 C 3209.827 6227.571, 3214.803 6228.045, 3259.911 6229.003 C 3283.787 6229.511, 3305.387 6230.200, 3307.911 6230.535 C 3312.612 6231.160, 3318 6232.863, 3318 6233.725 C 3318 6233.990, 3314.365 6238.457, 3309.923 6243.650 C 3284.804 6273.018, 3275.495 6294.417, 3275.623 6322.500 C 3275.722 6344.306, 3277.586 6350.905, 3294.010 6387.612 C 3300.093 6401.207, 3304.700 6412.700, 3304.249 6413.151 C 3302.894 6414.506, 3289.397 6418.944, 3281.698 6420.566 C 3272.994 6422.399, 3242.102 6423.946, 3213.500 6423.981 C 3179.449 6424.023, 3163.601 6425.374, 3148.952 6429.485 C 3142.103 6431.407, 3134.700 6432.982, 3132.500 6432.986 C 3124.691 6432.999, 3120.388 6428.692, 3111.395 6411.860 C 3101.607 6393.541, 3096.782 6385.879, 3091.322 6379.981 C 3083.842 6371.902, 3078.977 6369.813, 3066.254 6369.218 C 3054.558 6368.670, 3048.943 6369.574, 3032.190 6374.702 C 3018.406 6378.921, 3011.001 6379.445, 3007.972 6376.416 C 3003.003 6371.447, 3003.211 6360.191, 3009.453 6296.500 C 3017.242 6217.026, 3017.936 6208.828, 3018.895 6184.942 C 3020.669 6140.720, 3016.993 6115.697, 3003.875 6082.707 C 2990.908 6050.095, 2975.573 6031.121, 2953.219 6020.030 C 2926.898 6006.970, 2890.958 6012.512, 2857 6034.866 C 2846.370 6041.863, 2827.002 6060.924, 2820.274 6071.008 C 2807.517 6090.132, 2802.586 6104.435, 2800.457 6128.500 C 2797.390 6163.157, 2791.661 6263.920, 2789.994 6312.500 C 2788.462 6357.172, 2787.275 6375.842, 2785.621 6381.299 C 2784.821 6383.939, 2782.391 6388.449, 2780.221 6391.323 L 2776.277 6396.548 2757.388 6394.736 C 2725.948 6391.720, 2709.820 6393.402, 2692.222 6401.533 C 2677.196 6408.475, 2662.652 6420.595, 2655.150 6432.425 C 2649.155 6441.877, 2647.577 6448.754, 2647.556 6465.500 C 2647.534 6483.820, 2649.295 6492.630, 2655.604 6505.760 C 2663.864 6522.947, 2676.948 6533.923, 2699.278 6542.395 C 2720.808 6550.563, 2725.905 6551.102, 2755.768 6548.372 L 2763.037 6547.707 2767.034 6552.037 C 2769.452 6554.656, 2771.618 6558.342, 2772.516 6561.365 C 2774.234 6567.150, 2774.445 6581.473, 2772.998 6594.098 C 2771.747 6605.013, 2767.666 6664.883, 2765.030 6711 C 2763.913 6730.525, 2762.544 6753.925, 2761.988 6763 C 2761.431 6772.075, 2759.872 6801.100, 2758.524 6827.500 C 2757.175 6853.900, 2755.831 6879.775, 2755.536 6885 C 2755.241 6890.225, 2753.868 6918.350, 2752.485 6947.500 C 2748.544 7030.560, 2747.710 7036.311, 2738.155 7046.282 C 2732.702 7051.973, 2725.414 7053.840, 2704.068 7055.012 C 2673.508 7056.690, 2663.672 7058.518, 2649.199 7065.209 C 2607.729 7084.378, 2574.150 7127.989, 2562.352 7178 C 2558.950 7192.423, 2558.075 7215.521, 2560.421 7228.961 C 2567.431 7269.115, 2596.627 7310.594, 2633.732 7333.116 C 2667.845 7353.822, 2690.846 7356.137, 2736.500 7343.461 C 2774.775 7332.834, 2804.171 7318.260, 2852.941 7285.734 C 2901.493 7253.353, 2941.042 7220.928, 2983.103 7179.018 C 3012.208 7150.017, 3025.207 7135.607, 3048.500 7106.523 C 3082.350 7064.258, 3093.537 7045.294, 3104.853 7011 C 3114.443 6981.938, 3115.080 6969.332, 3107.710 6954.500 C 3104.155 6947.347, 3091.630 6934.373, 3085 6930.975 C 3079.031 6927.916, 3067.722 6927.187, 3059.383 6929.323 C 3049.474 6931.862, 3044.678 6935.088, 3015.552 6958.808 C 3005.766 6966.777, 2992.844 6975.261, 2987.721 6977.081 C 2984.342 6978.281, 2983.565 6978.221, 2980.399 6976.516 C 2969.408 6970.597, 2969.084 6963.175, 2976.574 6889 C 2985.806 6797.568, 2988.045 6774.762, 2989.928 6753 C 2992.102 6727.868, 2994.268 6698.310, 2996.009 6670 C 3001.025 6588.444, 3002.286 6577.306, 3007.512 6568.389 C 3012.005 6560.722, 3019.619 6556.095, 3044 6546.214 C 3061.438 6539.147, 3072.046 6533.993, 3082.373 6527.570 C 3093.314 6520.766, 3101.297 6517.636, 3105.849 6518.368 C 3111.315 6519.247, 3115.307 6521.965, 3126.332 6532.315 C 3132.082 6537.713, 3138.297 6543.278, 3140.143 6544.681 C 3144.673 6548.126, 3154.291 6552.445, 3161 6554.047 C 3168.401 6555.814, 3189.186 6555.605, 3206.500 6553.589 C 3234.217 6550.361, 3248.837 6550.028, 3410.500 6548.935 C 3627.594 6547.467, 3837.262 6548.193, 3866.500 6550.513 C 3892.487 6552.576, 3951.432 6552.083, 3973.195 6549.621 C 4002.545 6546.301, 4019.531 6542.691, 4030.667 6537.406 C 4044.633 6530.778, 4056.147 6516.986, 4061.598 6500.355 C 4064.220 6492.354, 4064.500 6490.198, 4064.500 6478 C 4064.500 6465.773, 4064.229 6463.699, 4061.628 6456 C 4055.300 6437.276, 4046.844 6423.570, 4033.556 6410.500 C 4010.545 6387.867, 3981.172 6379.287, 3952.831 6386.920 C 3948.613 6388.056, 3934.249 6392.813, 3920.910 6397.491 C 3892.759 6407.364, 3878.863 6411.498, 3867 6413.531 C 3856.218 6415.378, 3837.646 6416.982, 3835.012 6416.293 C 3829.510 6414.854, 3835.441 6405.095, 3848.441 6394.198 C 3861.709 6383.076, 3870.816 6372.382, 3881.464 6355.423 C 3891.705 6339.112, 3895.852 6324.142, 3894.557 6308.164 C 3892.604 6284.059, 3881.064 6266.174, 3852.695 6243.278 C 3837.450 6230.975, 3829.885 6223.995, 3830.578 6222.873 C 3831.425 6221.503, 3841.779 6221.840, 3864 6223.962 C 3894.630 6226.886, 3916.289 6228, 3942.501 6228 C 3969.287 6228, 3967.426 6228.446, 3982.659 6218.383 C 4012.477 6198.687, 4028.638 6157.091, 4019.090 6124.620 C 4014.433 6108.785, 4004.484 6092.549, 3992.306 6080.915 C 3978.733 6067.947, 3968.581 6063.152, 3948.576 6060.260 C 3939.142 6058.897, 3935.869 6058.840, 3926.500 6059.876 C 3912.656 6061.408, 3904.779 6063.419, 3883.179 6070.938 C 3854.503 6080.919, 3842.116 6083.365, 3802 6086.969 C 3780.957 6088.859, 3746.664 6090.965, 3733.608 6091.170 L 3720.716 6091.371 3718.238 6088.490 C 3715.982 6085.867, 3715.810 6085.021, 3716.327 6079.054 C 3716.639 6075.449, 3717.414 6069.125, 3718.049 6065 C 3718.761 6060.372, 3719.020 6050.608, 3718.726 6039.500 C 3718.323 6024.324, 3717.838 6019.931, 3715.633 6011.500 C 3708.851 5985.563, 3687.369 5954.730, 3663.601 5936.821 C 3648.833 5925.692, 3620.418 5913.967, 3600 5910.577 C 3579.739 5907.213, 3518.261 5905.959, 3503.578 5908.610 M 1471.500 5941.656 C 1445.940 5944.691, 1428.285 5953.421, 1411.192 5971.479 C 1389.585 5994.305, 1373.216 6028.631, 1317.122 6168.740 C 1278.814 6264.424, 1271.073 6282.107, 1242.587 6339 C 1197.939 6428.172, 1170.166 6472.838, 1128.490 6522.500 C 1101.849 6554.245, 1091.907 6569.998, 1082.568 6595.259 C 1065.627 6641.084, 1066.072 6683.393, 1083.937 6725.549 C 1089.794 6739.369, 1095.107 6747.449, 1107.249 6761 C 1126.773 6782.790, 1147.326 6795.564, 1171.110 6800.691 C 1182.436 6803.133, 1215.850 6803.088, 1234.500 6800.606 C 1257.744 6797.513, 1283.626 6791.756, 1305 6784.925 C 1314.388 6781.925, 1345.221 6767.435, 1352 6762.838 C 1353.925 6761.533, 1358.650 6758.606, 1362.500 6756.333 C 1371.813 6750.837, 1391.742 6736.789, 1405.974 6725.690 C 1421.831 6713.323, 1420.749 6714.051, 1418.886 6717 C 1418.017 6718.375, 1413.337 6725.800, 1408.485 6733.500 C 1395.918 6753.445, 1380.677 6776.168, 1357.509 6809.500 C 1340.060 6834.604, 1321.929 6860.793, 1293.610 6901.794 C 1274.385 6929.629, 1231.167 6990.141, 1214.186 7013 C 1190.304 7045.150, 1148.218 7097.030, 1118.500 7130.953 C 1104.678 7146.730, 1099.339 7153.805, 1086.634 7173.181 C 1065.158 7205.932, 1057.848 7223.916, 1054.392 7252.500 C 1050.334 7286.058, 1059.341 7321.752, 1078.662 7348.681 C 1107.844 7389.355, 1141.248 7415.055, 1229.500 7464.729 C 1307.190 7508.458, 1353.142 7530.492, 1396.738 7544.919 C 1419.589 7552.481, 1419.734 7552.500, 1454 7552.500 L 1484.500 7552.500 1497.183 7549.222 C 1513.177 7545.088, 1541.160 7535.623, 1555.500 7529.496 C 1576.700 7520.438, 1601.568 7507.172, 1617 7496.688 C 1632.885 7485.897, 1814.257 7329.578, 1839.359 7305.045 C 1894.351 7251.298, 1927.682 7189.808, 1935.054 7128.500 C 1936.749 7114.409, 1936.491 7080.303, 1934.566 7064 C 1927.216 7001.759, 1903.501 6951.828, 1862.372 6912 C 1844.677 6894.865, 1830.294 6884.681, 1808.002 6873.501 C 1787.076 6863.006, 1754.270 6850.917, 1737 6847.335 C 1726.683 6845.195, 1699.652 6844.947, 1687.500 6846.881 C 1638.534 6854.671, 1593.443 6881.118, 1558.575 6922.500 C 1546.611 6936.699, 1540.008 6946.647, 1533.422 6960.398 C 1525.124 6977.723, 1523.232 6984.236, 1515.380 7022.500 C 1506.929 7063.682, 1502.759 7077.498, 1495.461 7088.492 C 1490.051 7096.644, 1480.110 7106.278, 1468.943 7114.193 C 1440.151 7134.602, 1351.275 7184.985, 1341.255 7186.579 C 1336.180 7187.386, 1334.460 7186.263, 1333.579 7181.567 C 1331.081 7168.257, 1371.473 7108.355, 1497.583 6938.346 C 1507.437 6925.061, 1521.118 6906.611, 1527.984 6897.346 C 1534.850 6888.081, 1552.268 6864.678, 1566.690 6845.340 C 1581.112 6826.002, 1596.097 6805.443, 1599.990 6799.653 C 1612.840 6780.539, 1618.408 6765.766, 1619.709 6747.335 C 1620.467 6736.593, 1618.895 6729.004, 1613.363 6716.695 C 1610.909 6711.234, 1609.133 6706.534, 1609.417 6706.250 C 1610.376 6705.291, 1632.404 6708.204, 1646.500 6711.153 C 1672.660 6716.627, 1676.491 6717.161, 1693.535 6717.711 C 1725.465 6718.742, 1752.524 6713.287, 1777.416 6700.801 C 1802.463 6688.236, 1828.041 6663.756, 1845.785 6635.366 C 1863.940 6606.318, 1878.295 6566.930, 1881.095 6538.485 C 1882.515 6524.061, 1881.723 6496.571, 1879.497 6483 C 1871.980 6437.177, 1837.077 6381.195, 1795.212 6347.815 C 1773.412 6330.432, 1747.001 6317.583, 1722.841 6312.606 C 1701.478 6308.205, 1671.929 6307.961, 1652.500 6312.024 C 1563.671 6330.600, 1491.630 6419.653, 1496.388 6505 C 1497.600 6526.740, 1500.795 6548.071, 1508.463 6585.600 C 1513.729 6611.376, 1514.749 6620.200, 1513.056 6625.332 C 1512.014 6628.487, 1510.691 6629.603, 1503.177 6633.661 C 1498.404 6636.239, 1492.626 6639.614, 1490.335 6641.163 C 1485.407 6644.495, 1470.511 6659.691, 1451.775 6680.500 C 1438.081 6695.710, 1433 6700.897, 1433 6699.670 C 1433 6699.297, 1438.136 6688.756, 1444.414 6676.246 C 1457.616 6649.936, 1463.254 6636.293, 1463.178 6630.835 C 1463.148 6628.625, 1461.932 6624.770, 1460.313 6621.748 C 1457.819 6617.095, 1456.660 6616.084, 1450.091 6612.830 C 1440.244 6607.952, 1429.193 6604.393, 1419.921 6603.114 C 1415.753 6602.538, 1399.328 6601.367, 1383.421 6600.510 C 1339.507 6598.145, 1314.549 6595.900, 1310.989 6593.994 C 1309.552 6593.225, 1309.411 6592.288, 1310.088 6588.010 C 1311.227 6580.805, 1315.181 6574.433, 1333.988 6549.500 C 1368.648 6503.552, 1409 6445.584, 1443.633 6391.991 C 1447.006 6386.771, 1452.673 6378, 1456.225 6372.500 C 1475.523 6342.620, 1507.297 6290.602, 1523.720 6262 C 1553.882 6209.472, 1599.910 6119.599, 1605.820 6101.690 C 1618.771 6062.451, 1604.753 6009.753, 1572.888 5977.888 C 1557.584 5962.584, 1537.412 5951.251, 1515.500 5945.645 C 1504.007 5942.705, 1480.565 5940.580, 1471.500 5941.656 M 5253.130 5957.545 C 5247.426 5959.441, 5239.326 5962.888, 5235.130 5965.204 C 5221.570 5972.689, 5202.211 5993.577, 5193.521 6010.099 C 5182.366 6031.306, 5173.523 6065.337, 5169.501 6102.538 C 5164.342 6150.246, 5159.887 6163.051, 5145.500 6171.519 C 5138.744 6175.495, 5130.728 6176.225, 5099.313 6175.725 C 5065.315 6175.184, 5063.751 6174.881, 5056.250 6167.380 L 5051 6162.130 5051 6111.289 C 5051 6081.604, 5050.560 6056.921, 5049.944 6051.974 C 5048.632 6041.451, 5044.334 6028.402, 5038.391 6016.894 C 5016.516 5974.541, 4964.779 5948.815, 4922.943 5959.489 C 4893.931 5966.892, 4861.072 5998.202, 4843.621 6035.073 C 4832.473 6058.626, 4828.868 6074.866, 4825.988 6114.500 C 4822.757 6158.962, 4818.438 6175.249, 4808.517 6180.378 C 4805.029 6182.182, 4802.797 6182.429, 4790.517 6182.368 C 4782.808 6182.330, 4768.040 6181.535, 4757.701 6180.600 C 4737.607 6178.784, 4726.493 6179.287, 4713.535 6182.599 C 4704.597 6184.884, 4693.658 6190.713, 4686.995 6196.742 C 4676.937 6205.844, 4667.064 6223.149, 4664.134 6236.811 C 4662.527 6244.303, 4662.666 6275.276, 4664.335 6281.712 C 4667.811 6295.112, 4681.964 6310.673, 4696.539 6317.120 C 4705.631 6321.142, 4716.622 6322.367, 4767.500 6325.031 C 4802.074 6326.841, 4804.606 6327.433, 4809.678 6334.882 C 4814.004 6341.237, 4815.039 6349.374, 4816.055 6385 C 4817.646 6440.757, 4819.515 6455.024, 4827.410 6471.647 C 4838.564 6495.136, 4860.494 6516.781, 4882.342 6525.867 C 4909.648 6537.222, 4942.686 6532.112, 4972.651 6511.897 C 4998.044 6494.767, 5017.890 6468.840, 5028.045 6439.533 C 5034.261 6421.592, 5037.226 6404.848, 5039.472 6375 C 5040.320 6363.725, 5041.616 6351.959, 5042.352 6348.853 C 5043.970 6342.022, 5048.025 6334.830, 5051.754 6332.177 C 5059.532 6326.643, 5076.183 6324.634, 5109.157 6325.250 C 5137.082 6325.771, 5142.460 6326.687, 5147.176 6331.726 C 5154.568 6339.625, 5155.527 6346.089, 5157.013 6398 C 5158.140 6437.376, 5158.963 6445.073, 5163.495 6458.660 C 5169.793 6477.540, 5179.018 6492.986, 5191.379 6505.347 C 5208.315 6522.283, 5228.777 6531.428, 5252.500 6532.664 C 5284.079 6534.309, 5320.873 6518.763, 5344.654 6493.727 C 5353.513 6484.401, 5359.028 6476.332, 5364.547 6464.623 C 5374.258 6444.020, 5377.062 6430.309, 5379.499 6391.500 C 5382.273 6347.322, 5384.370 6338.711, 5393.925 6332.272 C 5400.407 6327.903, 5408.567 6326.710, 5447 6324.511 C 5489.959 6322.054, 5501.644 6320.401, 5517.176 6314.583 C 5528.661 6310.282, 5535.715 6305.933, 5544.600 6297.679 C 5561.987 6281.523, 5567.763 6265.524, 5566.687 6236.500 C 5565.641 6208.273, 5557.291 6182.943, 5541.071 6158.788 C 5522.016 6130.411, 5499.191 6116.712, 5473.585 6118.283 C 5455.249 6119.408, 5443.785 6125.121, 5416.673 6146.643 C 5400.875 6159.184, 5391.495 6165.404, 5389.523 6164.647 C 5385.155 6162.971, 5385.107 6149.588, 5389.392 6128 C 5399.968 6074.725, 5398.834 6041.695, 5385.379 6011.152 C 5380.498 6000.071, 5367.015 5982.723, 5356.688 5974.237 C 5340.031 5960.550, 5315.254 5953.952, 5280.872 5954.049 C 5263.802 5954.097, 5263.319 5954.158, 5253.130 5957.545 M 7969 6050.008 C 7918.389 6052.250, 7822.332 6055.582, 7768.500 6056.963 C 7746.500 6057.527, 7721.975 6058.227, 7714 6058.518 C 7706.025 6058.809, 7612.650 6059.466, 7506.500 6059.977 C 7387.033 6060.553, 7309.880 6061.301, 7304 6061.942 C 7295.949 6062.818, 7293.128 6063.654, 7285.500 6067.420 C 7275.340 6072.436, 7269.586 6077.027, 7259.261 6088.354 C 7226.743 6124.026, 7224.382 6157.264, 7252 6190.557 C 7260.164 6200.398, 7270.278 6208.554, 7280.546 6213.576 L 7289.592 6218 7379.546 6218.020 C 7529.862 6218.052, 7869.164 6219.974, 7891.277 6220.919 C 7908.448 6221.652, 7912.527 6222.113, 7914.777 6223.578 C 7920.121 6227.055, 7921.139 6230.434, 7918.836 6237.040 C 7916.895 6242.610, 7887.273 6278.407, 7836.177 6336.931 C 7773.064 6409.220, 7762.780 6419.672, 7740.213 6434.458 C 7727.301 6442.918, 7715.044 6448.685, 7697.500 6454.555 C 7689.800 6457.131, 7681.250 6460.365, 7678.500 6461.742 C 7662.850 6469.579, 7643.486 6485.852, 7633.042 6499.946 C 7616.873 6521.763, 7609.011 6548.203, 7609.003 6580.789 C 7609 6593.280, 7609.935 6603.185, 7613.506 6628.500 C 7619.030 6667.651, 7617.564 6681.037, 7607.161 6686.417 C 7599.758 6690.245, 7580.121 6692.301, 7535 6693.972 C 7467.912 6696.457, 7258.386 6701.549, 7183.500 6702.514 C 7131.079 6703.189, 7102.486 6704.475, 7092.059 6706.625 C 7057.816 6713.688, 7029.884 6753.766, 7029.863 6795.869 C 7029.857 6807.898, 7030.570 6812.611, 7033.819 6822.004 C 7042.182 6846.181, 7063.314 6870.490, 7084.154 6879.905 C 7097.294 6885.842, 7102.065 6885.980, 7137.500 6881.454 C 7147.950 6880.119, 7167.075 6878.572, 7180 6878.015 C 7232.240 6875.764, 7587.878 6874.072, 7602.746 6876.003 C 7622.059 6878.512, 7627.106 6887.214, 7627.029 6917.871 C 7627.006 6926.996, 7626.107 6942.487, 7624.998 6952.871 C 7622.164 6979.398, 7622.166 6979.368, 7619.967 7013 C 7617.593 7049.302, 7615.765 7068.429, 7612.414 7092 C 7606.235 7135.472, 7596.049 7184.045, 7579.595 7248.500 C 7553.926 7349.057, 7537.984 7393, 7527.172 7393 C 7525.081 7393, 7520 7388.400, 7502.026 7370.233 C 7477.391 7345.334, 7468.167 7337.008, 7457.758 7330.275 C 7439.813 7318.666, 7408.233 7308.929, 7378.463 7305.826 C 7365.377 7304.462, 7353.419 7305.725, 7346.630 7309.189 C 7337.794 7313.696, 7328.711 7326.333, 7325.531 7338.542 C 7323.602 7345.950, 7323.606 7349.311, 7325.555 7355.874 C 7327.553 7362.602, 7334.895 7370.025, 7348.555 7379.126 C 7354.025 7382.771, 7368.400 7392.296, 7380.500 7400.294 C 7421.198 7427.194, 7437.019 7442.271, 7447.499 7464.139 C 7452.239 7474.029, 7453.243 7479.988, 7452.843 7495.859 C 7452.507 7509.208, 7452.421 7509.666, 7448.802 7517.244 C 7439.987 7535.705, 7424.676 7552.026, 7395.312 7574.264 C 7383.032 7583.564, 7358.415 7600.011, 7347.500 7606.208 C 7274.168 7647.845, 7144.155 7688.416, 7040.519 7702.002 C 6983.168 7709.521, 6895.510 7713.197, 6822.970 7711.125 C 6765.491 7709.484, 6745.551 7707.765, 6688 7699.490 C 6653.210 7694.488, 6606.115 7687.867, 6588 7685.431 C 6492.154 7672.545, 6466.100 7667.830, 6273.500 7628.510 C 6225.996 7618.812, 6191.730 7611.993, 6178 7609.505 C 6173.875 7608.758, 6161.988 7606.527, 6151.585 7604.547 C 6068.978 7588.826, 5978.732 7576.764, 5930.500 7574.998 C 5897.012 7573.771, 5826.863 7573.776, 5793.211 7575.007 C 5729.923 7577.322, 5643.433 7592.869, 5581.500 7613.064 C 5507.408 7637.222, 5442.774 7672.767, 5376.500 7725.803 C 5356.930 7741.464, 5341.664 7756.263, 5329.879 7771 C 5315.166 7789.397, 5298.580 7825.587, 5293.561 7850.245 C 5286.017 7887.308, 5291.243 7928.549, 5307.549 7960.642 C 5322.980 7991.012, 5344.403 8009.714, 5388.183 8031.037 C 5408.040 8040.708, 5416.208 8042.885, 5437.635 8044.217 C 5464.102 8045.863, 5486.911 8044.326, 5500.500 8039.982 C 5522.290 8033.016, 5550.622 8020.011, 5581 8003.030 C 5613.256 7984.999, 5621.825 7978.528, 5629.819 7966.158 C 5635.991 7956.610, 5641.307 7943.402, 5641.756 7936.500 C 5642.102 7931.170, 5641.808 7929.974, 5639.121 7925.791 C 5637.457 7923.201, 5634.162 7919.674, 5631.798 7917.952 C 5627.886 7915.102, 5626.952 7914.855, 5621.399 7915.199 C 5615.960 7915.535, 5612.648 7916.895, 5590.899 7927.723 C 5577.479 7934.404, 5562 7941.526, 5556.500 7943.551 C 5522.330 7956.128, 5496.647 7956.821, 5470.355 7945.875 C 5454.616 7939.323, 5441.173 7928.056, 5436.457 7917.464 C 5431.606 7906.570, 5430.784 7886.801, 5434.567 7872 C 5439.955 7850.914, 5452.015 7835.672, 5482 7812.051 C 5526.218 7777.217, 5579.470 7755.653, 5652.400 7743.049 C 5673.623 7739.382, 5689.962 7738.727, 5746.393 7739.284 C 5817.305 7739.984, 5843.174 7742.217, 5907 7753.145 C 5948.312 7760.219, 5993.275 7770.020, 6111 7797.612 C 6159.649 7809.014, 6162.976 7809.804, 6238.500 7827.897 C 6252.250 7831.191, 6269.350 7835.282, 6276.500 7836.987 C 6283.650 7838.692, 6294.900 7841.398, 6301.500 7843.001 C 6308.100 7844.603, 6328.350 7849.506, 6346.500 7853.897 C 6364.650 7858.287, 6396.150 7865.981, 6416.500 7870.994 C 6436.850 7876.006, 6466.100 7883.208, 6481.500 7886.997 C 6609.212 7918.418, 6649.722 7924.115, 6826 7935.447 C 6926.995 7941.940, 7008.324 7938.364, 7099 7923.443 C 7253.567 7898.008, 7374.431 7855.870, 7487 7788.170 C 7570.138 7738.171, 7629.415 7686.754, 7682.610 7618.500 C 7758.810 7520.727, 7802.964 7419.432, 7838.006 7262 C 7856.982 7176.750, 7860.071 7139.921, 7862.998 6964 C 7863.534 6931.825, 7864.454 6902.575, 7865.044 6899 C 7866.851 6888.037, 7874.205 6878.266, 7882.288 6876.090 C 7888.275 6874.477, 7949.770 6873.216, 8081.500 6872.004 C 8224.806 6870.686, 8238.096 6870.106, 8278.998 6863.384 C 8325.897 6855.677, 8346.673 6847.976, 8363.218 6832.169 C 8384.442 6811.892, 8394.993 6784.607, 8394.992 6750 C 8394.992 6713.110, 8382.702 6681.673, 8358.964 6657.837 C 8336.508 6635.290, 8305.253 6622.998, 8280.265 6626.887 C 8260.022 6630.038, 8245.613 6638.590, 8221.916 6661.516 C 8205.798 6677.110, 8196.247 6684.071, 8186.153 6687.582 C 8171.869 6692.549, 8173.237 6692.505, 8034.500 6692.419 C 7875.300 6692.319, 7868.183 6691.933, 7862.252 6683.070 C 7859.134 6678.411, 7853.738 6660.986, 7849.570 6642.116 C 7838.436 6591.710, 7838.935 6574.961, 7851.957 6561.967 C 7857.778 6556.159, 7867.921 6549.277, 7910.146 6522.486 C 7977.185 6479.950, 8005.035 6461.649, 8037 6439.127 C 8097.488 6396.509, 8142.521 6357.329, 8177.243 6317.110 C 8213.785 6274.784, 8232.190 6233.150, 8232.328 6192.500 C 8232.426 6163.861, 8225.113 6143.263, 8205.643 6117.332 C 8189.820 6096.258, 8169.217 6077.163, 8154.073 6069.537 C 8138.650 6061.770, 8112.795 6056.038, 8072.310 6051.410 C 8055.995 6049.545, 7997.407 6048.750, 7969 6050.008 M 2160 6058.995 C 2143.225 6059.415, 2122.975 6060.261, 2115 6060.876 C 2106.601 6061.523, 2047.907 6062.413, 1975.500 6062.991 C 1906.750 6063.541, 1846.362 6064.436, 1841.305 6064.981 C 1816.904 6067.612, 1789.072 6081.505, 1772.334 6099.411 C 1753.279 6119.796, 1747.397 6134.392, 1748.194 6159.311 C 1748.592 6171.791, 1748.821 6173.011, 1752.436 6182 C 1758.195 6196.323, 1763.404 6204.601, 1772.059 6213.187 C 1778.417 6219.494, 1781.575 6221.723, 1789.654 6225.606 L 1799.500 6230.338 1943.500 6231.086 C 2212.370 6232.484, 2225.872 6232.850, 2238.123 6239.071 C 2242.506 6241.297, 2252.904 6253.105, 2255.862 6259.214 C 2260.179 6268.133, 2260.950 6278.711, 2262.183 6346 C 2263.089 6395.405, 2263.074 6421.154, 2262.115 6462 C 2261.437 6490.875, 2260.729 6515.850, 2260.541 6517.500 C 2260.353 6519.150, 2259.903 6526.350, 2259.542 6533.500 C 2259.181 6540.650, 2257.784 6562.475, 2256.439 6582 C 2240.590 6811.963, 2204.087 7094.855, 2176.013 7205.291 C 2168.030 7236.695, 2148.465 7293.684, 2128.050 7345 C 2115.070 7377.626, 2109.540 7386.355, 2088.010 7408.199 C 2074.537 7421.868, 2069.513 7424.507, 2057 7424.485 C 2042.219 7424.459, 2026.695 7417.894, 2022.752 7410 C 2020.293 7405.079, 2020.516 7396.127, 2023.533 7378.603 C 2028.465 7349.950, 2026.486 7335.372, 2015.446 7319.020 C 2000.273 7296.548, 1978.942 7283, 1958.733 7283 C 1949.917 7283, 1944.450 7284.359, 1934.156 7289.108 C 1904.514 7302.786, 1882.873 7330.589, 1874.860 7365.291 C 1872.201 7376.806, 1871.265 7399.851, 1872.940 7412.565 C 1875.951 7435.421, 1883.851 7457.950, 1894.309 7473.500 C 1909.886 7496.663, 1948.074 7523.314, 1990.927 7540.930 C 2022.246 7553.804, 2047.882 7558.761, 2088 7559.700 C 2128.527 7560.649, 2147.281 7557.282, 2182.500 7542.734 C 2202.293 7534.559, 2243.392 7514.591, 2254.327 7507.837 C 2274.822 7495.179, 2301.183 7469.276, 2317.766 7445.500 C 2338.732 7415.439, 2370.568 7352.437, 2390.532 7301.500 C 2427.283 7207.731, 2443.851 7122.635, 2476.007 6862.500 C 2486.948 6773.991, 2487.777 6765.871, 2492.498 6701 C 2494.854 6668.620, 2496.168 6652.516, 2502.450 6579 C 2510.130 6489.127, 2512.539 6438.445, 2513.952 6337 C 2515.325 6238.421, 2513.992 6208.346, 2506.864 6177.099 C 2498.806 6141.770, 2486.307 6115.766, 2468.349 6096.970 C 2446.560 6074.164, 2419.594 6062.260, 2384.500 6059.957 C 2365.974 6058.741, 2198.799 6058.025, 2160 6058.995 M 4271.500 6147.950 C 4251.376 6151.185, 4235.429 6162.176, 4219.868 6183.536 C 4211.694 6194.757, 4205.300 6208.839, 4201.495 6224 C 4198.279 6236.818, 4196.340 6255.174, 4191.515 6318.500 C 4190.677 6329.500, 4189.760 6341.425, 4189.477 6345 C 4189.195 6348.575, 4186.720 6380.750, 4183.979 6416.500 C 4178.652 6485.966, 4174.741 6535.005, 4169.983 6592 C 4165.604 6644.444, 4161.642 6705.528, 4154.511 6830.500 C 4153.130 6854.700, 4151.549 6882.375, 4150.997 6892 C 4144.017 7013.861, 4142.663 7068.921, 4146.005 7095 C 4152.163 7143.041, 4173.217 7184.540, 4202.848 7207.038 C 4210.840 7213.106, 4225.074 7220.229, 4234 7222.626 C 4243.959 7225.301, 4262.286 7225.107, 4272.309 7222.222 C 4293.693 7216.066, 4310.019 7202.653, 4328.500 7176.057 C 4349.183 7146.293, 4357.346 7141.729, 4374.982 7150.069 C 4383.601 7154.145, 4389.388 7158.556, 4402.962 7171.395 C 4422.873 7190.227, 4435.709 7198.448, 4452.500 7203.123 C 4458.783 7204.872, 4463.182 7205.354, 4473 7205.370 C 4488.515 7205.396, 4494.974 7204.060, 4506.784 7198.384 C 4514.985 7194.443, 4517.383 7192.616, 4527.356 7182.711 C 4567.585 7142.759, 4595.307 7079.316, 4605.880 7003 C 4607.898 6988.430, 4610.456 6962.253, 4611.497 6945.500 C 4611.804 6940.550, 4612.272 6934.475, 4612.537 6932 C 4613.004 6927.628, 4614.725 6898.788, 4621.011 6790 C 4624.643 6727.144, 4636.274 6534.257, 4640.518 6466.500 C 4641.345 6453.300, 4642.783 6431.925, 4643.714 6419 C 4646.813 6375.964, 4645.577 6300.403, 4641.358 6275 C 4637.195 6249.936, 4625.640 6223.099, 4609.947 6202.051 C 4595.471 6182.634, 4571.480 6165.158, 4548.610 6157.370 C 4513.290 6145.342, 4460.585 6151.505, 4429.500 6171.297 C 4426.750 6173.048, 4420.064 6177.794, 4414.642 6181.844 C 4402.532 6190.890, 4393.115 6196.852, 4388.351 6198.490 C 4380.625 6201.146, 4373.278 6197.465, 4349.500 6179.024 C 4330.450 6164.251, 4323.489 6159.552, 4314.622 6155.483 C 4301.502 6149.463, 4282.613 6146.163, 4271.500 6147.950 M 6357.446 6160.468 C 6351.498 6163.436, 6342.477 6170.460, 6223.500 6264.773 C 6199.540 6283.766, 6184.609 6297.728, 6185.164 6300.622 C 6185.504 6302.393, 6187.348 6302.545, 6217.512 6303.285 C 6258.627 6304.295, 6516.384 6303.463, 6521 6302.306 C 6525.259 6301.239, 6526.013 6298.074, 6523.124 6293.395 C 6520.418 6289.014, 6472.793 6244.740, 6426.457 6203.529 C 6416.581 6194.745, 6408.275 6187.307, 6408 6187.001 C 6404.847 6183.486, 6378.108 6161.585, 6375.089 6160.045 C 6369.671 6157.281, 6363.539 6157.428, 6357.446 6160.468 M 3568.500 6219.621 C 3495.006 6220.916, 3430.360 6223.274, 3424.356 6224.880 C 3422.869 6225.278, 3421.184 6226.347, 3420.610 6227.257 C 3419.165 6229.548, 3420.872 6231.245, 3444.500 6250.991 C 3475.032 6276.506, 3488.288 6291.426, 3498.261 6311.500 C 3510.483 6336.103, 3512.879 6361.485, 3506.040 6393.914 C 3502.453 6410.919, 3502.259 6415.019, 3504.924 6417.432 C 3507.485 6419.749, 3519.250 6420.763, 3553.500 6421.619 C 3584.471 6422.393, 3594.384 6421.488, 3603.700 6417.035 C 3616.347 6410.990, 3622.371 6401.838, 3640.098 6361.736 C 3659.069 6318.820, 3675.829 6288.155, 3695.276 6260.781 C 3709.010 6241.450, 3711.994 6236.255, 3711.997 6231.673 C 3712.001 6226.971, 3708.221 6222.758, 3702.421 6220.999 C 3698.550 6219.825, 3609.153 6218.905, 3568.500 6219.621 M 4400.319 6302.063 C 4392.336 6304.468, 4382.528 6317.218, 4380.007 6328.468 C 4378.801 6333.849, 4377.147 6365.395, 4376.939 6387 C 4376.291 6454.012, 4372.248 6527.155, 4353.998 6802 C 4351.825 6834.725, 4349.085 6877.700, 4347.909 6897.500 C 4345.321 6941.080, 4344.822 6991.791, 4346.871 7003 C 4350.376 7022.179, 4355.681 7027.990, 4371.132 7029.573 C 4378.816 7030.360, 4390.783 7028.665, 4395.833 7026.075 C 4400.355 7023.756, 4403.138 7020.769, 4405.897 7015.271 C 4410.653 7005.794, 4411.508 6998.044, 4415.473 6928.500 C 4423.564 6786.597, 4423.345 6789.863, 4428.416 6735.500 C 4429.820 6720.456, 4432.241 6669.881, 4433.491 6629.500 C 4437.333 6505.395, 4441.075 6445.615, 4448.232 6394 C 4451.187 6372.687, 4451.211 6350.056, 4448.287 6341.254 C 4443.644 6327.275, 4429.494 6310.265, 4417.873 6304.690 C 4411.658 6301.709, 4404.868 6300.693, 4400.319 6302.063 M 6576.500 6485.617 C 6573.750 6485.839, 6567 6486.683, 6561.500 6487.494 C 6546.342 6489.726, 6511.651 6490.851, 6408.500 6492.454 C 6255.047 6494.838, 6231.270 6495.745, 6182 6501.090 C 6171.825 6502.194, 6157.425 6503.951, 6150 6504.995 C 6117.805 6509.523, 6109.666 6510.329, 6095.500 6510.392 C 6077.290 6510.473, 6073.212 6509.525, 6050.087 6499.826 C 6031.965 6492.225, 6022.980 6489.555, 6010.096 6487.941 C 5988.418 6485.226, 5965.146 6492.184, 5942.500 6508.154 C 5930.383 6516.698, 5910.954 6536.216, 5903.332 6547.500 C 5887.057 6571.597, 5876.667 6602.854, 5872.917 6639 C 5871.285 6654.733, 5870.521 6755.615, 5871.899 6773.499 C 5873.726 6797.221, 5877.725 6811.624, 5888.280 6832.502 C 5902.450 6860.532, 5924.739 6879.450, 5949.718 6884.651 C 5959.642 6886.718, 5975.535 6886.127, 6019.500 6882.059 C 6037.100 6880.430, 6060.050 6878.628, 6070.500 6878.055 C 6091.528 6876.900, 6232.179 6875.419, 6408.500 6874.496 C 6578.591 6873.605, 6627.232 6872.377, 6649 6868.421 C 6677.479 6863.246, 6696.458 6854.246, 6713.606 6837.782 C 6734.307 6817.909, 6746.077 6792.049, 6755.381 6746 C 6761.208 6717.155, 6762.826 6703.694, 6764.002 6674.236 C 6766.315 6616.354, 6760.845 6583.061, 6744.331 6554.500 C 6732.027 6533.221, 6717.653 6519.950, 6694 6508.032 C 6670.569 6496.226, 6653.249 6490.028, 6636.500 6487.458 C 6626.793 6485.968, 6587.196 6484.753, 6576.500 6485.617 M 5050 6525.580 C 5048.625 6525.828, 5043.225 6526.751, 5038 6527.631 C 5020.223 6530.625, 4996.711 6539.715, 4977.687 6550.950 C 4970.446 6555.226, 4954.327 6566.675, 4939.500 6578.075 C 4924.395 6589.688, 4910.140 6596, 4899.020 6596 C 4892.857 6596, 4881.311 6592.686, 4873.141 6588.571 C 4854.543 6579.205, 4841.179 6575.619, 4825 6575.652 C 4817.666 6575.667, 4810.964 6576.291, 4806.500 6577.375 C 4793.038 6580.644, 4765.525 6594.211, 4745.500 6607.457 C 4688.121 6645.409, 4661.989 6696.902, 4651.336 6793 C 4648.004 6823.061, 4649.160 6890.938, 4653.575 6924.500 C 4657.756 6956.281, 4658.273 6963.199, 4658.324 6988 C 4658.401 7025.468, 4656.247 7038.650, 4640.359 7097.919 C 4620.314 7172.697, 4613.554 7205.431, 4610.912 7240.500 C 4604.024 7331.948, 4657.524 7436.603, 4729.500 7472.479 C 4750.604 7482.998, 4767.255 7486.870, 4795.045 7487.721 C 4825.169 7488.644, 4845.264 7485.139, 4896.144 7470.090 C 4960.177 7451.151, 4971.134 7449.357, 5017.242 7450.266 C 5053.848 7450.987, 5064.873 7453.312, 5099.913 7467.699 C 5144.581 7486.040, 5183.981 7494.229, 5228 7494.322 C 5257.881 7494.385, 5278.151 7491.326, 5303.500 7482.929 C 5354.983 7465.876, 5395.499 7428.430, 5422.983 7372.500 C 5450.605 7316.291, 5462.598 7258.082, 5459.175 7196.841 C 5458.550 7185.653, 5457.389 7171.550, 5456.596 7165.500 C 5454.245 7147.577, 5453.721 7132.484, 5454.945 7118 C 5457.436 7088.544, 5463.996 7067.066, 5480.298 7035 C 5497.268 7001.621, 5503.968 6985.770, 5510.525 6963.486 C 5516.886 6941.869, 5520.629 6919.891, 5523.125 6889.500 C 5524.825 6868.800, 5524.860 6803.943, 5523.179 6788 C 5518.282 6741.542, 5505.632 6697.250, 5485.012 6654.368 C 5472.895 6629.167, 5463.613 6614.091, 5449.167 6596.145 C 5436.042 6579.841, 5421.948 6570.011, 5405 6565.340 C 5395.766 6562.795, 5368.889 6562.778, 5357 6565.310 C 5343.133 6568.262, 5306.431 6577.598, 5277 6585.659 C 5234.850 6597.203, 5213.603 6602.105, 5205.444 6602.168 C 5191.857 6602.273, 5182.977 6595.726, 5174 6578.986 C 5165.586 6563.297, 5155.400 6554.774, 5129.911 6542.096 C 5107.614 6531.007, 5089.446 6526.306, 5066 6525.559 C 5058.575 6525.322, 5051.375 6525.332, 5050 6525.580 M 3273.500 6598.602 C 3242.438 6606.032, 3211.715 6628.503, 3191.608 6658.500 C 3172.300 6687.302, 3167.187 6708.668, 3156.544 6805 C 3142.751 6929.846, 3139.736 6974.386, 3141.850 7022.070 C 3143.133 7051.022, 3144.732 7062.081, 3149.924 7077.890 C 3164.286 7121.628, 3190.949 7144.911, 3237 7153.929 C 3256.962 7157.838, 3266 7161.881, 3266 7166.901 C 3266 7174.843, 3250.143 7213.752, 3232.541 7249 C 3205.826 7302.498, 3166.334 7355.589, 3115 7407.014 C 3045.116 7477.024, 2970.805 7528.400, 2885.500 7565.684 C 2799.308 7603.356, 2708.759 7626.144, 2594.500 7638.919 C 2541.171 7644.882, 2487.798 7647.767, 2371 7651.001 C 2290.775 7653.223, 2265.895 7655.519, 2218.737 7665.051 C 2171.262 7674.646, 2115.497 7690.776, 2075.206 7706.566 C 1995.174 7737.930, 1925.985 7793.299, 1877.677 7864.639 C 1846.023 7911.386, 1831.016 7951.262, 1831.004 7988.662 C 1830.999 8002.648, 1832.566 8012.065, 1836.839 8023.742 C 1844.405 8044.421, 1862.766 8067.033, 1873.991 8069.498 C 1875.634 8069.859, 1877.234 8070.569, 1877.548 8071.077 C 1878.570 8072.731, 1881.714 8072.058, 1888.002 8068.840 C 1898.615 8063.408, 1904.917 8053.013, 1913.064 8027.500 C 1915.874 8018.700, 1919.976 8005.875, 1922.180 7999 C 1946.236 7923.967, 1990.783 7866.972, 2058.356 7824.774 C 2065.585 7820.259, 2080.950 7811.787, 2092.500 7805.946 C 2149.521 7777.110, 2211.486 7759.664, 2273.500 7754.987 C 2294.593 7753.396, 2402.281 7752.083, 2515.167 7752.039 C 2714.031 7751.962, 2769.294 7748.486, 2860 7730.349 C 2924.711 7717.411, 2976.216 7703.335, 3021.664 7686.168 C 3095.308 7658.352, 3181.375 7608.482, 3249.150 7554.356 C 3289.294 7522.297, 3328.080 7484.281, 3354.087 7451.500 C 3398.760 7395.191, 3427.779 7343.504, 3455.988 7270 C 3488.989 7184.008, 3500.572 7159.403, 3511.658 7151.746 C 3518.491 7147.027, 3522.862 7145.721, 3530.097 7146.239 C 3538.136 7146.814, 3546.096 7150.776, 3549.614 7155.953 C 3552.806 7160.650, 3552.787 7170.021, 3549.541 7192 C 3548.201 7201.075, 3545.963 7216.167, 3544.567 7225.537 C 3532.827 7304.364, 3530.109 7383.968, 3537.624 7428.909 C 3552.722 7519.194, 3607.197 7580.195, 3692.067 7601.855 C 3720.934 7609.223, 3746.550 7611.547, 3789.500 7610.695 C 3830.585 7609.881, 3862.176 7606.467, 3899 7598.862 C 3926.476 7593.189, 3942.563 7587.793, 3963.242 7577.316 C 3987.652 7564.948, 4008.828 7549.218, 4031 7526.983 C 4064.137 7493.752, 4087.561 7458.294, 4097.878 7425.748 C 4104.774 7403.994, 4105.238 7400.588, 4105.202 7372 C 4105.161 7338.425, 4103.719 7328.840, 4095.502 7307.493 C 4078.352 7262.945, 4051.019 7233.726, 4018.130 7224.782 C 4006.907 7221.730, 3982.978 7221.719, 3970.813 7224.761 C 3944.983 7231.219, 3919.663 7248.178, 3903.274 7270 C 3892.430 7284.437, 3888.127 7299.766, 3889.527 7318.958 C 3891.136 7340.991, 3896.337 7350.555, 3922.520 7379.622 C 3940.484 7399.566, 3942.800 7404.171, 3938.799 7412 C 3935.522 7418.414, 3925.652 7425.438, 3906 7435.340 C 3883.254 7446.801, 3870.130 7450, 3845.849 7450 C 3804.655 7450, 3775.480 7433.733, 3759.398 7401.797 C 3743.859 7370.942, 3743.617 7339.434, 3758.022 7223 C 3765.203 7164.955, 3764.121 7170.004, 3770.660 7164.028 C 3778.312 7157.034, 3781.843 7156.218, 3809.500 7155.048 C 3835.804 7153.935, 3844.146 7152.371, 3857.737 7146.002 C 3862.385 7143.824, 3868.957 7140.055, 3872.344 7137.626 C 3884.996 7128.551, 3902.340 7108.187, 3915.402 7087.071 C 3939.628 7047.906, 3948.271 7023.323, 3953.536 6978.601 C 3958.741 6934.384, 3964.756 6864.648, 3965.017 6845.500 C 3965.077 6841.100, 3964.651 6828.050, 3964.071 6816.500 C 3963.490 6804.950, 3962.568 6777.725, 3962.021 6756 C 3960.972 6714.302, 3960.298 6706.690, 3956.500 6693.620 C 3949.416 6669.245, 3938.448 6651.815, 3920.079 6635.743 C 3902.427 6620.298, 3856.785 6604.548, 3822.500 6602.070 C 3765.445 6597.947, 3551.356 6597.924, 3474 6602.033 C 3440.273 6603.824, 3431.740 6605.764, 3408.913 6616.830 C 3394.264 6623.931, 3386.691 6625.553, 3372.176 6624.700 C 3361.940 6624.098, 3358.218 6622.643, 3339.500 6611.928 C 3319.927 6600.722, 3307.517 6596.956, 3290.590 6597.083 C 3284.491 6597.129, 3276.800 6597.812, 3273.500 6598.602 M 4985.317 6625.503 C 4977.402 6627.223, 4971.712 6629.763, 4963.930 6635.048 C 4946.798 6646.681, 4941.605 6657.220, 4926.502 6711 L 4919.902 6734.500 4920.969 6752 C 4923.241 6789.263, 4924.843 6798.754, 4930.892 6810.784 C 4938.876 6826.665, 4949.640 6836.758, 4968.500 6846.048 C 4983.167 6853.273, 4990.846 6855.431, 5002 6855.459 C 5016.444 6855.496, 5028.423 6849.652, 5041.083 6836.394 C 5061.076 6815.457, 5072.386 6789.946, 5075.930 6757.789 C 5077.316 6745.216, 5077.298 6717.984, 5075.896 6706.500 C 5071.909 6673.840, 5058.918 6649.504, 5038.207 6635.902 C 5029.325 6630.068, 5022.593 6627.462, 5011.324 6625.497 C 5001.010 6623.699, 4993.610 6623.700, 4985.317 6625.503 M 6184.158 6631.092 C 6130.518 6631.845, 6122.384 6632.427, 6114 6636.118 C 6104.864 6640.139, 6098.264 6649.792, 6095.897 6662.597 C 6094.428 6670.545, 6095.256 6729.151, 6096.910 6734.321 C 6098.949 6740.690, 6104.286 6745.714, 6110.314 6746.937 C 6137.177 6752.390, 6289.313 6750.494, 6429.500 6742.961 C 6506.772 6738.808, 6513.327 6737.655, 6522.066 6726.679 C 6531.480 6714.857, 6534.569 6702.199, 6533.702 6679.002 C 6532.806 6655.003, 6528.378 6642.178, 6518.539 6635.085 L 6513.802 6631.671 6480.151 6631.002 C 6435.424 6630.114, 6249.864 6630.170, 6184.158 6631.092 M 5215.033 6642.549 C 5187.130 6650.311, 5156.050 6699.363, 5143.534 6755.394 C 5129.081 6820.096, 5158.762 6873.399, 5207.166 6869.667 C 5238.260 6867.269, 5269.655 6842.620, 5285.977 6807.791 C 5300.262 6777.306, 5305.075 6742.545, 5298.478 6717.500 C 5292.779 6695.863, 5278.419 6670.536, 5263 6654.926 C 5252.015 6643.804, 5247.362 6641.798, 5231.500 6641.344 C 5223.858 6641.125, 5218.831 6641.493, 5215.033 6642.549 M 3532.500 6724.588 C 3484.400 6727.509, 3431.334 6732.295, 3411.191 6735.528 C 3396.107 6737.949, 3391.757 6740.489, 3388.089 6749.015 C 3385.301 6755.495, 3383.943 6765.915, 3383.922 6780.989 C 3383.894 6801.132, 3386.738 6807.184, 3397.104 6809.041 C 3416.718 6812.556, 3686.107 6809.956, 3714.129 6805.982 C 3722.831 6804.748, 3728.554 6802.112, 3732 6797.751 C 3734.309 6794.828, 3734.525 6793.642, 3734.834 6782.186 C 3735.629 6752.633, 3729.130 6740.713, 3709.440 6735.615 C 3699.162 6732.954, 3653.054 6727.964, 3620.500 6725.989 C 3602.734 6724.911, 3542.868 6723.958, 3532.500 6724.588 M 4783 6768.085 C 4775.329 6769.561, 4764.371 6775.844, 4756.223 6783.438 C 4738.014 6800.406, 4725.249 6824.269, 4719.927 6851.285 C 4717.601 6863.098, 4717.531 6868.010, 4719.526 6879.619 C 4721.579 6891.564, 4724.310 6899.655, 4730.119 6911 C 4736.350 6923.170, 4742.889 6931.796, 4753.344 6941.635 C 4769.993 6957.303, 4786.661 6964.061, 4805 6962.580 C 4836.984 6959.995, 4862.759 6937.741, 4871.109 6905.500 C 4875.722 6887.692, 4874.561 6860.424, 4868.353 6840.737 C 4853.769 6794.491, 4815.419 6761.847, 4783 6768.085 M 5350.102 6834.422 C 5335.943 6839.124, 5323.055 6847.125, 5310.666 6858.905 C 5293.361 6875.358, 5282.201 6894.879, 5277.453 6917 C 5275.271 6927.170, 5275.295 6967.746, 5277.490 6978.274 C 5280.535 6992.880, 5290.014 7008.083, 5301.422 7016.658 C 5309 7022.354, 5312.638 7024.207, 5322.012 7027.143 C 5328.775 7029.262, 5331.341 7029.488, 5348.500 7029.476 C 5366.529 7029.464, 5367.807 7029.334, 5373.508 7026.945 C 5398.555 7016.450, 5423.129 6983.878, 5430.998 6950.745 C 5434.910 6934.275, 5435.371 6909.148, 5432.073 6892.237 C 5428.619 6874.526, 5414.378 6853.503, 5398.500 6842.674 C 5387.946 6835.476, 5380.044 6832.803, 5368 6832.356 C 5358.873 6832.017, 5356.532 6832.287, 5350.102 6834.422 M 5044.422 6921.466 C 5028.406 6924.375, 5007.672 6933.350, 4993.331 6943.583 C 4981.231 6952.217, 4964.042 6966.436, 4950 6979.427 C 4918.589 7008.489, 4853.515 7057.958, 4819 7079.014 C 4798.732 7091.379, 4793.574 7095.297, 4780.932 7107.935 C 4767.387 7121.475, 4758.098 7134.769, 4750.989 7150.788 C 4739.199 7177.352, 4736.697 7190.501, 4736.583 7226.500 C 4736.494 7254.530, 4737.433 7264.205, 4741.680 7278.963 C 4748.089 7301.238, 4760.450 7314.948, 4784.909 7326.908 C 4805.542 7336.997, 4833.041 7344, 4852.027 7344 C 4871.614 7344, 4882.822 7341.060, 4911 7328.531 C 4937.529 7316.734, 4950.729 7312.120, 4971.091 7307.523 C 5004.452 7299.993, 5030.800 7299.960, 5056.500 7307.419 C 5074.796 7312.728, 5093.071 7321.354, 5124.500 7339.516 C 5155.933 7357.679, 5166.116 7361.784, 5182.052 7362.712 C 5197.254 7363.598, 5226.971 7360.051, 5239.389 7355.869 C 5258.359 7349.479, 5276.340 7336.161, 5286.908 7320.673 C 5299.683 7301.951, 5305.893 7275.350, 5304.692 7244.500 C 5303.215 7206.576, 5293.736 7179.362, 5265.506 7132 C 5237.833 7085.571, 5195.780 7020.416, 5170.633 6985.007 C 5154.727 6962.609, 5142.207 6949.477, 5127.444 6939.707 C 5115.896 6932.065, 5102.878 6925.693, 5094.379 6923.524 C 5080.957 6920.099, 5057.312 6919.125, 5044.422 6921.466 M 3561 6926.485 C 3527.725 6927.737, 3486.325 6929.299, 3469 6929.956 C 3416.024 6931.965, 3395.910 6933.504, 3390.314 6935.978 C 3377.770 6941.525, 3373.657 6950.952, 3371.978 6978 C 3370.714 6998.362, 3371.407 7005.255, 3375.145 7009.512 C 3376.707 7011.292, 3380.351 7013.792, 3383.243 7015.068 C 3388.441 7017.362, 3389.013 7017.393, 3434 7017.792 C 3489.373 7018.283, 3630.747 7016.405, 3648 7014.949 C 3665.679 7013.457, 3688.297 7009.586, 3697.921 7006.405 C 3711.522 7001.910, 3718.651 6993.649, 3724.159 6976 C 3726.145 6969.637, 3726.500 6966.377, 3726.500 6954.500 C 3726.500 6941.887, 3726.279 6940.104, 3724.273 6936.500 C 3720.849 6930.352, 3719.673 6929.193, 3714.396 6926.758 C 3709.565 6924.530, 3708.912 6924.498, 3665.500 6924.354 C 3635.517 6924.254, 3602.227 6924.933, 3561 6926.485 M 5849.829 6931.076 C 5842.415 6932.164, 5826.558 6938.084, 5816.500 6943.519 C 5804.588 6949.955, 5793.701 6958.510, 5781.976 6970.646 C 5762.516 6990.788, 5751.112 7010.319, 5743.531 7036.488 C 5739.465 7050.521, 5738.188 7061.336, 5737.036 7091.500 C 5735.918 7120.740, 5733.386 7176.377, 5732.506 7191 C 5732.225 7195.675, 5731.539 7208.050, 5730.982 7218.500 C 5729.302 7249.976, 5727.034 7278.548, 5725.531 7287.157 C 5722.905 7302.201, 5717.180 7307.737, 5701.409 7310.484 C 5697.059 7311.242, 5680.591 7312.573, 5664.812 7313.442 C 5649.034 7314.312, 5632.384 7315.675, 5627.812 7316.473 C 5608.774 7319.795, 5592.249 7332.235, 5577.873 7354.069 C 5568.885 7367.721, 5565.399 7382.021, 5566.310 7401.500 C 5567.320 7423.084, 5576.049 7437.276, 5595.500 7448.960 C 5611.765 7458.730, 5601.506 7457.675, 5688 7458.479 C 5760.924 7459.158, 5931.246 7458.149, 6106 7456.005 C 6326.788 7453.295, 6488.563 7451.502, 6603 7450.496 C 6902.979 7447.860, 6919.654 7447.535, 6937.066 7443.987 C 6953.608 7440.616, 6971.455 7433.281, 6982 7425.520 C 6988 7421.105, 6996.859 7411.920, 7000.700 7406.133 C 7002.724 7403.084, 7005.743 7396.743, 7007.409 7392.044 C 7010.272 7383.968, 7010.437 7382.679, 7010.417 7368.500 C 7010.400 7356.425, 7009.963 7351.745, 7008.177 7344.500 C 7003.462 7325.385, 6998.297 7312.855, 6989.717 7299.719 C 6976.282 7279.147, 6960.030 7269.608, 6938.500 7269.657 C 6922.678 7269.693, 6915.997 7272.078, 6875.350 7292.198 C 6852.086 7303.714, 6847.853 7305.490, 6843.655 7305.494 C 6837.151 7305.502, 6834.010 7301.923, 6834.009 7294.500 C 6834.008 7289.996, 6837.223 7266.526, 6842.981 7229 C 6858.458 7128.137, 6860.156 7099.821, 6852.818 7065 C 6845.648 7030.981, 6830.823 7002.662, 6808.564 6980.468 C 6787.546 6959.511, 6765.842 6947.748, 6736 6941.139 C 6693.288 6931.680, 6604.328 6927.504, 6540 6931.937 C 6503.119 6934.478, 6476.709 6935.071, 6360 6935.977 C 6225.975 6937.017, 6132.424 6938.465, 6097 6940.048 C 6063.573 6941.542, 6042.534 6943.757, 5997.500 6950.523 C 5946.623 6958.167, 5944.163 6957.959, 5920.500 6944.008 C 5908.059 6936.674, 5897.279 6932.321, 5888.363 6931.032 C 5880.280 6929.863, 5857.918 6929.889, 5849.829 6931.076 M 1624.437 6943.955 C 1607.931 6947.516, 1587.998 6961.751, 1577.618 6977.388 C 1569.434 6989.718, 1565.380 7000.469, 1558.978 7026.817 C 1550.991 7059.690, 1544.459 7077.725, 1526.537 7116.378 C 1506.116 7160.424, 1502.744 7172.722, 1499.908 7213.500 C 1495.939 7270.565, 1506.126 7307.729, 1532.959 7334.080 C 1540.114 7341.107, 1543.399 7343.492, 1551.098 7347.250 C 1564.540 7353.811, 1571.700 7355.373, 1588 7355.301 C 1599.071 7355.252, 1603.212 7354.791, 1611.011 7352.739 C 1627.737 7348.338, 1629.262 7347.489, 1686 7310.986 C 1748.584 7270.722, 1783.355 7247.691, 1794.446 7239.157 C 1804.797 7231.192, 1813.946 7221.920, 1821.876 7211.358 C 1839.759 7187.541, 1847.015 7165.798, 1846.987 7136.119 C 1846.956 7104.094, 1838.139 7083.819, 1813.633 7059.420 C 1780.889 7026.818, 1690.830 6953.691, 1676.212 6947.835 C 1667.228 6944.236, 1634.503 6941.784, 1624.437 6943.955 M 6017.500 7064.598 C 6007.534 7066.977, 5988.419 7076.975, 5981.067 7083.654 C 5967.646 7095.848, 5962.613 7108.084, 5959.536 7136 C 5954.597 7180.790, 5949.842 7248.004, 5949.666 7275.500 C 5949.525 7297.464, 5949.987 7300.243, 5955.222 7308.954 C 5960.884 7318.376, 5959.749 7318.136, 5999.724 7318.331 L 6034.487 7318.500 6037.676 7313.738 C 6042.930 7305.893, 6044.848 7299.297, 6045.949 7285.287 C 6047.230 7269.003, 6049.480 7228.611, 6051.982 7177 C 6053.062 7154.725, 6054.482 7125.678, 6055.138 7112.451 L 6056.330 7088.401 6053.712 7082.682 C 6049.981 7074.532, 6041.769 7066.603, 6034.966 7064.583 C 6028.609 7062.695, 6025.466 7062.698, 6017.500 7064.598 M 6302 7066.970 C 6287.501 7069.613, 6268.494 7074.630, 6262.500 7077.396 C 6256.758 7080.045, 6252.563 7083.948, 6250.040 7088.987 C 6244.449 7100.157, 6240.244 7132.567, 6231.553 7231.500 C 6228.647 7264.572, 6228.450 7286.748, 6230.986 7295.277 C 6233.035 7302.168, 6240.262 7308.455, 6248.385 7310.411 C 6254.660 7311.922, 6276.178 7312.746, 6288.341 7311.940 C 6318.182 7309.963, 6320.817 7306.650, 6327.477 7262.736 C 6330.069 7245.648, 6338.066 7183.070, 6342.523 7145 C 6345.537 7119.254, 6346.846 7086.726, 6345.122 7080.401 C 6343.599 7074.815, 6340.186 7070.013, 6336.004 7067.570 C 6331.056 7064.680, 6316.017 7064.415, 6302 7066.970 M 6557.876 7072.310 C 6547.324 7075.906, 6539.444 7082.219, 6537.666 7088.500 C 6535.391 7096.534, 6521.830 7210.013, 6516.524 7265.411 C 6513.082 7301.349, 6514.581 7306.519, 6529.371 7309.712 C 6538.370 7311.656, 6581.163 7312.640, 6587.767 7311.056 C 6592.975 7309.807, 6604.399 7302.585, 6608.626 7297.871 C 6612.374 7293.691, 6614.963 7276.954, 6619.434 7228 C 6624.959 7167.504, 6626.478 7124.717, 6623.579 7111.203 C 6620.372 7096.252, 6610.198 7082.645, 6597.645 7076.518 C 6583.455 7069.591, 6570.021 7068.170, 6557.876 7072.310" stroke="none" fill="#2bdafd" fill-rule="evenodd"/>
</svg>