<svg xmlns="http://www.w3.org/2000/svg" width="4845" height="4002" viewBox="0 0 4845 4002" version="1.1">
	<path d="M 3573.069 632.088 C 3550.942 636.429, 3530.010 650.686, 3395 753.374 C 3318.413 811.626, 2823.573 1191.951, 2801.500 1209.528 C 2790.346 1218.409, 2782.352 1223.793, 2774.250 1227.878 C 2761.606 1234.253, 2764.929 1234.085, 2657.222 1233.778 L 2559.500 1233.500 2551.500 1230.782 C 2547.100 1229.288, 2540.350 1226.110, 2536.500 1223.721 C 2532.650 1221.332, 2491.025 1189.506, 2444 1152.998 C 2265.570 1014.473, 2188.282 955.562, 2066 864.880 C 1945.246 775.331, 1892.739 737.212, 1803 673.948 C 1762.466 645.372, 1744.907 637.027, 1723.562 636.193 C 1711.689 635.729, 1705.127 636.760, 1695.664 640.576 C 1682.527 645.874, 1663.245 661.284, 1653.326 674.413 C 1646.885 682.938, 1640.525 696.467, 1638.119 706.762 C 1634.505 722.222, 1618.200 869.021, 1612.046 941.500 C 1610.926 954.700, 1607.300 1003.075, 1603.990 1049 C 1600.679 1094.925, 1595.289 1167.375, 1592.011 1210 C 1588.733 1252.625, 1585.358 1299.425, 1584.511 1314 C 1580.075 1390.312, 1579.841 1393.523, 1569.569 1519 C 1559.883 1637.309, 1553.041 1747.870, 1549.518 1843 C 1548.672 1865.825, 1547.560 1895.525, 1547.046 1909 C 1545.693 1944.480, 1544.803 1947.253, 1522.473 1985.500 C 1506.220 2013.339, 1485.587 2054.049, 1480.152 2069 C 1468.090 2102.184, 1458.645 2149.460, 1453.931 2200.244 C 1448.563 2258.064, 1466.752 2325.055, 1502.660 2379.716 C 1514.190 2397.268, 1524.902 2410.143, 1542.882 2428.057 C 1561.626 2446.732, 1574.921 2457.714, 1596 2471.932 C 1670.082 2521.900, 1749.844 2548.098, 1858 2557.986 C 1919.712 2563.629, 1949.289 2563.834, 1996.902 2558.953 C 2114.895 2546.857, 2220.700 2512.056, 2319.094 2452.980 C 2373.024 2420.600, 2422.373 2385.853, 2482.994 2337.576 C 2544.113 2288.903, 2568.578 2267.035, 2632.684 2203.777 C 2656.662 2180.116, 2673.967 2163.796, 2675.478 2163.416 C 2679.683 2162.361, 2675.472 2158.727, 2734.166 2214.062 C 2777.431 2254.851, 2800.537 2275.898, 2868.124 2336.084 C 2897.617 2362.348, 2922.704 2385.180, 2923.874 2386.823 C 2928.034 2392.666, 2926.413 2395.421, 2909.713 2410.882 C 2874.734 2443.269, 2847.121 2467.099, 2775 2527.134 C 2720.958 2572.120, 2696.089 2594.580, 2691.335 2602.692 C 2688.151 2608.124, 2688.914 2610.591, 2695.027 2614.637 C 2698.822 2617.148, 2700.215 2617.413, 2713.317 2618.114 C 2734.005 2619.220, 2841.889 2619.136, 2874.500 2617.989 C 2940.938 2615.650, 3010.439 2610.348, 3052.500 2604.410 C 3132.936 2593.052, 3204.663 2578.022, 3290 2554.643 C 3416.360 2520.025, 3486.618 2492.185, 3565 2445.674 C 3610.291 2418.799, 3643.699 2393.344, 3673.023 2363.368 C 3695.065 2340.835, 3701.852 2332.212, 3726.044 2296 C 3756.903 2249.807, 3774.821 2215.112, 3781.043 2189.500 C 3783.761 2178.308, 3783.634 2176.379, 3780.050 2174.526 C 3774.008 2171.402, 3773.515 2171.733, 3751.372 2193.808 C 3720.527 2224.559, 3697.924 2243.264, 3665.530 2264.847 C 3638.443 2282.894, 3617.310 2292.359, 3592.102 2297.737 C 3580.613 2300.187, 3577.557 2300.426, 3557.500 2300.437 C 3532.973 2300.451, 3531.080 2300.081, 3521.236 2293.341 C 3508.375 2284.536, 3497.030 2262.347, 3497.030 2246 C 3497.030 2234.484, 3504.070 2212.585, 3514.551 2191.500 C 3531.355 2157.697, 3555.321 2132.229, 3592.185 2109 C 3606.906 2099.724, 3640.711 2083.016, 3644.776 2083.007 L 3648.051 2083 3646.474 2086.050 C 3645.607 2087.727, 3641.036 2093.240, 3636.317 2098.300 C 3625.258 2110.158, 3620.278 2116.896, 3615.652 2126.258 C 3608.467 2140.799, 3608.714 2151.633, 3616.436 2160.654 C 3626.464 2172.370, 3641.278 2172.290, 3676.495 2160.332 C 3693.538 2154.544, 3722.361 2140.297, 3737.885 2129.986 C 3753.159 2119.841, 3775.292 2102.144, 3792.500 2086.316 C 3850.090 2033.347, 3898.943 1959.049, 3918.341 1894.934 C 3936.003 1836.556, 3936.313 1777.127, 3919.292 1713 C 3914.793 1696.054, 3912.972 1692.304, 3908.285 1690.346 C 3904.956 1688.955, 3904.495 1688.986, 3902.094 1690.761 C 3897.585 1694.096, 3896.760 1697.041, 3897.946 1705.570 C 3901.391 1730.334, 3896.816 1758.206, 3882.448 1800 C 3872.234 1829.708, 3866.437 1841.893, 3852.880 1862.141 C 3837.187 1885.581, 3811.428 1911.985, 3798 1918.397 C 3792.071 1921.228, 3790.622 1921.500, 3781.500 1921.500 C 3772.690 1921.500, 3770.969 1921.203, 3767.039 1919 C 3764.585 1917.625, 3761.499 1914.925, 3760.180 1913 C 3757.943 1909.733, 3757.820 1908.867, 3758.343 1900 C 3758.933 1889.984, 3762.420 1876.017, 3766.164 1868.678 C 3767.336 1866.380, 3772.451 1857.975, 3777.530 1850 C 3813.381 1793.707, 3830.024 1743.470, 3829.992 1691.644 C 3829.977 1667.838, 3827.088 1650.079, 3818.049 1618.224 C 3814.815 1606.826, 3808.727 1584.675, 3804.520 1569 C 3800.313 1553.325, 3794.026 1530.600, 3790.549 1518.500 C 3787.072 1506.400, 3783.494 1492.225, 3782.596 1487 C 3776.390 1450.853, 3782.035 1416.141, 3800.123 1379.231 C 3806.704 1365.803, 3814.798 1353.041, 3841.177 1314.500 C 3865.783 1278.550, 3889.734 1238.787, 3893.582 1227.500 C 3897.205 1216.870, 3898.009 1201.118, 3895.553 1188.896 C 3893.631 1179.336, 3892.039 1176.299, 3888.480 1175.406 C 3882.799 1173.980, 3878.028 1180.701, 3877.965 1190.218 C 3877.914 1197.977, 3875.596 1209.621, 3872.678 1216.776 C 3864.892 1235.870, 3849.923 1251.289, 3804.500 1287.004 C 3762.323 1320.166, 3741.170 1341.193, 3719.498 1371.500 C 3705.023 1391.743, 3688.928 1422.962, 3681.580 1445.051 C 3674.805 1465.417, 3672.946 1475.651, 3672.295 1496.176 C 3671.570 1519.036, 3673.180 1532.525, 3682 1577.500 C 3688.253 1609.385, 3689.278 1619.402, 3688.704 1643 C 3688.089 1668.302, 3685.554 1682.792, 3677.915 1704.680 C 3670.888 1724.812, 3655.714 1751.545, 3644.158 1764.153 C 3632.836 1776.505, 3614.721 1787.647, 3598.809 1792.046 C 3588.257 1794.963, 3571.755 1795.257, 3562 1792.701 C 3522.846 1782.443, 3498.541 1743.234, 3503.916 1699 C 3505.545 1685.593, 3511.699 1658.349, 3514.307 1653 C 3515.804 1649.928, 3517.418 1648.185, 3519.392 1647.507 C 3522.048 1646.595, 3522.539 1646.829, 3525.392 1650.363 C 3536.075 1663.593, 3539.084 1666.835, 3543.356 1669.716 C 3549.073 1673.572, 3553.911 1674.646, 3558.846 1673.155 C 3567.625 1670.503, 3584.223 1652.869, 3591.897 1638.042 C 3597.529 1627.161, 3600.031 1618.131, 3600.638 1606.500 C 3601.165 1596.388, 3600.685 1592.640, 3596.101 1571.122 C 3591.109 1547.687, 3590.278 1520.433, 3593.922 1499.651 C 3595.308 1491.746, 3596 1483.494, 3596 1474.861 C 3596 1444.033, 3600.792 1422.467, 3617.746 1377 C 3634.315 1332.566, 3642.732 1303.463, 3654.002 1251.635 C 3657.247 1236.711, 3662.794 1212.350, 3666.327 1197.500 C 3674.365 1163.722, 3677.720 1145.252, 3678.953 1128 C 3679.483 1120.575, 3679.997 1083, 3680.093 1044.500 C 3680.243 985.050, 3679.866 963.498, 3677.591 901.500 C 3676.117 861.350, 3674.514 808.250, 3674.029 783.500 C 3673.066 734.403, 3671.895 720.748, 3666.976 701.249 C 3661.996 681.512, 3654.831 667.294, 3644 655.655 C 3632.947 643.778, 3618.886 635.916, 3602.729 632.579 C 3594.574 630.895, 3580.354 630.659, 3573.069 632.088 M 1806.725 914.752 C 1804.365 917.359, 1803.191 921.087, 1802.504 928.157 C 1802.165 931.646, 1801.240 939, 1800.449 944.500 C 1798.439 958.477, 1790.498 1101.483, 1787.538 1177 C 1783.832 1271.561, 1782.008 1354.055, 1781.004 1472.500 C 1780.460 1536.782, 1779.352 1599.796, 1778.102 1637.500 C 1775.517 1715.507, 1775.341 1727.944, 1776.782 1730.613 C 1778.247 1733.324, 1783.258 1735.403, 1786.418 1734.610 C 1787.769 1734.271, 1798.915 1727.850, 1811.187 1720.342 C 1855.512 1693.224, 1886.116 1677.089, 1937.202 1653.905 C 2040.055 1607.227, 2127.974 1579.693, 2227.500 1562.989 C 2278.923 1554.359, 2304.552 1551.779, 2339 1551.763 C 2383.270 1551.743, 2392.049 1555.292, 2418.088 1583.732 C 2440.196 1607.879, 2458.474 1627.092, 2552.438 1724.955 C 2600.253 1774.755, 2644.578 1821.343, 2650.938 1828.485 C 2676.183 1856.837, 2676.716 1857.219, 2685.120 1852.946 C 2687.529 1851.722, 2703.225 1840.578, 2720 1828.183 C 2813.048 1759.432, 2833.742 1744.637, 2861.235 1727.214 C 2954.564 1668.067, 3049.005 1629.355, 3150.500 1608.643 C 3201.318 1598.272, 3243.713 1594.333, 3294 1595.310 C 3326.345 1595.938, 3346.487 1597.737, 3386.271 1603.549 C 3423.474 1608.985, 3428.143 1608.575, 3433.987 1599.359 C 3437.112 1594.432, 3481.209 1484.537, 3485.292 1471.500 C 3489.254 1458.854, 3492.874 1441.377, 3494.538 1426.869 C 3495.884 1415.138, 3496.037 1383.230, 3495.786 1166.404 C 3495.473 896.258, 3495.959 915.996, 3489.628 916.004 C 3487.010 916.007, 3480.706 920.761, 3451 945.136 C 3363.901 1016.603, 3321.576 1051.591, 3251 1110.467 C 3108.441 1229.391, 3074.532 1256.901, 2960.500 1346.138 C 2923.650 1374.975, 2890.561 1400.880, 2886.968 1403.705 C 2869.343 1417.561, 2847.516 1426.875, 2825.464 1429.951 C 2821.130 1430.555, 2758.718 1430.964, 2662.964 1431.014 C 2493.741 1431.103, 2501.837 1431.350, 2481.487 1425.480 C 2470.879 1422.421, 2455.080 1415.087, 2444.827 1408.463 C 2440.797 1405.860, 2431.016 1398.789, 2423.092 1392.749 C 2408.112 1381.332, 2189.894 1208.635, 2059.500 1105.004 C 1898.326 976.910, 1827.033 920.576, 1820.650 916.271 C 1815.072 912.510, 1809.321 911.883, 1806.725 914.752 M 2264.283 1740.988 C 2254.001 1745.164, 2203.856 1770.025, 2182 1781.781 C 2113.670 1818.534, 2063.323 1850.794, 1997.500 1899.999 C 1957.210 1930.116, 1932.163 1950.701, 1905.386 1975.701 C 1852.829 2024.767, 1810.435 2082.307, 1796.971 2122.845 C 1787.887 2150.199, 1794.381 2166.002, 1824.566 2189.988 C 1875.010 2230.075, 1939.964 2253.595, 2024.500 2262.388 C 2037.001 2263.688, 2037.996 2263.649, 2050.420 2261.367 C 2067.957 2258.146, 2077.332 2255.820, 2091.500 2251.175 C 2143.552 2234.109, 2200.001 2208.086, 2253 2176.723 C 2284.762 2157.928, 2308.890 2142.247, 2358.500 2108.155 C 2419.538 2066.210, 2444.384 2048.066, 2470.680 2026.237 C 2483.840 2015.313, 2514 1986.385, 2514 1984.688 C 2514 1984.166, 2510.992 1980.310, 2507.316 1976.119 C 2503.640 1971.929, 2490.090 1956.203, 2477.206 1941.174 C 2446.035 1904.813, 2437.672 1895.836, 2389.044 1846.532 C 2305.977 1762.311, 2284.524 1741.117, 2280.739 1739.535 C 2275.560 1737.371, 2272.525 1737.639, 2264.283 1740.988 M 3027.963 1835.492 C 3019.463 1837.187, 3010.215 1841.123, 3001.500 1846.756 C 2983.400 1858.454, 2944.164 1890.033, 2912.128 1918.685 C 2892.085 1936.612, 2834.912 1993.254, 2830.151 1999.900 C 2823.728 2008.868, 2824.196 2009.642, 2855.583 2042 C 2982.961 2173.320, 3011.194 2202.303, 3034.952 2226.139 C 3055.780 2247.035, 3063.232 2253.911, 3065.500 2254.325 C 3071.461 2255.413, 3076.065 2251.901, 3089.298 2236.172 C 3132.660 2184.630, 3174.314 2128.021, 3211.203 2070.500 C 3237.652 2029.259, 3245.980 2014.693, 3253.618 1996.321 C 3261.571 1977.189, 3261.963 1970.214, 3255.868 1956.315 C 3242.650 1926.178, 3230.321 1906.241, 3216.047 1891.924 C 3204.372 1880.213, 3198.781 1876.518, 3174.500 1864.467 C 3143.875 1849.268, 3129.135 1845.377, 3074.389 1838.037 C 3042.077 1833.705, 3038.034 1833.483, 3027.963 1835.492 M 3495.500 2755.477 C 3473.777 2759.502, 3456.745 2771.267, 3404.706 2818.193 C 3355.121 2862.906, 3345.055 2871.410, 3315.868 2893.240 C 3274.915 2923.871, 3231.544 2951.419, 3167.500 2987.479 C 3143.629 3000.920, 3136.236 3005.851, 3130.305 3012.284 C 3122.384 3020.878, 3122.314 3029.875, 3130.075 3041.754 C 3137.954 3053.811, 3144.848 3057.380, 3159.843 3057.164 C 3185.957 3056.788, 3208.599 3050.926, 3257 3032.010 C 3314.511 3009.534, 3344.332 2996.957, 3349.713 2992.911 C 3356.044 2988.151, 3359.383 2986.549, 3361.380 2987.316 C 3362.209 2987.634, 3364.946 2991.019, 3367.462 2994.838 C 3374.431 3005.416, 3384.341 3011.383, 3396.990 3012.619 C 3400.021 3012.915, 3415.550 3012.168, 3431.500 3010.959 C 3456.370 3009.074, 3472.322 3008.656, 3543.500 3008.023 C 3616.821 3007.371, 3627.200 3007.089, 3632.500 3005.600 C 3644.132 3002.333, 3649.165 2995.636, 3650.958 2981.037 C 3651.530 2976.382, 3652.620 2971.951, 3653.382 2971.189 C 3655.158 2969.414, 3656.265 2969.980, 3670.500 2979.955 C 3682.287 2988.214, 3728.410 3016.066, 3756.894 3032.125 C 3780.442 3045.401, 3791.890 3049.008, 3810.434 3048.992 C 3842.049 3048.966, 3867.350 3034.772, 3879.032 3010.510 C 3891.530 2984.552, 3883.504 2952.294, 3859.908 2933.647 C 3849.766 2925.632, 3841.785 2922.846, 3781 2906.104 C 3745.699 2896.381, 3716.289 2886.350, 3682.282 2872.437 C 3659.110 2862.956, 3591.071 2834.077, 3586.935 2831.967 C 3580.943 2828.910, 3580.003 2826.116, 3579.983 2811.300 C 3579.954 2790.212, 3576.535 2779.516, 3566.961 2770.560 C 3558.311 2762.469, 3546.502 2757.946, 3527.699 2755.522 C 3513.735 2753.721, 3505.044 2753.709, 3495.500 2755.477 M 1999.500 2760.617 C 1976.312 2763.984, 1960.554 2769.882, 1948.597 2779.668 C 1941.869 2785.175, 1939 2789.819, 1939 2795.200 C 1939 2800.163, 1943.392 2805.209, 1949.202 2806.921 C 1956.393 2809.039, 1970.068 2815.815, 1974.529 2819.470 C 1981.913 2825.521, 1988.072 2837.593, 1986.655 2843.238 C 1985.342 2848.470, 1986.040 2848.418, 1908.500 2849.008 C 1826.672 2849.630, 1831.466 2849.122, 1821.460 2858.230 C 1814.191 2864.846, 1811.621 2871.017, 1811.558 2882 C 1811.519 2888.945, 1811.919 2891.267, 1813.746 2894.694 C 1818.461 2903.533, 1827.742 2909.753, 1839.434 2911.907 C 1842.697 2912.508, 1855.830 2913, 1868.619 2913 C 1881.986 2913, 1893.009 2913.433, 1894.550 2914.019 L 1897.229 2915.038 1889.662 2922.958 C 1876.289 2936.956, 1871.706 2950.881, 1875.103 2967.201 C 1876.191 2972.429, 1877.680 2975.794, 1885.845 2991.481 C 1888.130 2995.871, 1890 2999.744, 1890 3000.089 C 1890 3000.434, 1886.287 3001.668, 1881.750 3002.831 C 1874.475 3004.697, 1870.014 3004.990, 1844 3005.311 C 1816.802 3005.647, 1813.819 3005.859, 1805.771 3008.033 C 1797.594 3010.241, 1796.835 3010.291, 1793.771 3008.813 C 1791.636 3007.783, 1789.318 3005.197, 1787.098 3001.368 C 1776.361 2982.851, 1772.888 2979.785, 1761.943 2979.167 C 1756.745 2978.873, 1752.958 2979.410, 1745.698 2981.469 C 1728.210 2986.431, 1727.186 2985.249, 1729.494 2962.784 C 1730.358 2954.378, 1732.447 2935.125, 1734.137 2920 C 1739.009 2876.403, 1737.627 2862.084, 1726.321 2839.005 C 1716.118 2818.177, 1698.242 2807.987, 1677.154 2810.978 C 1649.704 2814.871, 1624.555 2835.799, 1620.048 2858.500 C 1618.755 2865.010, 1614.061 2935.449, 1613.418 2958 C 1612.702 2983.068, 1612.353 2985.574, 1609.060 2989.259 L 1606.283 2992.367 1593.892 2991.300 C 1586.616 2990.674, 1578.799 2990.572, 1574.958 2991.053 C 1557.403 2993.252, 1541.128 3004.409, 1537.868 3016.478 C 1537.270 3018.690, 1536.977 3024.100, 1537.216 3028.500 C 1537.744 3038.229, 1541.225 3046.109, 1547.583 3051.969 C 1552.813 3056.790, 1557.176 3059.037, 1567.821 3062.391 C 1577.324 3065.385, 1579.289 3065.566, 1591 3064.528 C 1599.250 3063.796, 1599.569 3063.848, 1601.834 3066.290 C 1605.491 3070.235, 1606.114 3075.135, 1604.467 3087 C 1602.753 3099.348, 1596.001 3204.215, 1592.988 3265.287 C 1591.852 3288.316, 1590.859 3294.638, 1587.758 3298.581 C 1584.214 3303.086, 1579.761 3304.306, 1565.684 3304.626 C 1558.298 3304.795, 1550.247 3305.585, 1546.684 3306.493 C 1508.392 3316.243, 1480.757 3360.631, 1492.307 3393.835 C 1498.822 3412.563, 1514.333 3429.123, 1534.089 3438.441 C 1550.592 3446.225, 1561.850 3446.904, 1584.053 3441.453 C 1601.784 3437.100, 1614.304 3432.157, 1632.334 3422.389 C 1684.202 3394.290, 1728.230 3358.536, 1764.188 3315.314 C 1773.360 3304.290, 1777.743 3296.694, 1783.029 3282.666 C 1789.153 3266.416, 1788.026 3258.594, 1778.332 3250.061 C 1772.741 3245.139, 1768.228 3243.593, 1761.484 3244.290 C 1754.825 3244.977, 1750.956 3246.993, 1738 3256.530 C 1727.578 3264.202, 1721.009 3267.936, 1717.861 3267.978 C 1716.959 3267.990, 1715.250 3267.213, 1714.061 3266.250 C 1709.695 3262.713, 1709.759 3259.266, 1715.022 3214.500 C 1720.928 3164.266, 1722.312 3149.819, 1724.975 3110.638 C 1727.267 3076.931, 1727.948 3074.048, 1734.681 3069.592 C 1736.804 3068.188, 1743.791 3065.284, 1750.209 3063.139 C 1756.627 3060.994, 1764.043 3057.991, 1766.689 3056.466 C 1781.909 3047.691, 1784.263 3047.729, 1794.407 3056.916 C 1806.263 3067.652, 1813.986 3069.281, 1839.754 3066.478 C 1856.370 3064.670, 1867.559 3064.525, 2015.500 3064.202 C 2130.775 3063.951, 2177.286 3064.176, 2187.500 3065.035 C 2221.593 3067.902, 2266.072 3065.008, 2279.622 3059.041 C 2294.200 3052.621, 2301.434 3035.710, 2295.998 3020.757 C 2289.453 3002.749, 2274.039 2989.876, 2255.565 2986.987 C 2245.762 2985.454, 2239.952 2986.428, 2219.500 2993.030 C 2200.555 2999.146, 2194.691 3000.450, 2181.250 3001.540 C 2174.226 3002.109, 2173 3001.981, 2173 3000.681 C 2173 2998.357, 2177.537 2993.462, 2182.268 2990.683 C 2188.235 2987.176, 2199.767 2973.718, 2203.335 2966.095 C 2205.788 2960.855, 2206.331 2958.401, 2206.323 2952.595 C 2206.305 2939.772, 2199.316 2930.080, 2181.191 2917.743 C 2174.624 2913.273, 2171.225 2910.375, 2171.834 2909.766 C 2172.444 2909.156, 2179.458 2909.459, 2191.146 2910.601 C 2201.241 2911.586, 2217.381 2912.417, 2227.013 2912.446 L 2244.526 2912.500 2251.184 2909.226 C 2266.064 2901.910, 2276.116 2884.807, 2274.433 2869.669 C 2273.468 2860.984, 2268.261 2851.383, 2260.741 2844.420 C 2253.014 2837.267, 2246.574 2834.267, 2236.136 2832.958 C 2225.083 2831.572, 2215.151 2832.957, 2200.215 2837.968 C 2193.549 2840.205, 2183.742 2842.688, 2178.422 2843.487 C 2166.120 2845.333, 2117.033 2848.476, 2113.671 2847.632 C 2110.362 2846.802, 2109.677 2844.341, 2111.092 2838.367 C 2111.726 2835.690, 2112.259 2829.450, 2112.276 2824.500 C 2112.327 2809.574, 2106.784 2797.234, 2094.180 2784.216 C 2086.821 2776.615, 2079.414 2771.705, 2069.564 2767.899 C 2054.702 2762.155, 2046.638 2760.861, 2023.500 2760.505 C 2011.950 2760.327, 2001.150 2760.377, 1999.500 2760.617 M 903.760 2777.027 C 887.141 2779.014, 874.719 2786.892, 864.306 2802.049 C 856.660 2813.178, 844.011 2838.736, 823.502 2884.500 C 808.507 2917.958, 798.764 2938.021, 789.023 2955.500 C 761.228 3005.373, 745.136 3028.502, 720.478 3054.022 C 707.508 3067.446, 702.243 3075.137, 696.981 3088.348 C 688.603 3109.381, 689.005 3128.627, 698.227 3148 C 701.535 3154.950, 703.844 3158.067, 710.886 3165.091 C 720.879 3175.056, 730.957 3180.742, 743.626 3183.560 C 759.092 3187.001, 790.818 3183.924, 816.881 3176.456 C 831.347 3172.310, 851.708 3161.842, 869.823 3149.237 L 879.146 3142.749 870.898 3154.402 C 866.362 3160.812, 858.090 3171.787, 852.516 3178.791 C 846.942 3185.796, 833.438 3202.996, 822.508 3217.014 C 796.558 3250.290, 776.377 3275.315, 762.125 3291.885 C 750.101 3305.864, 724.251 3333.549, 714.397 3343 C 707.172 3349.929, 693.277 3368.501, 689.067 3376.856 C 677.252 3400.302, 680.421 3426.394, 697.464 3446 C 714.599 3465.712, 731.792 3476.840, 786.320 3503.513 C 824.571 3522.224, 845.653 3530.871, 869.552 3537.652 C 878.692 3540.245, 880.882 3540.476, 896.500 3540.485 C 912.540 3540.494, 914.234 3540.306, 926.500 3537.148 C 949.011 3531.354, 971.148 3522.234, 986.726 3512.338 C 993.299 3508.162, 1089.579 3434.949, 1101 3425.441 C 1123.142 3407.009, 1139.741 3385.430, 1148.514 3363.674 C 1154.188 3349.602, 1156.290 3336.968, 1155.695 3320.500 C 1154.608 3290.413, 1143.676 3263.999, 1124 3243.913 C 1109.468 3229.079, 1094.087 3219.973, 1069.913 3211.890 C 1053.969 3206.559, 1046.327 3205.038, 1035.381 3205.017 C 1007.414 3204.964, 978.672 3216.892, 957.127 3237.494 C 942.302 3251.669, 935.692 3263.117, 931.513 3281.851 C 924.446 3313.539, 923.066 3317.105, 914.649 3325.419 C 908.776 3331.220, 893.756 3339.749, 859.243 3356.881 C 835.448 3368.693, 832.868 3369.343, 832.188 3363.689 C 831.864 3360.995, 835.548 3354.985, 848.852 3336.500 C 858.068 3323.696, 901.995 3270.590, 968.163 3192.257 C 978.903 3179.542, 983.018 3173.042, 984.610 3166.274 C 986.821 3156.877, 986.391 3151.274, 982.982 3145.090 C 981.342 3142.115, 980 3139.489, 980 3139.255 C 980 3138.381, 995.819 3140.266, 1004.500 3142.175 C 1029.428 3147.655, 1055.935 3144.567, 1075.962 3133.848 C 1098.656 3121.702, 1116.789 3097.110, 1124.747 3067.686 C 1127.326 3058.152, 1127.056 3038.700, 1124.206 3028.709 C 1119.637 3012.692, 1110.163 2997.300, 1096 2982.883 C 1072.668 2959.133, 1044.398 2948.465, 1011.940 2951.161 C 971.003 2954.561, 931.619 2985.906, 921.838 3022.870 C 917.809 3038.095, 919.109 3053.106, 927.381 3086.906 C 929.767 3096.655, 929.641 3101.701, 926.979 3103.068 C 926.165 3103.486, 922.800 3105.076, 919.500 3106.602 C 914.767 3108.791, 910.573 3112.303, 899.633 3123.238 C 892.007 3130.862, 885.593 3136.926, 885.381 3136.714 C 885.168 3136.502, 887.295 3132.542, 890.107 3127.914 C 896.420 3117.522, 902 3106.168, 902 3103.712 C 902 3101.388, 900.154 3097.875, 898.087 3096.263 C 897.214 3095.583, 892.901 3093.867, 888.503 3092.451 C 881.353 3090.149, 877.963 3089.772, 856.503 3088.896 C 835.331 3088.031, 820.444 3086.777, 819.440 3085.774 C 819.259 3085.592, 819.475 3083.826, 819.921 3081.849 C 820.489 3079.330, 824.106 3074.402, 832.012 3065.377 C 863.349 3029.602, 913.643 2961.764, 939.794 2920 C 958.072 2890.810, 976.348 2858.877, 978.713 2852 C 984.785 2834.344, 978.553 2811.568, 963.514 2796.450 C 953.251 2786.134, 938.538 2779.190, 923.464 2777.548 C 911.700 2776.266, 910.410 2776.232, 903.760 2777.027 M 2941.500 2782.580 C 2932.507 2784.762, 2929.760 2785.685, 2924.500 2788.293 C 2916.951 2792.035, 2906.613 2802.411, 2902.274 2810.600 C 2896.495 2821.509, 2892.156 2836.433, 2890.496 2851.112 C 2887.620 2876.548, 2885.117 2882.546, 2875.746 2886.462 C 2872.927 2887.640, 2868.132 2887.999, 2855.282 2887.994 C 2836.753 2887.988, 2832.519 2887.252, 2828.926 2883.409 L 2826.500 2880.815 2826.827 2856.483 C 2827.193 2829.269, 2826.519 2824.507, 2820.779 2813.736 C 2809.043 2791.719, 2778.142 2778.770, 2754.649 2786.027 C 2739.637 2790.663, 2722.612 2806.069, 2714.620 2822.250 C 2709.011 2833.605, 2707.351 2840.591, 2705.996 2858.551 C 2704.374 2880.030, 2701.966 2887.922, 2696.383 2890.045 C 2693.062 2891.307, 2683.474 2891.252, 2669.116 2889.889 C 2644.515 2887.554, 2629.646 2893.817, 2621.760 2909.837 C 2618.702 2916.048, 2618.500 2917.113, 2618.500 2927.057 C 2618.500 2937.107, 2618.657 2937.912, 2621.529 2942.578 C 2623.243 2945.362, 2626.652 2948.907, 2629.378 2950.741 C 2637.625 2956.286, 2642.151 2957.146, 2667.500 2957.985 C 2680.150 2958.405, 2691.625 2959.203, 2693 2959.759 C 2699.568 2962.417, 2700.914 2968.289, 2700.967 2994.540 C 2701.016 3018.218, 2704.124 3027.794, 2715.770 3040.139 C 2723.669 3048.512, 2734.584 3054.371, 2745.364 3056.023 C 2762.717 3058.682, 2784.231 3050.673, 2798.759 3036.146 C 2812.740 3022.165, 2819.130 3006.091, 2820.481 2981.500 C 2821.140 2969.509, 2822.665 2964.969, 2827.126 2961.712 C 2830.707 2959.098, 2844.195 2957.691, 2860.500 2958.230 C 2882.273 2958.951, 2882.776 2959.670, 2883.451 2991 C 2883.753 3005.042, 2884.370 3013.218, 2885.409 3016.955 C 2893.729 3046.860, 2921.795 3062.758, 2952.590 3055.010 C 2972.340 3050.041, 2988.270 3038.416, 2995.431 3023.748 C 3000.507 3013.351, 3001.945 3006.617, 3003.026 2988.163 C 3003.749 2975.829, 3004.453 2970.765, 3005.898 2967.498 C 3009.206 2960.019, 3012.209 2959.208, 3041 2958.021 C 3065.733 2957.001, 3074.121 2955.492, 3084.680 2950.161 C 3090.751 2947.097, 3097.636 2940.538, 3100.407 2935.179 C 3101.274 2933.502, 3102.513 2929.045, 3103.160 2925.275 C 3105.239 2913.148, 3100.908 2896.234, 3092.468 2883.517 C 3078.820 2862.956, 3060.307 2855.675, 3040.510 2863.082 C 3037.467 2864.220, 3029.335 2869.207, 3022.437 2874.163 C 3015.283 2879.303, 3009.286 2882.940, 3008.477 2882.630 C 3006.054 2881.700, 3005.620 2876.946, 3007.285 2869.566 C 3013.906 2840.211, 3013.677 2825.279, 3006.373 2810.202 C 3003.020 2803.281, 2994.195 2793.831, 2987.518 2790.010 C 2979.710 2785.543, 2968.442 2782.934, 2955 2782.481 C 2948.675 2782.269, 2942.600 2782.313, 2941.500 2782.580 M 4408 2827.623 C 4402.225 2827.808, 4376.575 2828.657, 4351 2829.508 C 4269.716 2832.215, 4221.892 2832.955, 4126.907 2832.978 C 4038.104 2832.999, 4034.084 2833.079, 4028.710 2834.928 C 4025.628 2835.988, 4021.395 2838.011, 4019.303 2839.423 C 4012.747 2843.850, 4004.289 2852.984, 4000.838 2859.365 C 3996.486 2867.412, 3996.153 2876.721, 3999.938 2884.500 C 4003.609 2892.042, 4014.208 2902.164, 4021.500 2905.091 L 4027.500 2907.500 4194.044 2908 C 4351.314 2908.472, 4360.739 2908.599, 4363.294 2910.273 C 4366.228 2912.196, 4366.532 2913.471, 4365.008 2917.479 C 4363.613 2921.149, 4293.390 2992.736, 4283.037 3001.044 C 4271.715 3010.128, 4259.472 3016.488, 4247.425 3019.544 C 4234.765 3022.755, 4224.572 3028.488, 4215.440 3037.531 C 4200.411 3052.415, 4195.890 3071.880, 4201.033 3099.557 C 4203.411 3112.349, 4203.842 3122.577, 4202.138 3125.750 C 4198.809 3131.949, 4193.654 3132.600, 4137 3133.969 C 4113.075 3134.547, 4075.050 3135.465, 4052.500 3136.009 C 4029.950 3136.553, 3992.375 3137.193, 3969 3137.431 C 3922.090 3137.908, 3919.270 3138.231, 3909.138 3144.292 C 3895.522 3152.438, 3886.688 3169.999, 3888.308 3185.700 C 3890.076 3202.825, 3908.598 3221.656, 3925.615 3223.629 C 3928.328 3223.943, 3937.739 3223.264, 3946.776 3222.102 C 3962.163 3220.123, 3969.416 3219.972, 4079.451 3219.340 C 4189.738 3218.706, 4196.094 3218.764, 4200.528 3220.458 C 4204.331 3221.910, 4205.558 3223.018, 4207.082 3226.372 C 4209.412 3231.504, 4209.564 3242.368, 4207.503 3256.500 C 4206.701 3262, 4205.567 3274.150, 4204.983 3283.500 C 4203.615 3305.389, 4201.770 3319.422, 4197.472 3340.611 C 4190.979 3372.628, 4172.282 3436.124, 4164.608 3452.219 C 4159.721 3462.470, 4157.173 3465.507, 4154.242 3464.577 C 4153.196 3464.245, 4146.976 3458.984, 4140.420 3452.886 C 4122.216 3435.953, 4114.774 3431.558, 4096.716 3427.071 C 4080.833 3423.125, 4067.889 3422.070, 4060.503 3424.121 C 4052.018 3426.476, 4044.907 3437.360, 4046.457 3445.620 C 4047.395 3450.621, 4051.547 3454.014, 4067.722 3462.997 C 4095.654 3478.509, 4107.299 3487.802, 4112.774 3498.949 C 4115.011 3503.504, 4115.498 3505.845, 4115.490 3512 C 4115.482 3518.372, 4115.049 3520.281, 4112.611 3524.695 C 4107.074 3534.721, 4092.802 3546.298, 4068.491 3560.486 C 4031.158 3582.273, 3956.338 3603.921, 3892.500 3611.407 C 3848.618 3616.553, 3769.936 3617.285, 3729 3612.928 C 3723.775 3612.372, 3709.375 3610.602, 3697 3608.995 C 3684.625 3607.388, 3658.975 3604.228, 3640 3601.972 C 3600.684 3597.299, 3574.107 3593.034, 3500.500 3579.587 C 3407.193 3562.541, 3368.170 3556.679, 3315.500 3551.798 C 3296.634 3550.049, 3226.078 3550.056, 3208 3551.809 C 3122.061 3560.140, 3066.135 3578.494, 3009 3617.119 C 2983.071 3634.647, 2972.768 3645.034, 2963.985 3662.500 C 2957.553 3675.290, 2955 3685.375, 2955 3698 C 2955 3720.057, 2964.526 3740.378, 2980.600 3752.610 C 2988.309 3758.476, 3008.382 3768.332, 3018.500 3771.218 C 3025.416 3773.191, 3028.804 3773.500, 3043.500 3773.500 C 3058.289 3773.500, 3061.537 3773.200, 3068.476 3771.191 C 3081.133 3767.527, 3096.043 3761.366, 3114.063 3752.353 C 3132.480 3743.142, 3135.722 3740.456, 3140.971 3730.058 C 3144.911 3722.251, 3144.846 3719.646, 3140.600 3715.400 C 3135.875 3710.675, 3131.830 3710.818, 3120.947 3716.098 C 3096.919 3727.754, 3079.073 3732.151, 3064.326 3730.051 C 3050.888 3728.137, 3039.105 3722.138, 3034.189 3714.709 C 3030.804 3709.594, 3030.037 3699.825, 3032.385 3691.747 C 3035.608 3680.660, 3042.537 3673.361, 3062.198 3660.341 C 3083.546 3646.204, 3111.951 3636.361, 3147.500 3630.783 C 3159.822 3628.850, 3165.516 3628.583, 3195 3628.555 C 3236.983 3628.515, 3263.470 3631.031, 3311.500 3639.619 C 3344.179 3645.463, 3481.169 3674.117, 3583.500 3696.513 C 3663.599 3714.043, 3676.295 3715.700, 3776 3721.631 C 3828.347 3724.745, 3871.257 3723.465, 3915.800 3717.461 C 3997.966 3706.385, 4063.949 3687.285, 4122.885 3657.514 C 4183.333 3626.981, 4221.854 3595.619, 4258.043 3547.476 C 4284.231 3512.637, 4302.479 3473.178, 4317.484 3418.945 C 4331.126 3369.638, 4333.883 3347.272, 4334.857 3278 C 4335.485 3233.349, 4335.644 3230.262, 4337.513 3226.528 C 4338.621 3224.313, 4341.048 3221.659, 4343 3220.528 C 4346.424 3218.544, 4348.484 3218.486, 4437.500 3217.880 C 4527.610 3217.267, 4536.494 3216.945, 4560 3213.436 C 4585.909 3209.569, 4597.277 3205.451, 4606.137 3196.722 C 4616.570 3186.445, 4621.582 3172.628, 4620.727 3156.500 C 4619.459 3132.574, 4604.507 3112.743, 4581.413 3104.361 C 4562.284 3097.417, 4545.057 3101.808, 4527.517 3118.097 C 4517.633 3127.277, 4511.753 3130.407, 4501.376 3132.013 C 4496.514 3132.765, 4470.157 3133.017, 4418.376 3132.807 C 4331.741 3132.456, 4336.631 3132.941, 4332.817 3124.320 C 4329.371 3116.528, 4323.868 3093.162, 4323.676 3085.500 C 4323.467 3077.174, 4325.461 3073.160, 4332.208 3068.322 C 4334.569 3066.629, 4350.900 3057.257, 4368.500 3047.495 C 4441.703 3006.892, 4477.546 2982.092, 4506.243 2952.193 C 4531.267 2926.121, 4539.736 2896.996, 4528.898 2874.287 C 4523.010 2861.950, 4506.069 2844.570, 4494.084 2838.571 C 4486.339 2834.694, 4480.154 2833.110, 4462.782 2830.552 C 4445.701 2828.038, 4426.711 2827.022, 4408 2827.623 M 1257 2832.959 C 1257 2833.560, 1228.355 2834.036, 1180.250 2834.234 C 1104.467 2834.545, 1103.399 2834.577, 1095.500 2836.774 C 1083.189 2840.197, 1073.959 2845.187, 1066.693 2852.347 C 1057.808 2861.101, 1054.492 2868.122, 1054.526 2878.104 C 1054.549 2884.847, 1054.977 2886.568, 1058.298 2893.289 C 1062.712 2902.220, 1068.548 2907.859, 1076.853 2911.217 L 1082.500 2913.500 1195.500 2914.025 C 1322.528 2914.615, 1315.153 2914.153, 1323 2922 C 1330.130 2929.130, 1330.342 2930.710, 1330.776 2980 C 1331.186 3026.417, 1330.469 3045.150, 1326.432 3093.500 C 1317.167 3204.472, 1296.960 3337.084, 1282.471 3382 C 1275.429 3403.829, 1255.486 3451.208, 1250.453 3458.063 C 1248.599 3460.590, 1243.557 3466.024, 1239.249 3470.140 C 1230.224 3478.763, 1225.537 3480.726, 1216.753 3479.563 C 1210.121 3478.686, 1203.495 3475.793, 1202.086 3473.160 C 1200.617 3470.416, 1200.775 3464.727, 1202.520 3457.500 C 1205.983 3443.158, 1203.763 3434.589, 1194.083 3424.936 C 1178.545 3409.442, 1161.920 3408.379, 1143.212 3421.684 C 1124.799 3434.778, 1117.092 3457.240, 1123.002 3480.590 C 1128.425 3502.015, 1138.657 3512.964, 1166 3526.601 C 1188.306 3537.727, 1207.914 3542.795, 1232.134 3543.695 C 1264.014 3544.880, 1275.476 3542.038, 1321.635 3521.500 C 1334.491 3515.781, 1350.913 3502.011, 1361.513 3488.063 C 1374.476 3471.006, 1392.597 3438.209, 1402.877 3413.200 C 1419.722 3372.220, 1428.085 3333.865, 1442.929 3229.500 C 1450.778 3174.315, 1451.644 3167.223, 1453.494 3143 C 1454.355 3131.725, 1455.931 3113.950, 1456.997 3103.500 C 1463.317 3041.554, 1465.044 3013.051, 1465.693 2960 C 1466.302 2910.241, 1465.709 2901.572, 1460.457 2883.447 C 1451.769 2853.467, 1431.964 2836.657, 1401.026 2833.001 C 1389.894 2831.686, 1257 2831.647, 1257 2832.959 M 2405.045 2875.092 C 2389.981 2878.045, 2375.190 2893.694, 2370.633 2911.500 C 2368.775 2918.759, 2368.356 2922.909, 2361.989 2997 C 2359.225 3029.175, 2355.862 3066.525, 2354.517 3080 C 2351.968 3105.527, 2349.985 3132.504, 2345.035 3209 C 2339.043 3301.585, 2338.812 3315.434, 2342.977 3332.726 C 2350.393 3363.517, 2373.240 3385.038, 2398.460 3384.988 C 2413.832 3384.958, 2427.079 3377.588, 2438.226 3362.865 C 2448.786 3348.917, 2453.410 3346.014, 2461.287 3348.387 C 2466.602 3349.988, 2472.399 3353.637, 2479.146 3359.630 C 2492.957 3371.895, 2504.367 3376.485, 2519.415 3375.827 C 2532.013 3375.276, 2539.465 3371.697, 2550.111 3361.086 C 2566.657 3344.595, 2579.272 3320.219, 2585.368 3292.960 C 2589.257 3275.573, 2590.661 3261.435, 2594.502 3201 C 2597.387 3155.605, 2605.258 3040.642, 2608.846 2991.500 C 2609.288 2985.450, 2609.323 2971.050, 2608.925 2959.500 C 2608.095 2935.426, 2606.648 2928.159, 2600.136 2915.370 C 2592.394 2900.169, 2582.315 2890.183, 2567.500 2883.039 C 2556.979 2877.965, 2547.660 2875.995, 2534.303 2876.022 C 2516.369 2876.058, 2499.845 2880.625, 2487.751 2888.888 C 2477.846 2895.657, 2471.796 2898.950, 2469.218 2898.977 C 2465.408 2899.016, 2460.176 2896.314, 2450.105 2889.108 C 2438.142 2880.547, 2431.611 2877.238, 2423.131 2875.440 C 2415.758 2873.877, 2411.647 2873.798, 2405.045 2875.092 M 3525.447 2881.342 C 3523.218 2882.617, 3515.118 2888.142, 3507.447 2893.621 C 3499.776 2899.100, 3480.570 2912.524, 3464.766 2923.452 C 3438.630 2941.526, 3433.480 2945.814, 3435.492 2947.825 C 3435.863 2948.196, 3476.607 2948.500, 3526.033 2948.500 C 3594.078 2948.500, 3616.189 2948.212, 3617.088 2947.312 C 3618.005 2946.395, 3617.840 2945.437, 3616.366 2943.109 C 3614.615 2940.343, 3545.788 2885.281, 3538.615 2880.907 C 3534.481 2878.386, 3530.378 2878.522, 3525.447 2881.342 M 1992.500 2909.140 C 1970.905 2909.621, 1954.521 2910.398, 1953.148 2911.007 C 1949.944 2912.428, 1950.758 2913.275, 1965.430 2923.786 C 1979.562 2933.909, 1986.342 2940.367, 1991.957 2949.055 C 1999.915 2961.368, 2001.967 2975.239, 1998.024 2990.068 C 1995.574 2999.281, 1995.522 3001.681, 1997.750 3002.839 C 1998.713 3003.338, 2009.175 3003.971, 2021 3004.244 C 2054.642 3005.020, 2055.655 3004.415, 2070.319 2974.753 C 2080.424 2954.312, 2089.678 2939.551, 2100.564 2926.507 C 2104.233 2922.111, 2107.632 2917.469, 2108.117 2916.192 C 2109.386 2912.854, 2107.618 2910.266, 2103.238 2909.049 C 2098.924 2907.851, 2048.522 2907.893, 1992.500 2909.140 M 2477 2947.722 C 2473.166 2949.162, 2469.571 2952.711, 2467.693 2956.908 C 2465.807 2961.120, 2465.571 2964.352, 2464.835 2996 C 2464.031 3030.561, 2462.196 3058.916, 2452.182 3191.500 C 2444.971 3286.988, 2445.673 3292.521, 2465 3292.477 C 2474.055 3292.457, 2478.152 3290.582, 2480.895 3285.206 C 2483.484 3280.131, 2483.685 3278.264, 2486.514 3233 C 2489.698 3182.072, 2490.806 3167.850, 2492.591 3155 C 2493.393 3149.225, 2494.700 3124.925, 2495.495 3101 C 2497.403 3043.571, 2499.462 3015.183, 2503.654 2988.500 C 2505.428 2977.207, 2505.035 2968.929, 2502.485 2963.912 C 2496.733 2952.595, 2484.580 2944.873, 2477 2947.722 M 3636 3035.573 C 3628.978 3036.618, 3606.419 3037.236, 3549.500 3037.945 C 3460.807 3039.049, 3450.516 3039.542, 3408.500 3044.702 C 3383.322 3047.794, 3377.619 3047.345, 3361.993 3041.046 C 3338.355 3031.515, 3320.044 3033.886, 3299.233 3049.173 C 3285.729 3059.093, 3276.997 3071.095, 3272.077 3086.500 C 3267.536 3100.719, 3266.555 3111.073, 3266.580 3144.500 C 3266.607 3178.485, 3267.039 3181.438, 3274.095 3195.833 C 3281.745 3211.442, 3295.123 3221.817, 3310.311 3223.922 C 3315.571 3224.651, 3324.109 3224.280, 3347.811 3222.293 C 3378.317 3219.735, 3379.370 3219.715, 3524 3219.009 C 3678.700 3218.253, 3676.076 3218.337, 3695.500 3213.480 C 3712.177 3209.310, 3725.547 3198.389, 3733.005 3182.845 C 3737.633 3173.201, 3742.215 3156.071, 3744.446 3140.073 C 3746.260 3127.064, 3746.479 3103.979, 3744.886 3093.692 C 3741.839 3074.017, 3732.125 3058.639, 3717 3049.543 C 3710.197 3045.452, 3695.693 3039.641, 3685.316 3036.849 C 3675.213 3034.130, 3650.070 3033.480, 3636 3035.573 M 2821.955 3054.099 C 2805.076 3056.283, 2788.058 3063.529, 2770.467 3076.023 C 2753.502 3088.074, 2744.832 3089.602, 2730.500 3083.069 C 2717.360 3077.079, 2705.004 3075.546, 2693.671 3078.497 C 2684.661 3080.844, 2667.029 3089.131, 2657.368 3095.559 C 2630.250 3113.602, 2617.845 3136.716, 2612.425 3179.291 C 2610.155 3197.129, 2610.902 3227.910, 2614.057 3246.500 C 2616.978 3263.710, 2617.025 3282.543, 2614.182 3296.500 C 2613.062 3302, 2609.678 3314.390, 2606.663 3324.034 C 2592.370 3369.743, 2588.430 3391.644, 2590.895 3411.679 C 2595.568 3449.674, 2620.740 3486.604, 2652.089 3501.457 C 2663.086 3506.667, 2673.559 3509.069, 2688 3509.692 C 2703.379 3510.356, 2717.418 3508.190, 2744.291 3501.009 C 2775.466 3492.679, 2782.751 3491.537, 2804.500 3491.569 C 2826.804 3491.602, 2833.434 3492.821, 2855.222 3500.893 C 2878.272 3509.433, 2906.149 3513.839, 2929.672 3512.660 C 2975.984 3510.338, 3009.279 3489.212, 3029.272 3449.462 C 3036.870 3434.356, 3041.869 3418.902, 3044.600 3402.077 C 3046.461 3390.616, 3046.369 3370.227, 3044.403 3358.239 C 3040.574 3334.895, 3044.404 3315.418, 3056.825 3295.074 C 3074.108 3266.768, 3079.770 3246.604, 3080.724 3209.954 C 3081.303 3187.703, 3080.285 3174.582, 3076.810 3159.500 C 3068.297 3122.548, 3044.925 3084.264, 3025.431 3075.340 C 3017.189 3071.566, 3007.166 3070.357, 2995.247 3071.697 C 2989.886 3072.300, 2969.713 3076.665, 2950.419 3081.397 C 2927.968 3086.902, 2913.386 3089.994, 2909.919 3089.984 C 2902.327 3089.961, 2897.363 3086.956, 2893.377 3079.972 C 2888.941 3072.198, 2886.160 3069.780, 2875.194 3064.159 C 2863.750 3058.294, 2854.640 3055.423, 2843.026 3054.022 C 2833.551 3052.879, 2831.327 3052.887, 2821.955 3054.099 M 1871.131 3088.541 C 1853.656 3092.333, 1834.723 3106.241, 1825.135 3122.331 C 1817.263 3135.539, 1814.806 3147.145, 1808.582 3200.500 C 1802.284 3254.502, 1801.722 3261.855, 1802.279 3283 C 1802.697 3298.849, 1803.192 3303.872, 1804.922 3309.829 C 1812.113 3334.588, 1827.097 3347.130, 1854.782 3351.563 C 1864.742 3353.158, 1869 3354.936, 1869 3357.500 C 1869 3362.837, 1854.717 3391.949, 1844.225 3408 C 1811.592 3457.919, 1751.459 3507.848, 1690.148 3535.932 C 1622.888 3566.741, 1547.794 3581.809, 1443 3585.522 C 1433.925 3585.843, 1408.725 3586.527, 1387 3587.042 C 1347.565 3587.977, 1334.146 3589.029, 1310.500 3593.042 C 1280.743 3598.091, 1243.067 3608.025, 1221.307 3616.558 C 1179.133 3633.095, 1144.585 3659.527, 1119.649 3694.333 C 1102.727 3717.954, 1095.783 3741.212, 1100.477 3758.551 C 1102.629 3766.504, 1108.043 3775.107, 1114.435 3780.734 C 1122.025 3787.415, 1129.460 3787.657, 1134.952 3781.402 C 1139.084 3776.696, 1141.074 3772.472, 1145.507 3759 C 1154.757 3730.893, 1168.362 3709.825, 1189.203 3691.337 C 1216.981 3666.696, 1263.812 3646.563, 1310.649 3639.129 C 1333.878 3635.442, 1347.783 3635.001, 1441.450 3634.980 C 1579.505 3634.951, 1603.546 3633.589, 1662.899 3622.440 C 1714.628 3612.722, 1751.729 3601.005, 1789.500 3582.455 C 1843.097 3556.133, 1885.863 3525.765, 1916.177 3492.500 C 1940.135 3466.210, 1957.446 3438.813, 1971.824 3404.431 C 1974.569 3397.869, 1980.464 3384.625, 1984.924 3375 C 1993.941 3355.544, 1998.160 3350.111, 2005.862 3348.037 C 2011.079 3346.632, 2017.199 3348.108, 2020.708 3351.617 C 2023.718 3354.627, 2023.652 3355.944, 2019.226 3381 C 2011.735 3423.409, 2010.355 3463.161, 2015.591 3485.736 C 2025.731 3529.458, 2057.113 3557.090, 2106.075 3565.407 C 2136.263 3570.534, 2184.767 3568.167, 2220.500 3559.821 C 2250.340 3552.852, 2278.234 3534.068, 2300.671 3505.833 C 2308.713 3495.714, 2312.221 3489.394, 2316.134 3477.979 C 2319.181 3469.092, 2319.386 3467.626, 2319.426 3454.500 C 2319.475 3438.015, 2318.167 3432.122, 2311.399 3418.341 C 2303.622 3402.504, 2290.489 3390.444, 2276.072 3385.899 C 2266.236 3382.798, 2252.035 3382.995, 2241.500 3386.379 C 2226.303 3391.261, 2212.169 3401.985, 2206.411 3413.004 C 2203.953 3417.707, 2203.536 3419.654, 2203.520 3426.500 C 2203.492 3438.653, 2206.261 3443.788, 2220.032 3457.116 C 2229.264 3466.052, 2231 3468.213, 2231 3470.777 C 2231 3474.722, 2227.351 3477.817, 2216.649 3482.948 C 2202.688 3489.642, 2196.804 3491.199, 2183.500 3491.722 C 2161.034 3492.604, 2144.889 3485.850, 2135.454 3471.622 C 2125.252 3456.237, 2124.792 3440.477, 2132.912 3384.566 L 2136.678 3358.632 2139.921 3355.924 C 2143.988 3352.530, 2146.648 3352.004, 2159.875 3351.983 C 2186.276 3351.939, 2199.698 3344.428, 2217.254 3319.870 C 2230.364 3301.533, 2235.080 3289.659, 2238.001 3267.635 C 2241.309 3242.702, 2245.117 3200.690, 2244.125 3200.077 C 2243.598 3199.752, 2242.991 3187.058, 2242.733 3171 C 2242.235 3139.890, 2241.758 3136.676, 2235.755 3124 C 2231.685 3115.404, 2221.799 3105.542, 2213 3101.299 C 2205.513 3097.690, 2189.304 3092.843, 2177.038 3090.546 C 2165.712 3088.425, 2073.768 3087.456, 2012 3088.807 C 1962.786 3089.883, 1960.219 3090.203, 1944.776 3097.202 C 1938.352 3100.114, 1936.492 3100.500, 1928.887 3100.500 C 1920.445 3100.500, 1920.076 3100.396, 1910.206 3095.254 C 1894.878 3087.269, 1884.896 3085.554, 1871.131 3088.541 M 2788.929 3101.303 C 2782.786 3103.046, 2775.816 3107.244, 2772.448 3111.230 C 2768.754 3115.602, 2766.041 3121.941, 2760.741 3138.582 L 2756.308 3152.500 2757.145 3164.860 C 2757.606 3171.658, 2758.473 3179.083, 2759.073 3181.360 C 2761.520 3190.649, 2768.375 3198.623, 2778.192 3203.597 C 2796.855 3213.054, 2809.325 3212.240, 2821.594 3200.763 C 2834.111 3189.054, 2839.961 3175.207, 2840.767 3155.383 C 2841.823 3129.402, 2833.518 3111.817, 2816.410 3103.811 C 2808.750 3100.226, 2796.625 3099.120, 2788.929 3101.303 M 3401.895 3104.374 C 3394.403 3105.986, 3391.238 3108.248, 3388.657 3113.834 C 3386.743 3117.977, 3386.501 3120.237, 3386.501 3134 C 3386.500 3151.454, 3387.392 3155.059, 3392.391 3157.797 C 3398.595 3161.195, 3484.833 3160.555, 3568.500 3156.490 C 3608.118 3154.565, 3611.032 3154.102, 3615.815 3148.968 C 3620.421 3144.025, 3622.399 3138.010, 3622.384 3129 C 3622.359 3114.876, 3618.893 3106.798, 3611.685 3104.067 C 3607.458 3102.465, 3409.415 3102.755, 3401.895 3104.374 M 2911.148 3110.019 C 2895.853 3116.959, 2880.853 3140.462, 2875.418 3166 C 2871.559 3184.136, 2876.787 3201.582, 2888.816 3210.708 C 2907.538 3224.911, 2939.321 3213.177, 2952.917 3187.042 C 2960.987 3171.531, 2963.269 3155.242, 2959.086 3143 C 2954.396 3129.276, 2942.739 3114.052, 2933.819 3110.004 C 2927.917 3107.325, 2917.068 3107.332, 2911.148 3110.019 M 2007 3148.066 C 1974.056 3149.863, 1943.590 3152.681, 1939.816 3154.281 C 1934.679 3156.459, 1932.830 3160.575, 1932.225 3171.180 C 1931.677 3180.798, 1932.826 3185.246, 1936.387 3187.288 C 1939.400 3189.016, 1972.465 3189.287, 2047.500 3188.197 C 2114.741 3187.221, 2114.888 3187.209, 2119.358 3182.190 C 2120.914 3180.442, 2121.155 3178.836, 2120.839 3172.302 C 2120.149 3158.053, 2116.072 3153.797, 2101.428 3152.035 C 2070.481 3148.311, 2032.093 3146.697, 2007 3148.066 M 2678.763 3169.514 C 2665.888 3174.243, 2653.631 3189.309, 2649.518 3205.460 C 2647.706 3212.576, 2647.627 3216.144, 2649.125 3223.201 C 2652.928 3241.109, 2670.723 3258.447, 2687.445 3260.536 C 2699.979 3262.102, 2713.901 3257.172, 2722.016 3248.292 C 2741.940 3226.492, 2730.434 3185.079, 2700.500 3170.853 C 2693.709 3167.626, 2685.311 3167.108, 2678.763 3169.514 M 2988.124 3199.540 C 2969.770 3204.606, 2953.998 3219.319, 2948.889 3236.139 C 2947.128 3241.937, 2946.855 3245.021, 2947.150 3255.759 C 2947.467 3267.308, 2947.762 3269.035, 2950.306 3274.214 C 2953.848 3281.426, 2960.227 3287.083, 2968.254 3290.130 C 2973.509 3292.124, 2976.324 3292.500, 2986 3292.500 C 2996.682 3292.500, 2997.927 3292.292, 3003.500 3289.572 C 3014.822 3284.046, 3025.080 3271.475, 3030.077 3257 C 3033.266 3247.765, 3033.263 3231.964, 3030.070 3223.718 C 3023.246 3206.087, 3004.191 3195.104, 2988.124 3199.540 M 2823.121 3241.060 C 2806.146 3244.092, 2794.523 3250.576, 2769.500 3270.975 C 2753.963 3283.641, 2715.173 3309.384, 2700.733 3316.613 C 2684.593 3324.692, 2673.130 3335.413, 2666.022 3349.074 C 2659.824 3360.988, 2657.758 3370, 2657.672 3385.500 C 2657.500 3416.631, 2665.381 3428.036, 2693.166 3436.867 C 2713.218 3443.239, 2729.681 3443.086, 2746 3436.374 C 2763.126 3429.330, 2769.905 3427.094, 2781.671 3424.610 C 2813.352 3417.921, 2830.778 3420.921, 2865.539 3439.049 C 2887.119 3450.302, 2891.419 3451.385, 2909.123 3450.018 C 2915.930 3449.493, 2923.975 3448.323, 2927 3447.419 C 2950.560 3440.377, 2962.940 3423.492, 2962.985 3398.338 C 2963.020 3379.248, 2958 3365.084, 2943.601 3343.647 C 2919.627 3307.953, 2888.635 3266.654, 2879.714 3258.512 C 2872.171 3251.628, 2861.115 3245.266, 2852 3242.565 C 2845.202 3240.551, 2830.314 3239.775, 2823.121 3241.060 M 2055.500 3242.658 C 2052.200 3242.812, 2025.650 3243.650, 1996.500 3244.519 C 1967.350 3245.389, 1941.256 3246.546, 1938.513 3247.091 C 1928.947 3248.990, 1925.804 3255.253, 1925.598 3272.834 C 1925.505 3280.728, 1925.644 3281.293, 1928.231 3283.520 C 1929.733 3284.814, 1932.886 3286.160, 1935.237 3286.513 C 1937.588 3286.865, 1968.984 3286.966, 2005.006 3286.737 C 2058.991 3286.394, 2072.784 3286.023, 2083.500 3284.626 C 2104.905 3281.836, 2108.579 3280.129, 2113.379 3270.745 C 2117.051 3263.563, 2117.685 3252.228, 2114.672 3247.625 C 2111.330 3242.519, 2108.272 3241.981, 2083.782 3242.189 C 2071.527 3242.293, 2058.800 3242.504, 2055.500 3242.658 M 3251.333 3246.524 C 3236.605 3250.493, 3226.119 3256.712, 3214.791 3268.196 C 3202.308 3280.850, 3195.063 3298.012, 3195.017 3315.031 C 3194.994 3323.883, 3191.256 3389.700, 3189.964 3404 C 3188.058 3425.107, 3187.094 3425.774, 3156.796 3426.943 C 3134.407 3427.807, 3131.026 3428.450, 3122.433 3433.486 C 3116.017 3437.246, 3107.483 3447.093, 3105.085 3453.503 C 3102.577 3460.205, 3102.288 3471.361, 3104.486 3476.620 C 3107.296 3483.347, 3111.783 3487.783, 3119.764 3491.728 L 3127.393 3495.500 3194.947 3495.786 C 3232.101 3495.944, 3343.275 3495.137, 3442 3493.993 C 3540.725 3492.849, 3666.050 3491.693, 3720.500 3491.424 C 3774.950 3491.155, 3824.370 3490.482, 3830.323 3489.928 C 3855.186 3487.615, 3872.815 3477.126, 3876.967 3462.177 C 3881.881 3444.487, 3870.194 3417.135, 3854.426 3409.420 C 3847.219 3405.894, 3837.843 3405.158, 3828.984 3407.421 C 3825.418 3408.333, 3816.070 3412.022, 3808.212 3415.620 C 3800.353 3419.218, 3792.503 3422.569, 3790.766 3423.067 C 3786.524 3424.284, 3783 3422.048, 3783 3418.141 C 3783 3416.594, 3785.024 3403.891, 3787.498 3389.914 C 3795.134 3346.767, 3796.703 3331.892, 3795.028 3318.500 C 3791.127 3287.301, 3771.723 3263.228, 3742.637 3253.504 C 3730.699 3249.512, 3711.480 3247.072, 3681.753 3245.772 C 3658.717 3244.764, 3650.599 3244.842, 3623.253 3246.331 C 3601.057 3247.540, 3575.398 3248.071, 3538 3248.095 C 3508.575 3248.113, 3460.425 3248.518, 3431 3248.994 C 3375.630 3249.890, 3368.153 3250.375, 3329.655 3255.578 C 3307.707 3258.544, 3304.843 3258.261, 3293.520 3252.011 C 3289.601 3249.847, 3283.735 3247.385, 3280.487 3246.539 C 3273.214 3244.644, 3258.336 3244.637, 3251.333 3246.524 M 986 3252.299 C 974.488 3255.589, 964.706 3263.440, 959.174 3273.832 C 957.514 3276.949, 954.996 3284.082, 953.578 3289.683 C 949.982 3303.884, 945.808 3314.755, 939.253 3327 C 928.300 3347.456, 926.038 3352.547, 923.934 3361.473 C 921.266 3372.798, 920.226 3394.736, 921.903 3404.362 C 925.461 3424.799, 937.299 3439.923, 953.701 3444.989 C 965.921 3448.764, 981.893 3447.266, 994 3441.212 C 997.025 3439.699, 1017.934 3427.895, 1040.464 3414.981 C 1076.499 3394.326, 1082.336 3390.639, 1088.964 3384.342 C 1101.940 3372.016, 1107.928 3359.257, 1107.974 3343.839 C 1108.018 3329.228, 1103.847 3319.514, 1093.116 3309.235 C 1080.236 3296.898, 1025.625 3257.312, 1016.500 3253.698 C 1010.180 3251.195, 992.675 3250.392, 986 3252.299 M 3342 3309.833 C 3326.100 3315.126, 3318.871 3321.512, 3315.623 3333.136 C 3313.715 3339.966, 3308.764 3392.842, 3308.614 3408 C 3308.510 3418.490, 3308.715 3419.876, 3310.952 3423.782 C 3312.434 3426.370, 3314.411 3428.347, 3315.952 3428.782 C 3317.353 3429.177, 3326.533 3429.497, 3336.350 3429.493 L 3354.200 3429.486 3356.515 3426.584 C 3357.788 3424.987, 3359.285 3421.840, 3359.842 3419.591 C 3360.400 3417.341, 3361.825 3397.275, 3363.011 3375 C 3364.197 3352.725, 3365.398 3331.125, 3365.680 3327 C 3366.139 3320.293, 3365.945 3319.140, 3363.846 3316.092 C 3358.632 3308.518, 3351.817 3306.566, 3342 3309.833 M 3489.661 3311.586 C 3476.028 3314.413, 3472.642 3315.896, 3470.035 3320.183 C 3466.931 3325.287, 3464.413 3342.360, 3459.968 3388.447 C 3457.301 3416.094, 3458.097 3420.905, 3465.956 3424.661 C 3471.413 3427.270, 3496.978 3427.187, 3502.385 3424.543 C 3508.707 3421.453, 3509.600 3418.174, 3515.592 3376.082 C 3523.340 3321.648, 3523.495 3315.894, 3517.341 3311.054 C 3513.775 3308.248, 3504.936 3308.418, 3489.661 3311.586 M 3635.849 3312.333 C 3630.321 3313.887, 3626.560 3316.202, 3624.587 3319.264 C 3623.664 3320.696, 3620.972 3338.692, 3617.097 3369.339 C 3611.650 3412.417, 3611.185 3417.507, 3612.427 3420.480 C 3614.354 3425.091, 3617.728 3425.914, 3636 3426.231 C 3651.458 3426.499, 3651.514 3426.492, 3656.733 3423.600 C 3659.611 3422.005, 3662.575 3419.755, 3663.319 3418.600 C 3665.611 3415.042, 3670.872 3365.940, 3671.258 3344.500 C 3671.495 3331.359, 3670.309 3327.041, 3664.612 3320.301 C 3658.756 3313.373, 3645.354 3309.660, 3635.849 3312.333" stroke="none" fill="#fe90f5" fill-rule="evenodd"/>
</svg>