<svg xmlns="http://www.w3.org/2000/svg" width="9449" height="9449" viewBox="0 0 9449 9449" version="1.1">
	<path d="M 6447.835 1416.543 C 6414.624 1421.717, 6382.471 1443.148, 6281.500 1527.411 C 6261.669 1543.960, 6190.951 1603.907, 6181.212 1612.424 C 6179.721 1613.728, 6165.450 1625.980, 6149.500 1639.651 C 6121.190 1663.915, 6086.506 1693.796, 6080.500 1699.097 C 6078.850 1700.553, 6060.175 1716.733, 6039 1735.052 C 6017.825 1753.370, 5995.550 1772.653, 5989.500 1777.901 C 5959.332 1804.071, 5948.401 1813.565, 5947.374 1814.488 C 5946.754 1815.045, 5942.061 1819.100, 5936.944 1823.500 C 5931.827 1827.900, 5921.966 1836.450, 5915.030 1842.500 C 5908.094 1848.550, 5899.737 1855.821, 5896.459 1858.659 C 5887.716 1866.227, 5798.315 1943.852, 5778.500 1961.080 C 5769.150 1969.209, 5760.552 1976.679, 5759.392 1977.680 C 5758.233 1978.681, 5754.633 1981.805, 5751.392 1984.622 C 5748.152 1987.440, 5734.925 1998.935, 5722 2010.167 C 5709.075 2021.399, 5670.600 2054.856, 5636.500 2084.515 C 5602.400 2114.175, 5553.800 2156.438, 5528.500 2178.434 C 5481.538 2219.263, 5411.892 2279.865, 5347.500 2335.928 C 5301.023 2376.394, 5231.207 2437.151, 5190 2472.992 C 5172.125 2488.540, 5155.689 2502.889, 5153.474 2504.880 C 5151.260 2506.871, 5146.086 2511.425, 5141.975 2515 C 5137.864 2518.575, 5133.151 2522.688, 5131.501 2524.139 C 5129.850 2525.590, 5113.650 2539.712, 5095.500 2555.521 C 5053.290 2592.287, 5055.969 2589.943, 5019 2622.471 C 4986.047 2651.466, 4971.608 2662.966, 4956.382 2672.343 C 4931.472 2687.684, 4935.171 2687.465, 4714.892 2686.592 L 4552.284 2685.948 4540.892 2681.376 C 4528.511 2676.406, 4519.310 2671.647, 4511.500 2666.174 C 4505.631 2662.061, 4469.775 2631.767, 4445 2609.990 C 4441.425 2606.848, 4423.845 2591.502, 4405.934 2575.888 C 4388.022 2560.275, 4353.614 2530.175, 4329.471 2509 C 4269.246 2456.179, 4165.638 2365.388, 4146.917 2349.029 C 4099.271 2307.395, 4002.385 2223.097, 3978 2202.059 C 3973.325 2198.026, 3958.475 2185.203, 3945 2173.565 C 3875.119 2113.207, 3777.821 2030.237, 3710.528 1973.621 C 3661.197 1932.117, 3644.421 1918.012, 3601 1881.538 C 3523.038 1816.049, 3381.464 1698.497, 3335.341 1660.955 C 3249.326 1590.942, 3257.482 1597.535, 3187 1541.052 C 3111.170 1480.285, 3091.376 1465.423, 3065.205 1449.606 C 3048.174 1439.313, 3035.362 1433.758, 3018.805 1429.489 C 3006.131 1426.221, 2981.731 1424.962, 2969.451 1426.943 C 2948.801 1430.275, 2929.590 1440.432, 2906.500 1460.229 C 2877.549 1485.050, 2859.203 1509.512, 2846.674 1540 C 2842.756 1549.533, 2837.578 1565.190, 2836.090 1572 C 2832.847 1586.848, 2827.015 1637.360, 2816.578 1741 C 2811.662 1789.818, 2809.037 1817.189, 2800.464 1909 C 2794.102 1977.147, 2787.342 2060.404, 2783.496 2118 C 2783.220 2122.125, 2782.319 2135.400, 2781.493 2147.500 C 2780.666 2159.600, 2778.191 2197.625, 2775.992 2232 C 2773.793 2266.375, 2771.549 2301.025, 2771.005 2309 C 2770.462 2316.975, 2768.883 2341.275, 2767.497 2363 C 2764.569 2408.864, 2756.253 2536.228, 2755.515 2546.500 C 2749.563 2629.338, 2738.037 2810.088, 2734.504 2876 C 2733.133 2901.575, 2731.320 2935.325, 2730.476 2951 C 2727.558 3005.146, 2722.918 3074.992, 2713.467 3207 C 2700.155 3392.956, 2693.934 3485.580, 2689.525 3563.500 C 2688.685 3578.350, 2687.775 3594.100, 2687.502 3598.500 C 2683.634 3660.998, 2676.730 3800.628, 2674.028 3871 C 2673.469 3885.575, 2672.779 3902.675, 2672.496 3909 C 2672.213 3915.325, 2671.543 3934.225, 2671.007 3951 C 2670.471 3967.775, 2669.792 3987.575, 2669.497 3995 C 2669.202 4002.425, 2668.517 4022.450, 2667.975 4039.500 C 2664.801 4139.335, 2664.570 4144.423, 2662.335 4163.500 C 2659.061 4191.462, 2653.519 4205.945, 2622.537 4267.500 C 2602.241 4307.824, 2593.941 4324.972, 2578.488 4358.500 C 2551.732 4416.553, 2539.360 4449.833, 2528.487 4493 C 2510 4566.403, 2494.619 4670.263, 2490.990 4746.211 C 2485.276 4865.778, 2522.664 5005.206, 2590.355 5116.766 C 2624.987 5173.844, 2687.471 5244.044, 2742 5287.141 C 2774.422 5312.764, 2808.239 5336.413, 2836.500 5353.224 C 2839.800 5355.187, 2845.875 5358.797, 2850 5361.246 C 2922.131 5404.072, 3012.144 5438.313, 3106 5458.627 C 3201.245 5479.241, 3339.329 5492.661, 3420.406 5489.182 C 3549.948 5483.624, 3693.419 5454.406, 3816.500 5408.518 C 3922.245 5369.094, 4018.433 5318.561, 4117 5250.649 C 4193.687 5197.812, 4282.802 5128.204, 4353.500 5065.918 C 4355.150 5064.464, 4364.600 5056.141, 4374.500 5047.423 C 4409.090 5016.960, 4461.858 4968.959, 4492.587 4940.004 C 4504.865 4928.435, 4572.038 4861.191, 4584.512 4847.982 C 4603.534 4827.839, 4632.474 4796.459, 4649.513 4777.500 C 4654.456 4772, 4658.746 4767.275, 4659.048 4767 C 4659.349 4766.725, 4671.923 4752.775, 4686.990 4736 C 4736.865 4680.472, 4764.854 4650.644, 4769.189 4648.402 C 4770.861 4647.538, 4773.002 4647.183, 4774.220 4647.570 C 4778.236 4648.845, 4796.707 4667.688, 4858.439 4733.487 C 4866.173 4741.730, 4876.313 4752.530, 4880.974 4757.487 C 4885.634 4762.444, 4892.609 4769.865, 4896.474 4773.977 C 4953.317 4834.472, 4996.071 4878.656, 5075.505 4959 C 5207.552 5092.560, 5228.048 5113.614, 5232.027 5119.779 C 5240.572 5133.020, 5238.034 5136.776, 5180.540 5196 C 5127.801 5250.327, 5073.590 5302.937, 4959 5411 C 4905.955 5461.024, 4878.246 5487.914, 4842.563 5524 C 4801.485 5565.540, 4791.546 5579.918, 4796.577 5590.522 C 4798.901 5595.418, 4808.226 5602.686, 4814.500 5604.491 C 4826.377 5607.907, 4850.321 5608.473, 4981.500 5608.433 C 5119.834 5608.391, 5145.367 5607.775, 5229.500 5602.447 C 5337.155 5595.631, 5420.444 5586.994, 5490.500 5575.381 C 5644.433 5549.866, 5787.245 5514.542, 5957.500 5459.873 C 6161.782 5394.277, 6282.849 5339.048, 6416.500 5250.483 C 6511.807 5187.327, 6572.907 5134.800, 6634.040 5063.466 C 6666.877 5025.148, 6681.620 5004.355, 6712.719 4952.500 C 6782.329 4836.429, 6817.408 4761.414, 6830.505 4700.616 C 6833.790 4685.368, 6834.104 4678.345, 6831.666 4674.618 C 6829.450 4671.231, 6821.747 4667.596, 6818.507 4668.409 C 6813.280 4669.721, 6805.857 4676.978, 6778.500 4707.522 C 6744.450 4745.539, 6713.182 4778.057, 6691 4798.521 C 6660.452 4826.702, 6615.473 4862.416, 6585 4882.688 C 6543.890 4910.035, 6504.282 4926.702, 6461.500 4934.656 C 6450.955 4936.617, 6397.992 4937.624, 6381.427 4936.179 C 6362.690 4934.545, 6354.222 4930.400, 6339.384 4915.597 C 6317.308 4893.573, 6301 4853.850, 6301 4822.099 C 6301 4784.203, 6329.546 4704.504, 6361.209 4654 C 6388.370 4610.678, 6426.467 4570.746, 6472.606 4537.237 C 6504.541 4514.045, 6564.126 4480.523, 6576.160 4478.979 C 6581.110 4478.344, 6581.128 4478.353, 6580.510 4480.921 C 6579.553 4484.895, 6572.525 4494.931, 6558.044 4513 C 6541.292 4533.904, 6532.326 4547.346, 6525.031 4562.500 C 6506.973 4600.010, 6507.602 4625.605, 6527.095 4646.442 C 6538.763 4658.915, 6552 4662.700, 6573.258 4659.641 C 6590.956 4657.095, 6621.222 4647.773, 6644.837 4637.595 C 6669.293 4627.054, 6709.993 4604.479, 6735.896 4587.088 C 6770.261 4564.015, 6830.060 4509.621, 6871.217 4464 C 6921.994 4407.714, 6975.749 4330.758, 7011.966 4262.500 C 7014.884 4257, 7019.205 4248.900, 7021.567 4244.500 C 7027.216 4233.980, 7042.293 4201.887, 7049.330 4185.402 C 7064.061 4150.896, 7073.546 4124.622, 7082.504 4093.513 C 7118.230 3969.453, 7120.351 3840.162, 7088.912 3703 C 7081.785 3671.908, 7077.735 3659.752, 7072.637 3654.153 C 7070.028 3651.287, 7063.820 3648, 7061.017 3648 C 7057.896 3648, 7050.338 3655.547, 7048.414 3660.585 C 7046.603 3665.328, 7046.589 3664.497, 7049.065 3699.364 C 7052.444 3746.942, 7041.883 3807.510, 7015.477 3892 C 7002.179 3934.547, 6994.804 3953.630, 6981.523 3979.855 C 6958.932 4024.464, 6928.066 4068.257, 6895.659 4101.678 C 6879.698 4118.138, 6868.975 4126.950, 6858 4132.623 L 6850.500 4136.500 6831 4136.500 C 6808.783 4136.500, 6807.973 4136.277, 6798.172 4127.465 C 6791.919 4121.843, 6788.440 4116.103, 6787.587 4110 C 6786.550 4102.582, 6788.836 4077.519, 6791.964 4062.023 C 6797.251 4035.823, 6801.379 4026.078, 6825.015 3984 C 6879.925 3886.245, 6910.063 3796.313, 6919.181 3703 C 6920.939 3685.006, 6920.960 3617.390, 6919.212 3603 C 6914.438 3563.703, 6911.193 3547.448, 6894.562 3479.500 C 6889.446 3458.600, 6882.500 3430.025, 6879.125 3416 C 6866.776 3364.680, 6858.015 3328.590, 6848.174 3288.500 C 6831.686 3221.334, 6828.772 3202.226, 6828.809 3161.500 C 6828.854 3112.422, 6837.061 3068.759, 6855.689 3018.500 C 6869.849 2980.298, 6882.670 2956.179, 6936.495 2866.493 C 6976.694 2799.512, 7001.315 2755.435, 7022.514 2712.500 C 7034.966 2687.282, 7039.064 2677.297, 7041.827 2665.444 C 7048.042 2638.785, 7046.940 2597.401, 7039.412 2574.735 C 7035.196 2562.043, 7025.626 2559.526, 7017.645 2569.010 C 7013.780 2573.603, 7011.287 2583.052, 7010.513 2596.038 C 7007.865 2640.495, 6996.212 2671.284, 6969.463 2704.500 C 6960.785 2715.275, 6943.830 2733.647, 6933.009 2744 C 6913.132 2763.017, 6896.838 2778.135, 6877 2795.968 C 6797.959 2867.021, 6761.266 2907.190, 6724.640 2962.762 C 6680.260 3030.098, 6643.324 3118.033, 6632.130 3183 C 6628.410 3204.588, 6627.556 3218.272, 6627.541 3256.500 C 6627.523 3303.055, 6628.373 3310.889, 6643.010 3399 C 6653.043 3459.391, 6654.727 3470.877, 6656.429 3490.500 C 6659.748 3528.753, 6657.532 3588.201, 6651.434 3624.500 C 6649.262 3637.426, 6641.736 3667.463, 6637.095 3681.729 C 6624.346 3720.910, 6599.874 3770.916, 6579.804 3798.797 C 6572.738 3808.611, 6556.989 3824.890, 6546.500 3833.221 C 6536.202 3841.401, 6521.851 3850.480, 6510.500 3855.997 C 6488.826 3866.532, 6474.074 3869.519, 6447.555 3868.744 C 6432.865 3868.314, 6429.252 3867.873, 6421.500 3865.561 C 6401.687 3859.651, 6382.957 3848.621, 6367.266 3833.624 C 6338.904 3806.514, 6321.562 3771.383, 6314.386 3726.500 C 6312.200 3712.829, 6311.899 3677.911, 6313.852 3664.500 C 6320.337 3619.958, 6328.831 3579.992, 6334.112 3569.175 C 6336.083 3565.136, 6338.338 3562.146, 6340.350 3560.904 C 6345.960 3557.440, 6347.731 3558.454, 6356.222 3570 C 6382.574 3605.833, 6391.779 3613.955, 6407 3614.808 C 6412.631 3615.124, 6414.208 3614.794, 6418.795 3612.336 C 6437.947 3602.076, 6466.079 3566.069, 6479.606 3534.500 C 6489.084 3512.382, 6492.770 3495.613, 6493.695 3470.403 C 6494.382 3451.668, 6493.657 3444.670, 6487.459 3410.206 C 6475.952 3346.229, 6474.190 3301.923, 6481.049 3249 C 6482.153 3240.475, 6483.263 3232.375, 6483.514 3231 C 6483.765 3229.625, 6484.418 3213.254, 6484.966 3194.620 C 6487.156 3120.119, 6493.273 3089.245, 6525.805 2988.500 C 6547.396 2921.638, 6555.480 2893.756, 6567.421 2844.974 C 6576.333 2808.568, 6579.781 2792.338, 6598.011 2701 C 6606.738 2657.275, 6616.601 2608.225, 6619.928 2592 C 6633.427 2526.177, 6638.355 2492.394, 6640.059 2454 C 6641.362 2424.652, 6642.080 2171.235, 6641.005 2120.500 C 6640.526 2097.950, 6639.651 2063.750, 6639.059 2044.500 C 6634.090 1882.862, 6632.543 1825.990, 6629.987 1711 C 6628.837 1659.284, 6627.701 1634.764, 6625.425 1612.576 C 6620.626 1565.780, 6607.930 1520.758, 6591.354 1491.756 C 6580.238 1472.306, 6561.274 1450.818, 6546 1440.366 C 6516.265 1420.019, 6480.791 1411.410, 6447.835 1416.543 M 3153.302 2011.417 C 3149.598 2013.088, 3145.835 2019.737, 3144.182 2027.532 C 3143.595 2030.299, 3142.391 2039.524, 3141.507 2048.032 C 3140.623 2056.539, 3139.481 2066.487, 3138.969 2070.139 C 3135.223 2096.865, 3122.520 2347.144, 3115.528 2532 C 3113.064 2597.142, 3109.944 2698.215, 3108.522 2759 C 3108.219 2771.925, 3107.738 2790.150, 3107.452 2799.500 C 3107.167 2808.850, 3106.279 2854.975, 3105.480 2902 C 3104.183 2978.279, 3103.604 3028.015, 3101.497 3244.500 C 3100.687 3327.746, 3099.151 3431.593, 3097.986 3482 C 3097.020 3523.772, 3096.157 3555.759, 3094.006 3629.606 C 3092.694 3674.624, 3092.632 3730.903, 3093.891 3734.212 C 3095.854 3739.375, 3107.040 3745, 3111.873 3743.255 C 3114.166 3742.428, 3141.752 3724.414, 3159 3712.481 C 3247.003 3651.600, 3312.388 3613.276, 3420 3559.502 C 3470.061 3534.486, 3507.133 3517.176, 3548.500 3499.501 C 3695.425 3436.724, 3827.406 3398.324, 3988.500 3371.484 C 4018.855 3366.426, 4046.879 3362.638, 4069.905 3360.478 C 4108.926 3356.819, 4177.908 3356.835, 4199.500 3360.509 C 4225.437 3364.922, 4240.736 3372.865, 4260.078 3391.961 C 4271.300 3403.039, 4276.695 3409.270, 4302.540 3441 C 4319.316 3461.596, 4348.176 3496.410, 4360.981 3511.500 C 4365.181 3516.450, 4380.951 3535.125, 4396.024 3553 C 4411.098 3570.875, 4440.790 3605.975, 4462.008 3631 C 4650.597 3853.432, 4705.887 3919.193, 4731.474 3951.500 C 4760.938 3988.702, 4769.098 3996.987, 4776.283 3996.996 C 4781.238 3997.003, 4788.424 3992.371, 4809.155 3975.809 C 4820.345 3966.869, 4830.625 3958.573, 4832 3957.372 C 4850.958 3940.813, 5014.605 3805.500, 5046.309 3780.169 C 5217.989 3643, 5407.097 3544.080, 5597 3492.109 C 5722.724 3457.702, 5825.433 3445.199, 5942.789 3450.014 C 5992.318 3452.046, 6025.358 3455.596, 6086.176 3465.419 C 6133.771 3473.107, 6136.132 3473.397, 6151.500 3473.449 C 6165.021 3473.495, 6166.894 3473.287, 6170.500 3471.342 C 6178.883 3466.818, 6181.700 3462.198, 6190.830 3438 C 6208.025 3392.423, 6258.249 3250.392, 6272.379 3207.379 C 6284.009 3171.980, 6291.907 3132.913, 6296.211 3089.500 C 6298.052 3070.931, 6298.070 2094.840, 6296.231 2054.290 C 6294.971 2026.536, 6293.815 2017.250, 6291.507 2016.364 C 6290.794 2016.091, 6288.398 2016.354, 6286.183 2016.951 C 6279.792 2018.672, 6267.076 2029.558, 6215 2077.894 C 6158.634 2130.210, 6057.120 2224.682, 6049.500 2231.913 C 6045.100 2236.087, 6035.425 2245.155, 6028 2252.061 C 6015.471 2263.716, 5982.504 2294.594, 5948 2326.992 C 5940.025 2334.480, 5921.575 2351.859, 5907 2365.611 C 5864.798 2405.432, 5721.919 2539.972, 5706 2554.880 C 5698.025 2562.349, 5687.675 2572.095, 5683 2576.539 C 5669.053 2589.795, 5595.220 2658.480, 5574.485 2677.486 C 5567.893 2683.529, 5559.575 2691.224, 5556 2694.586 C 5538.028 2711.489, 5477.906 2765.910, 5422.500 2815.427 C 5401.050 2834.597, 5381.699 2851.906, 5379.498 2853.891 C 5372.876 2859.863, 5351.292 2879.032, 5318 2908.510 C 5285.691 2937.117, 5265.212 2955.266, 5252 2967 C 5247.875 2970.664, 5238.425 2979.039, 5231 2985.613 C 5223.575 2992.186, 5205.575 3008.137, 5191 3021.060 C 5156.971 3051.232, 5151.601 3055.701, 5139.500 3063.924 C 5113.141 3081.835, 5084.913 3093.878, 5056 3099.547 C 5042.678 3102.159, 4962.640 3102.833, 4699.500 3102.545 C 4433.098 3102.255, 4442.707 3102.550, 4415 3093.798 C 4383.736 3083.922, 4353.957 3067.541, 4325.041 3044.312 C 4314.401 3035.765, 4271.235 2998.602, 4269 2996.064 C 4268.725 2995.752, 4262.650 2990.291, 4255.500 2983.928 C 4237.207 2967.649, 4118.733 2861.788, 4117.404 2860.534 C 4116.802 2859.965, 4106.476 2850.725, 4094.458 2840 C 4076.424 2823.907, 4023.431 2776.481, 4010 2764.415 C 3998.572 2754.149, 3962.335 2721.652, 3956 2715.989 C 3947.494 2708.385, 3890.659 2657.430, 3878.500 2646.506 C 3874.100 2642.553, 3857.225 2627.414, 3841 2612.865 C 3780.378 2558.501, 3640.050 2432.490, 3569 2368.613 C 3507.175 2313.030, 3473.287 2282.585, 3388 2205.999 C 3219.191 2054.411, 3176.706 2016.982, 3169.390 2013.402 C 3162.848 2010.202, 3157.467 2009.537, 3153.302 2011.417 M 4013 3752.892 C 4006.104 3755.130, 3990.478 3762.981, 3963.500 3777.762 C 3837.500 3846.798, 3735.552 3912.028, 3636 3987.312 C 3617.407 4001.373, 3550.729 4053.982, 3549 4055.955 C 3548.725 4056.268, 3540.400 4063.243, 3530.500 4071.454 C 3386.940 4190.523, 3299.861 4279.574, 3228.300 4380.500 C 3175.797 4454.547, 3139.386 4526.127, 3127.838 4578 C 3125.868 4586.848, 3125.511 4591.175, 3125.567 4605.500 C 3125.630 4621.281, 3125.834 4623.109, 3128.413 4631 C 3136.424 4655.514, 3154.345 4678.677, 3188 4708.019 C 3253.317 4764.965, 3326.389 4803.603, 3418.500 4829.901 C 3464.148 4842.933, 3538.707 4856.435, 3572 4857.699 C 3584.395 4858.169, 3586.768 4857.951, 3601 4855.033 C 3624.354 4850.244, 3646.948 4844.441, 3662 4839.366 C 3743.133 4812.008, 3850.107 4759.369, 3942.500 4701.339 C 3993.865 4669.078, 4071.848 4613.828, 4130.630 4568.052 C 4134.551 4564.999, 4145.950 4556.200, 4155.961 4548.500 C 4165.972 4540.800, 4181.916 4528.425, 4191.392 4521 C 4200.868 4513.575, 4215.794 4501.883, 4224.561 4495.017 C 4342.632 4402.547, 4396.433 4354.070, 4454.316 4288 C 4469.077 4271.150, 4468.685 4271.825, 4466.186 4267.591 C 4464.210 4264.242, 4380.546 4153.897, 4362.623 4131 C 4325.731 4083.873, 4304.358 4058.737, 4184.059 3921 C 4101.959 3826.999, 4064.802 3785.176, 4046.002 3765.610 C 4032.242 3751.289, 4025.705 3748.770, 4013 3752.892 M 5426.500 3956.476 C 5399.153 3962.863, 5379.707 3975.348, 5331.500 4017.465 C 5287.609 4055.811, 5216.504 4124.260, 5184.472 4159 C 5180.161 4163.675, 5174.126 4170.200, 5171.060 4173.500 C 5164.764 4180.277, 5149.328 4197.218, 5143.270 4204 C 5083.998 4270.354, 5060.686 4297.560, 5055.456 4306.485 C 5053.982 4309, 5052.414 4312.664, 5051.971 4314.627 C 5050.133 4322.778, 5056.474 4333.937, 5076.992 4358.655 C 5086.179 4369.723, 5165.270 4462.193, 5212.447 4517.022 C 5217.426 4522.809, 5251.042 4561.959, 5287.148 4604.022 C 5412.687 4750.272, 5449.852 4792.954, 5476.437 4821.412 C 5493.954 4840.163, 5497.162 4842.048, 5505.572 4838.534 C 5514.673 4834.732, 5522.747 4825.536, 5552.134 4785.500 C 5638.549 4667.775, 5718.907 4541.137, 5796.439 4400.500 C 5827.508 4344.144, 5846.696 4301.181, 5855.171 4269 C 5859.159 4253.857, 5859.480 4239.681, 5856.121 4227.031 C 5853.714 4217.963, 5841.524 4186.850, 5832.995 4168 C 5805.602 4107.466, 5775.206 4066.215, 5740 4041.795 C 5729.400 4034.443, 5699.866 4017.434, 5679.500 4006.952 C 5635.404 3984.257, 5607.232 3976.456, 5521 3963.064 C 5456.959 3953.117, 5444.574 3952.254, 5426.500 3956.476 M 6310.500 5894.681 C 6274.665 5899.239, 6250.538 5912.867, 6204 5954.837 C 6198.225 5960.045, 6156.600 6001.269, 6111.500 6046.446 C 6018.695 6139.410, 6003.559 6153.593, 5947 6200.598 C 5879.395 6256.783, 5788.451 6321.537, 5687.524 6385.354 C 5625.120 6424.812, 5607.500 6441.927, 5606.190 6464.359 C 5605.603 6474.392, 5607.119 6481.223, 5612.453 6492.586 C 5623.363 6515.830, 5636.045 6528.287, 5652.615 6532.037 C 5659.417 6533.576, 5686.210 6533.325, 5700 6531.593 C 5746.180 6525.793, 5790.516 6509.364, 5925 6448.215 C 5992.439 6417.550, 6014.267 6406.432, 6029.555 6394.959 C 6041.188 6386.228, 6045.715 6384.527, 6049.120 6387.609 C 6050.242 6388.624, 6053.657 6393.515, 6056.709 6398.478 C 6070.715 6421.254, 6085.250 6433.187, 6105 6438.125 C 6111.830 6439.832, 6131.752 6439.609, 6159.500 6437.513 C 6170.500 6436.682, 6188.275 6435.348, 6199 6434.549 C 6233.883 6431.950, 6282.866 6430.852, 6426.500 6429.451 C 6492.053 6428.811, 6539.255 6427.430, 6547.666 6425.906 C 6555.973 6424.400, 6566.689 6418.965, 6572.158 6413.484 C 6580.666 6404.957, 6584.472 6394.630, 6587.942 6370.653 C 6591.582 6345.503, 6591.835 6345.478, 6620 6367.471 C 6655.019 6394.815, 6771.779 6473.941, 6805.500 6493.181 C 6827.225 6505.576, 6843.373 6511.805, 6861.035 6514.602 C 6875.024 6516.818, 6903.370 6516.070, 6916.500 6513.139 C 6937.424 6508.468, 6955.277 6500.610, 6970.016 6489.583 C 7003.953 6464.194, 7023.321 6424.530, 7023.281 6380.500 C 7023.252 6349.807, 7015.020 6322.456, 6998.150 6297 C 6990.295 6285.148, 6972.756 6267.849, 6962.321 6261.661 C 6946.974 6252.561, 6920.225 6242.937, 6839.500 6217.472 C 6737.958 6185.441, 6697.367 6168.792, 6561 6103.247 C 6553.025 6099.413, 6535.025 6090.761, 6521 6084.020 C 6483.733 6066.106, 6467.929 6058.112, 6464.131 6055.253 C 6457.349 6050.148, 6455.077 6038.800, 6455.026 6009.789 C 6454.960 5972.502, 6448.610 5949.384, 6433.606 5931.819 C 6415.808 5910.982, 6391.310 5900.818, 6346.006 5895.474 C 6334.535 5894.121, 6317.838 5893.748, 6310.500 5894.681 M 3500.500 5909.002 C 3468.431 5915.304, 3441.272 5926.334, 3423.196 5940.398 C 3408.470 5951.856, 3400.129 5962.430, 3397.393 5973.111 C 3395.430 5980.774, 3396.110 5985.865, 3400.009 5992.692 C 3403.769 5999.275, 3407.494 6002.082, 3418.991 6006.996 C 3437.721 6015.002, 3458.211 6027.205, 3464.576 6034.146 C 3477.421 6048.154, 3485.548 6066.302, 3484.811 6079.334 C 3484.381 6086.946, 3483.397 6088.292, 3477.031 6089.974 C 3468.846 6092.137, 3439.877 6093.003, 3342.500 6093.995 C 3213.227 6095.312, 3200.468 6096.019, 3189.454 6102.474 C 3187.205 6103.792, 3182.323 6108.095, 3178.606 6112.035 C 3162.661 6128.937, 3158.450 6141.134, 3159.214 6168.205 C 3159.487 6177.888, 3160.127 6183.877, 3161.198 6186.769 C 3166.187 6200.237, 3178.581 6213.693, 3192.507 6220.759 C 3204.900 6227.048, 3218.446 6228.968, 3251 6229.050 C 3290.197 6229.149, 3318 6231.054, 3318 6233.641 C 3318 6233.886, 3314.470 6238.230, 3310.155 6243.293 C 3295.151 6260.902, 3287.549 6272.636, 3282.165 6286.500 C 3275.565 6303.493, 3273.740 6319.652, 3276.391 6337.621 C 3278.670 6353.071, 3279.937 6356.557, 3297.383 6395.373 C 3301.554 6404.652, 3304.744 6412.605, 3304.473 6413.044 C 3303.820 6414.101, 3290.239 6418.556, 3281.746 6420.500 C 3273.889 6422.298, 3239.980 6423.951, 3210 6423.998 C 3178.067 6424.047, 3163.784 6425.323, 3148.650 6429.475 C 3141.582 6431.414, 3134.149 6433, 3132.132 6433 C 3125.208 6433, 3118.697 6426.371, 3111.506 6412 C 3099.306 6387.617, 3087.856 6373.455, 3078 6370.558 C 3066.830 6367.274, 3049.152 6368.801, 3033.210 6374.426 C 3030.865 6375.253, 3025.580 6376.625, 3021.466 6377.475 C 3005.662 6380.740, 3002.803 6375.455, 3004.951 6346.937 C 3005.549 6338.997, 3006.252 6330.475, 3006.514 6328 C 3008.360 6310.536, 3016.264 6226.877, 3017.568 6211 C 3019.516 6187.288, 3019.776 6151.262, 3018.103 6137 C 3015.355 6113.574, 3008.407 6090.684, 2997.005 6067.500 C 2989.284 6051.798, 2983.323 6043.377, 2973.115 6033.747 C 2959.358 6020.769, 2944.068 6014.120, 2926 6013.256 C 2913.518 6012.660, 2904.376 6013.936, 2891.218 6018.113 C 2858.142 6028.613, 2826.904 6055.171, 2811.479 6085.905 C 2807.048 6094.734, 2803.402 6105.179, 2802.073 6112.848 C 2799.460 6127.931, 2792.191 6247.024, 2790.009 6310.500 C 2788.433 6356.355, 2787.213 6375.975, 2785.604 6381.320 C 2784.813 6383.948, 2782.386 6388.456, 2780.210 6391.339 L 2776.253 6396.579 2763.877 6395.178 C 2757.069 6394.407, 2743.175 6393.737, 2733 6393.689 C 2715.591 6393.606, 2713.982 6393.760, 2705.718 6396.305 C 2678.294 6404.751, 2655.803 6424.116, 2649.310 6444.873 C 2646.593 6453.562, 2646.868 6478.521, 2649.812 6490.363 C 2655.906 6514.871, 2671.775 6531.971, 2697.728 6541.996 C 2717.675 6549.701, 2721.425 6550.387, 2738.500 6549.464 C 2761.635 6548.213, 2763.536 6548.269, 2765.749 6550.272 C 2766.825 6551.247, 2768.993 6554.397, 2770.566 6557.272 C 2773.022 6561.760, 2773.483 6563.859, 2773.824 6572.108 C 2774.042 6577.392, 2773.497 6589.092, 2772.611 6598.108 C 2769.686 6627.900, 2763.758 6724.921, 2757.557 6844.500 C 2756.730 6860.450, 2755.815 6878, 2755.524 6883.500 C 2755.233 6889, 2754.105 6912.625, 2753.017 6936 C 2748.950 7023.384, 2747.938 7032.918, 2741.776 7041.970 C 2735.474 7051.229, 2728.265 7053.625, 2702.500 7055.026 C 2680.829 7056.205, 2670.967 7057.457, 2662.310 7060.131 C 2616.066 7074.415, 2575.480 7122.276, 2562.357 7178 C 2559.257 7191.162, 2558.113 7214.495, 2559.949 7227.091 C 2566.431 7271.549, 2601.799 7318.010, 2645.500 7339.476 C 2660.820 7347, 2668.983 7349.639, 2681.243 7351.028 C 2712.652 7354.586, 2768.404 7337.327, 2815.500 7309.466 C 2910.185 7253.454, 2998.189 7174.660, 3063.411 7087.500 C 3087.200 7055.709, 3094.743 7041.752, 3105.445 7009.719 C 3111.563 6991.406, 3113.823 6977.428, 3112.199 6967.953 C 3110.547 6958.323, 3106.211 6950.281, 3098.022 6941.660 C 3088.442 6931.575, 3082.883 6928.703, 3072 6928.217 C 3056.720 6927.534, 3050.373 6930.631, 3024.808 6951.244 C 3001.866 6969.740, 2989.351 6978, 2984.265 6978 C 2981.341 6978, 2975.406 6973.381, 2973.745 6969.811 C 2969.492 6960.671, 2969.863 6955.029, 2983.499 6821.500 C 2984.847 6808.300, 2987.072 6785.125, 2988.444 6770 C 2992.433 6726.020, 2993.489 6711.514, 2998.015 6638.500 C 3000.683 6595.452, 3002.852 6578.337, 3006.662 6570.262 C 3010.782 6561.531, 3018.220 6556.687, 3042.189 6547.124 C 3060.130 6539.967, 3070.117 6535.126, 3082.342 6527.663 C 3104.076 6514.395, 3107.062 6514.692, 3125.582 6531.961 C 3152.212 6556.791, 3160.728 6558.694, 3217.500 6552.506 C 3243.588 6549.663, 3313.386 6548.923, 3575.500 6548.711 C 3821.534 6548.512, 3838.048 6548.607, 3863.500 6550.372 C 3895.897 6552.618, 3951.047 6552.228, 3974.500 6549.586 C 4002.721 6546.408, 4022.228 6542.057, 4032.422 6536.668 C 4045.192 6529.918, 4056.603 6515.878, 4061.713 6500.631 C 4064.182 6493.263, 4064.437 6491.140, 4064.431 6478 C 4064.425 6464.726, 4064.189 6462.825, 4061.640 6455.513 C 4055.149 6436.897, 4046.685 6423.415, 4033.067 6410 C 4019.523 6396.658, 4005.859 6389.257, 3987.736 6385.445 C 3970.369 6381.791, 3957.401 6384.177, 3918 6398.272 C 3905.075 6402.896, 3889.325 6408.091, 3883 6409.816 C 3870.152 6413.321, 3851.721 6416, 3840.449 6416 C 3833.378 6416, 3833 6415.885, 3833 6413.737 C 3833 6409.670, 3839.792 6401.210, 3848.774 6394.090 C 3865.789 6380.602, 3885.199 6353.685, 3891.706 6334.553 C 3894.082 6327.568, 3894.448 6324.909, 3894.471 6314.500 C 3894.503 6300.216, 3893.268 6294.550, 3887.496 6282.500 C 3880.914 6268.760, 3869.227 6255.932, 3848.185 6239.355 C 3836.420 6230.086, 3831 6225.022, 3831 6223.297 C 3831 6221.463, 3838.544 6221.624, 3863 6223.980 C 3893.300 6226.899, 3914.595 6227.980, 3942.038 6227.990 L 3966.575 6228 3976.009 6222.599 C 3997.172 6210.485, 4012.191 6190.905, 4019.204 6166.289 C 4020.978 6160.061, 4021.425 6155.895, 4021.434 6145.500 C 4021.448 6130.607, 4020.078 6124.296, 4014.011 6111.308 C 4008.778 6100.106, 4003.832 6092.894, 3995.089 6083.719 C 3978.270 6066.067, 3962.767 6059.761, 3936 6059.683 C 3919.700 6059.636, 3908.456 6061.783, 3889.406 6068.578 C 3862.144 6078.304, 3849.302 6081.675, 3830.860 6083.946 C 3805.688 6087.046, 3750.499 6091, 3732.400 6091 C 3720.226 6091, 3720.131 6090.982, 3717.966 6088.250 C 3715.616 6085.285, 3715.613 6082.633, 3717.939 6066.500 C 3719.280 6057.203, 3719.351 6030.947, 3718.058 6022.911 C 3713.828 5996.623, 3698.562 5969.369, 3675.693 5947.277 C 3662.544 5934.575, 3651.222 5927.479, 3631.271 5919.436 C 3608.641 5910.312, 3593.659 5908.235, 3545.500 5907.541 C 3513.521 5907.081, 3509.637 5907.207, 3500.500 5909.002 M 1464.961 5942.525 C 1441.518 5946.181, 1422.682 5957.244, 1405.554 5977.417 C 1387.885 5998.225, 1368.343 6040.507, 1317.006 6169 C 1281.318 6258.325, 1270.661 6282.697, 1243.765 6336.500 C 1197.196 6429.654, 1171.415 6470.976, 1125.535 6526 C 1103.258 6552.717, 1094.035 6566.957, 1085.550 6587.736 C 1066.373 6634.700, 1065.078 6677.630, 1081.568 6719.847 C 1087.312 6734.555, 1091.536 6742.116, 1099.733 6752.364 C 1105.812 6759.965, 1119.200 6773.819, 1125.089 6778.603 C 1136.670 6788.012, 1152.355 6795.921, 1166.794 6799.632 C 1196.576 6807.287, 1256.457 6800.937, 1305 6784.978 C 1331.404 6776.297, 1369.155 6754.321, 1403.500 6727.638 C 1411.200 6721.655, 1418.167 6716.252, 1418.983 6715.630 C 1420.076 6714.797, 1420.008 6715.217, 1418.724 6717.229 C 1417.766 6718.729, 1412.648 6726.829, 1407.350 6735.229 C 1397.671 6750.576, 1372.256 6788.442, 1358.508 6808 C 1352.094 6817.124, 1314.926 6870.793, 1297.605 6895.942 C 1230.314 6993.641, 1180.790 7058.903, 1126.542 7121.366 C 1107.933 7142.793, 1099.690 7153.303, 1089.576 7168.500 C 1070.749 7196.789, 1063.030 7212.442, 1057.899 7232.744 C 1046.541 7277.681, 1056.233 7321.306, 1085.816 7358.398 C 1117.555 7398.195, 1152.574 7422.856, 1264.554 7484.268 C 1322.403 7515.994, 1371.707 7538.019, 1409.859 7549.180 C 1420.371 7552.255, 1420.831 7552.298, 1447.813 7552.752 C 1483.431 7553.351, 1491.859 7552.085, 1524 7541.310 C 1557.345 7530.131, 1586.257 7516.615, 1611 7500.638 C 1622.426 7493.260, 1668.143 7455.193, 1729 7402.383 C 1730.375 7401.190, 1745.450 7388.152, 1762.500 7373.410 C 1841.490 7305.114, 1855.244 7291.786, 1877.986 7261.500 C 1904.492 7226.200, 1922.405 7189.418, 1930.941 7152.763 C 1938.397 7120.749, 1938.175 7074.683, 1930.387 7037.692 C 1921.944 6997.585, 1905.593 6962.270, 1881.683 6932.500 C 1874.172 6923.148, 1856.301 6905.304, 1847 6897.869 C 1830.535 6884.707, 1807.135 6871.792, 1781.225 6861.567 C 1752.078 6850.064, 1736.165 6846.063, 1716.500 6845.293 C 1668.702 6843.422, 1616.999 6864.813, 1576.274 6903.309 C 1566.148 6912.881, 1551.563 6929.998, 1544.821 6940.221 C 1529.145 6963.992, 1524.296 6977.545, 1515.020 7023.500 C 1506.715 7064.649, 1502.870 7077.119, 1494.734 7089.298 C 1483.849 7105.590, 1463.976 7119.688, 1402.500 7154.726 C 1349.901 7184.704, 1339.706 7189.490, 1335.637 7186.113 C 1333.250 7184.133, 1332.934 7178.240, 1334.942 7173.163 C 1338.452 7164.289, 1354.865 7136.899, 1371.292 7112.500 C 1393.249 7079.887, 1481.228 6959.753, 1574.881 6834.500 C 1608.984 6788.889, 1614.989 6778.304, 1618.495 6757.619 C 1621.371 6740.648, 1620.317 6732.232, 1613.373 6716.744 C 1610.968 6711.378, 1609 6706.727, 1609 6706.408 C 1609 6704.710, 1637.150 6709.023, 1663 6714.682 C 1674.643 6717.230, 1677.145 6717.421, 1699.500 6717.459 C 1720.634 6717.495, 1724.844 6717.228, 1734.755 6715.219 C 1788.974 6704.230, 1828.556 6671.773, 1857.086 6614.910 C 1867.040 6595.070, 1876.470 6568.154, 1880.177 6549 C 1882.206 6538.513, 1881.833 6494.920, 1879.607 6482.500 C 1870.288 6430.506, 1828.268 6368.492, 1781.500 6337.713 C 1764.055 6326.232, 1745.139 6317.899, 1726.500 6313.485 C 1710.845 6309.777, 1698.669 6308.669, 1680.154 6309.267 C 1653.299 6310.134, 1634.161 6314.925, 1609.500 6326.953 C 1553.626 6354.206, 1510.261 6409.386, 1499.045 6467.502 C 1493.662 6495.397, 1495.645 6522.075, 1507.481 6581 C 1513.714 6612.036, 1514.609 6619.026, 1513.075 6624.723 C 1512.040 6628.566, 1511.341 6629.195, 1503.230 6633.588 C 1486.625 6642.582, 1483.528 6645.370, 1454.627 6677.333 C 1437.600 6696.166, 1433 6700.921, 1433 6699.691 C 1433 6699.351, 1438.364 6688.369, 1444.919 6675.287 C 1458.458 6648.267, 1464.391 6633.467, 1463.375 6629.246 C 1462.063 6623.798, 1457.882 6616.899, 1454.715 6614.956 C 1448.676 6611.252, 1431.331 6605.068, 1422.818 6603.583 C 1418.142 6602.768, 1401.308 6601.403, 1385.408 6600.549 C 1343.404 6598.295, 1317.673 6596.141, 1311.750 6594.384 C 1310.482 6594.008, 1310.012 6592.850, 1310.044 6590.183 C 1310.140 6582.111, 1313.631 6576.389, 1338.523 6543.500 C 1382.728 6485.093, 1439.697 6400.569, 1489.501 6319.500 C 1524.144 6263.109, 1552.801 6211.386, 1584.327 6148.352 C 1608.392 6100.236, 1610.403 6094.136, 1610.329 6069.500 C 1610.264 6047.815, 1605.463 6028.395, 1595.306 6008.729 C 1582.933 5984.772, 1564.988 5967.178, 1540.500 5954.993 C 1526.348 5947.951, 1514.664 5944.637, 1496.506 5942.517 C 1481.231 5940.734, 1476.442 5940.735, 1464.961 5942.525 M 5266.500 5953.988 C 5252.011 5956.324, 5233.335 5964.753, 5222.851 5973.686 C 5211.440 5983.411, 5199.890 5997.838, 5193.294 6010.609 C 5181.078 6034.259, 5173.934 6063.401, 5167.948 6114 C 5164.382 6144.136, 5160.841 6156.623, 5153.567 6164.714 C 5148.435 6170.422, 5142.251 6173.736, 5134.303 6175.038 C 5126.701 6176.283, 5081.427 6176.239, 5072.706 6174.978 C 5064.183 6173.746, 5059.216 6171.238, 5054.589 6165.833 L 5050.963 6161.597 5051.082 6110.549 C 5051.197 6061.036, 5050.768 6051.569, 5047.905 6040.500 C 5045.218 6030.112, 5038.848 6016.154, 5032.204 6006.090 C 5027.322 5998.697, 5014.155 5985.024, 5006.125 5979.011 C 4980.914 5960.130, 4947.189 5952.600, 4921 5960.003 C 4894.599 5967.466, 4865.343 5994.371, 4846.516 6028.500 C 4841.831 6036.993, 4835.279 6054.017, 4832.661 6064.500 C 4829.651 6076.552, 4828.496 6084.212, 4827.008 6102 C 4823.355 6145.669, 4821.568 6158.733, 4817.913 6168.504 C 4815.232 6175.668, 4810.262 6180.609, 4804.795 6181.543 C 4797.906 6182.721, 4778.679 6182.277, 4758.223 6180.468 C 4737.939 6178.674, 4726.388 6179.197, 4713.500 6182.492 C 4692.683 6187.814, 4676.833 6203.099, 4666.827 6227.500 L 4663.546 6235.500 4663.186 6256.196 C 4662.773 6279.961, 4663.450 6283.744, 4669.895 6293.716 C 4676.577 6304.054, 4686.236 6312.563, 4696.391 6317.055 C 4705.413 6321.045, 4719.938 6322.815, 4757.500 6324.499 C 4779.311 6325.477, 4798.330 6327.027, 4801.700 6328.102 C 4803.460 6328.663, 4806.261 6330.672, 4807.923 6332.566 C 4814.030 6339.520, 4815.604 6350.818, 4816.486 6394 C 4816.828 6410.775, 4817.550 6429.117, 4818.089 6434.760 C 4820.656 6461.611, 4829.747 6481.935, 4847.751 6501.073 C 4878.982 6534.272, 4917.086 6540.875, 4958.500 6520.265 C 4970.273 6514.406, 4981.949 6505.961, 4992.047 6496 C 5021.365 6467.080, 5035.233 6433.379, 5038.959 6382 C 5041.240 6350.531, 5042.084 6345.788, 5046.784 6338 C 5052.639 6328.299, 5066.629 6325.050, 5102.678 6325.018 C 5134.928 6324.990, 5144.375 6326.975, 5149.713 6334.901 C 5154.427 6341.899, 5155.647 6352.497, 5156.979 6398 C 5157.518 6416.425, 5158.441 6435.276, 5159.029 6439.890 C 5162.175 6464.588, 5177.734 6494.176, 5195.809 6509.835 C 5222.718 6533.146, 5256.955 6538.998, 5293.009 6526.449 C 5313.771 6519.222, 5327.586 6510.618, 5342.556 6495.593 C 5353.308 6484.801, 5357.863 6478.548, 5363.940 6466.242 C 5372.836 6448.227, 5377.029 6429.861, 5378.948 6400.500 C 5381.853 6356.046, 5382.918 6348.001, 5386.947 6340.104 C 5392.599 6329.025, 5399.723 6327.216, 5448.500 6324.469 C 5491.694 6322.037, 5507.595 6319.482, 5522.555 6312.570 C 5532.488 6307.981, 5540.408 6302.375, 5547.646 6294.812 C 5562.607 6279.178, 5566.500 6267.964, 5566.500 6240.500 C 5566.500 6226.354, 5566.110 6221.757, 5564.176 6213.119 C 5554.011 6167.720, 5526.279 6130.402, 5495.500 6120.705 C 5484.844 6117.348, 5467.518 6117.641, 5456.228 6121.369 C 5446.832 6124.472, 5434.139 6132.545, 5416.500 6146.638 C 5403.440 6157.072, 5392.148 6165, 5390.348 6165 C 5388.169 6165, 5386 6159.393, 5386 6153.758 C 5386 6150.820, 5387.550 6139.660, 5389.445 6128.958 C 5391.340 6118.256, 5393.640 6103.875, 5394.557 6097 C 5396.605 6081.643, 5396.881 6054.378, 5395.099 6043.500 C 5390.828 6017.425, 5380.576 5997.626, 5361.603 5978.813 C 5348.430 5965.750, 5331.097 5958.356, 5306 5955.094 C 5295.174 5953.687, 5272.334 5953.048, 5266.500 5953.988 M 7967 6050.003 C 7922.750 6051.941, 7831.494 6055.145, 7769 6056.955 C 7703.853 6058.842, 7599.294 6059.997, 7455 6060.424 C 7362.415 6060.698, 7307.641 6061.228, 7302.543 6061.900 C 7287.281 6063.912, 7271.848 6073.425, 7258.302 6089.172 C 7239.393 6111.153, 7232.225 6128.015, 7233.296 6148 C 7234.156 6164.042, 7239.787 6176.329, 7253.616 6192.340 C 7262.364 6202.468, 7270.813 6209.046, 7281.500 6214.049 L 7289.500 6217.793 7511 6218.460 C 7747.768 6219.173, 7898.840 6220.505, 7908.373 6221.963 C 7918.477 6223.508, 7922.100 6229.038, 7918.560 6237.510 C 7916.415 6242.643, 7890.564 6274.359, 7859.882 6309.500 C 7858.442 6311.150, 7849.476 6321.500, 7839.958 6332.500 C 7830.441 6343.500, 7820.819 6354.537, 7818.577 6357.028 C 7816.335 6359.518, 7811.575 6364.872, 7808 6368.925 C 7789.191 6390.251, 7768.692 6412.080, 7762.437 6417.444 C 7750.706 6427.504, 7750.089 6427.978, 7740.632 6434.200 C 7727.476 6442.856, 7718.367 6447.174, 7699.861 6453.529 C 7673.428 6462.605, 7660.137 6470.755, 7643.474 6488.103 C 7626.426 6505.852, 7617.220 6523.343, 7611.810 6548.266 C 7609.882 6557.145, 7609.588 6561.479, 7609.592 6581 C 7609.596 6600.411, 7609.966 6605.902, 7612.287 6621 C 7617.294 6653.553, 7617.884 6670.949, 7614.248 6678.806 C 7609.375 6689.339, 7596.442 6691.739, 7532.500 6693.977 C 7506.347 6694.892, 7475.552 6695.754, 7353.500 6698.991 C 7302.100 6700.354, 7229.674 6701.806, 7177 6702.529 C 7105.066 6703.517, 7090.842 6704.847, 7077.507 6711.835 C 7061.564 6720.190, 7049.409 6733.216, 7040.495 6751.500 C 7026.431 6780.348, 7025.815 6807.755, 7038.654 6833.420 C 7050.972 6858.044, 7073.392 6878.299, 7094.242 6883.641 C 7101.641 6885.536, 7111.225 6885.064, 7138.853 6881.444 C 7166.505 6877.820, 7193.302 6877.091, 7339 6875.993 C 7496.581 6874.806, 7591.485 6874.843, 7602.298 6876.095 C 7614.675 6877.529, 7620.472 6881.462, 7624.164 6890.934 C 7627.463 6899.399, 7627.878 6925.185, 7625.123 6950.500 C 7623.097 6969.116, 7621.203 6992.556, 7618.982 7026.500 C 7614.688 7092.118, 7604.699 7148.971, 7581.030 7242.500 C 7554.396 7347.748, 7538.088 7393, 7526.791 7393 C 7525.436 7393, 7516.175 7384.399, 7499.578 7367.724 C 7466.358 7334.349, 7455.015 7325.942, 7432.579 7318.067 C 7396.395 7305.366, 7361.275 7301.717, 7346.714 7309.146 C 7332.872 7316.208, 7321.205 7340.009, 7324.845 7353.760 C 7327.695 7364.525, 7333.405 7369.584, 7367.959 7391.954 C 7416.792 7423.569, 7435.634 7440.449, 7446.792 7462.580 C 7452.006 7472.922, 7453.245 7479.669, 7452.836 7495.500 C 7452.479 7509.290, 7452.417 7509.618, 7448.710 7517.411 C 7443.608 7528.133, 7437.851 7535.944, 7426.802 7547.133 C 7413.385 7560.720, 7394.847 7575.389, 7370.384 7591.777 C 7354.264 7602.576, 7343.738 7608.566, 7322.500 7619.026 C 7237.681 7660.802, 7114.961 7694.939, 7013.500 7704.980 C 6922.472 7713.988, 6792.973 7713.743, 6724.573 7704.434 C 6718.483 7703.605, 6688.075 7699.359, 6657 7694.998 C 6625.925 7690.638, 6582.500 7684.550, 6560.500 7681.469 C 6484.584 7670.840, 6446.339 7663.830, 6296 7632.992 C 6140.312 7601.057, 6077.293 7590.067, 5992.486 7580.061 C 5950.577 7575.117, 5926.734 7574.012, 5862 7574.013 C 5783.712 7574.014, 5752.295 7576.204, 5696.500 7585.549 C 5569.561 7606.811, 5477.736 7646.284, 5384 7719.884 C 5347.955 7748.186, 5330.267 7766.963, 5316.190 7791.866 C 5305.214 7811.283, 5295.734 7836.720, 5292.475 7855.500 C 5285.492 7895.736, 5294.071 7941.517, 5314.520 7973.140 C 5329.685 7996.591, 5347.047 8010.485, 5384.874 8029.438 C 5404.122 8039.082, 5415.712 8042.722, 5431.603 8044.114 C 5447.297 8045.489, 5481.770 8044.610, 5491.083 8042.597 C 5513.698 8037.709, 5556.634 8017.879, 5599.312 7992.611 C 5622.661 7978.787, 5630.988 7969.211, 5639.634 7946.240 C 5643.972 7934.716, 5641.940 7926.176, 5633.091 7918.730 C 5625.246 7912.129, 5619.979 7913.181, 5592.700 7926.796 C 5562.221 7942.008, 5549.692 7946.962, 5531.443 7951.017 C 5517.621 7954.088, 5498.969 7954.146, 5486.693 7951.156 C 5462.884 7945.356, 5443.630 7932.485, 5436.636 7917.692 C 5431.800 7907.466, 5430.772 7886.848, 5434.406 7872.985 C 5440.108 7851.237, 5450.927 7836.988, 5478.510 7814.898 C 5520.363 7781.381, 5559.031 7764.135, 5630.500 7747.111 C 5639.055 7745.073, 5666.013 7740.922, 5676 7740.104 C 5691.158 7738.863, 5769.022 7738.794, 5792.500 7740.001 C 5830.393 7741.950, 5859.868 7745.255, 5900.500 7752.113 C 5923.433 7755.984, 5963.918 7763.896, 5982 7768.040 C 5986.675 7769.111, 6009.400 7774.296, 6032.500 7779.561 C 6055.600 7784.827, 6082.150 7790.929, 6091.500 7793.122 C 6121.507 7800.159, 6142.048 7805.006, 6161 7809.523 C 6171.175 7811.948, 6193.900 7817.344, 6211.500 7821.513 C 6243.625 7829.123, 6261.179 7833.342, 6314 7846.149 C 6370.931 7859.953, 6389.322 7864.443, 6434.668 7875.606 C 6564.458 7907.558, 6590.324 7913.028, 6646.500 7920.404 C 6694.928 7926.763, 6812.356 7935.673, 6879.500 7938.083 C 6948.056 7940.543, 7015.354 7936.449, 7087 7925.459 C 7232.271 7903.175, 7355.878 7862.734, 7462 7802.771 C 7567.789 7742.995, 7637.171 7682.474, 7700.190 7595 C 7761.105 7510.446, 7796.724 7428.942, 7828.893 7300.500 C 7855.254 7195.244, 7860.575 7145.591, 7862.539 6986.500 C 7863.312 6923.919, 7864.379 6899.049, 7866.562 6892.714 C 7868.905 6885.920, 7876.785 6877.569, 7882.236 6876.105 C 7887.851 6874.597, 7952.559 6873.313, 8089.500 6871.993 C 8221.498 6870.721, 8238.615 6870.019, 8273.719 6864.442 C 8307.794 6859.028, 8329.494 6853.324, 8344 6845.967 C 8353.028 6841.388, 8356.667 6838.754, 8364.357 6831.230 C 8393.039 6803.169, 8402.807 6755.610, 8389.410 6709.264 C 8378.278 6670.757, 8347.476 6639.375, 8310.482 6628.850 C 8300.170 6625.917, 8281.897 6625.694, 8272 6628.381 C 8256.137 6632.688, 8240.878 6642.675, 8222.500 6660.778 C 8208.029 6675.032, 8201.704 6680.117, 8192.977 6684.512 C 8181.797 6690.142, 8176.900 6690.982, 8148.500 6692.143 C 8117.114 6693.427, 7911.766 6692.514, 7889.874 6690.994 C 7874.634 6689.936, 7867.123 6688.326, 7863.925 6685.432 C 7859.615 6681.531, 7852.779 6658.443, 7845.885 6624.500 C 7843.054 6610.565, 7842.626 6606.435, 7842.567 6592.500 C 7842.501 6576.832, 7842.558 6576.389, 7845.311 6571.162 C 7851.023 6560.317, 7852.968 6558.893, 7922 6515.029 C 8064.687 6424.363, 8125.108 6377.516, 8177.427 6316.985 C 8210.775 6278.403, 8228.287 6241.919, 8232.016 6203.254 C 8235.768 6164.351, 8222.540 6132.513, 8187.500 6096.109 C 8163.556 6071.234, 8148.159 6063.513, 8108.500 6056.496 C 8077.290 6050.974, 8063.072 6049.809, 8023 6049.491 C 8002.375 6049.327, 7977.175 6049.557, 7967 6050.003 M 2155 6059.061 C 2140.975 6059.429, 2122.300 6060.239, 2113.500 6060.861 C 2104.390 6061.504, 2043.889 6062.430, 1973 6063.010 C 1904.525 6063.570, 1844.739 6064.446, 1840.142 6064.957 C 1829.743 6066.113, 1815.419 6070.689, 1803.020 6076.816 C 1778.486 6088.938, 1759.122 6109.742, 1750.745 6132.978 C 1747.835 6141.047, 1747.073 6165.280, 1749.468 6173.585 C 1756.750 6198.842, 1770.454 6216.403, 1790.293 6225.901 L 1800.567 6230.820 1860.034 6230.903 C 2019.503 6231.128, 2186.410 6232.638, 2208.500 6234.056 C 2233.968 6235.690, 2238.474 6237.221, 2247.113 6247.174 C 2257.911 6259.614, 2259.357 6264.360, 2261.081 6293 C 2262.644 6318.970, 2262.722 6470.922, 2261.188 6502 C 2249.228 6744.276, 2205.882 7096.167, 2173.384 7214.809 C 2162.848 7253.272, 2131.090 7341.078, 2117.228 7370.070 C 2111.455 7382.143, 2103.525 7392.460, 2088.010 7408.083 C 2074.393 7421.795, 2069.241 7424.516, 2057 7424.463 C 2043.194 7424.402, 2027.980 7418.482, 2023.314 7411.354 C 2020.649 7407.283, 2020.930 7390.857, 2023.911 7376.500 C 2027.189 7360.708, 2027.095 7346.214, 2023.644 7335.500 C 2017.394 7316.100, 1997.476 7294.935, 1977 7285.938 C 1972.139 7283.801, 1970.048 7283.522, 1959 7283.531 C 1947.391 7283.541, 1945.959 7283.759, 1938.917 7286.599 C 1922.592 7293.181, 1902.461 7309.562, 1892.338 7324.500 C 1882.999 7338.280, 1876.239 7355.463, 1873.436 7372.543 C 1871.059 7387.031, 1871.948 7412.649, 1875.328 7427.048 C 1884.048 7464.195, 1898.835 7486.171, 1929.453 7507.483 C 1939.055 7514.166, 1939.421 7514.393, 1954.669 7523.139 C 2001.247 7549.855, 2040.306 7559.967, 2097.026 7559.991 C 2140.590 7560.011, 2161.710 7553.950, 2225.108 7523.234 C 2256.721 7507.918, 2266.231 7501.499, 2286.884 7481.537 C 2310.569 7458.643, 2327.027 7434.719, 2351.267 7387.948 C 2371.743 7348.438, 2389.962 7305.965, 2403.147 7267 C 2430.407 7186.438, 2444.907 7108.663, 2471.010 6903 C 2484.880 6793.718, 2487.561 6769.046, 2491.497 6714.500 C 2493.824 6682.253, 2498.412 6624.638, 2499.501 6614 C 2499.755 6611.525, 2501.088 6596.225, 2502.465 6580 C 2511.113 6478.098, 2514.018 6407.471, 2514.248 6293.500 C 2514.383 6226.662, 2513.861 6214.392, 2509.923 6192 C 2496.642 6116.472, 2462.524 6074.401, 2404.841 6062.421 C 2393.260 6060.015, 2389.851 6059.803, 2349.500 6058.968 C 2301.658 6057.979, 2194.299 6058.030, 2155 6059.061 M 4268.199 6148.445 C 4238.777 6154.013, 4211.259 6185.180, 4201.488 6224 C 4198.102 6237.451, 4195.613 6262.342, 4189.486 6344 C 4185.768 6393.553, 4175.963 6518.591, 4172.507 6560.500 C 4167.284 6623.865, 4165.722 6644.607, 4163.022 6686.500 C 4161.238 6714.185, 4160.009 6734.750, 4154.507 6829 C 4151.561 6879.466, 4148.602 6933.886, 4145.863 6988 C 4145.209 7000.925, 4144.634 7028.375, 4144.587 7049 C 4144.492 7090.069, 4145.257 7098.730, 4150.988 7121.500 C 4163.946 7172.974, 4195.151 7211.437, 4232.701 7222.218 C 4241.978 7224.882, 4260.998 7225.348, 4270 7223.132 C 4278.913 7220.938, 4292.937 7213.782, 4301.135 7207.246 C 4310.492 7199.786, 4317.749 7191.452, 4329.650 7174.500 C 4339.697 7160.189, 4347.708 7151.260, 4353.029 7148.441 C 4355.168 7147.308, 4358.610 7146.597, 4362 7146.589 C 4372.339 7146.562, 4384.543 7154.002, 4403.338 7171.791 C 4428.214 7195.334, 4444.016 7203.654, 4467.500 7205.573 C 4478.066 7206.437, 4492.736 7204.565, 4500.938 7201.306 C 4511.140 7197.252, 4517.662 7192.609, 4528.573 7181.633 C 4562.739 7147.264, 4588.909 7092.792, 4601.423 7030 C 4608.167 6996.158, 4610.880 6966.059, 4617.510 6851.500 C 4624.007 6739.242, 4629.122 6653.010, 4633.494 6582 C 4634.290 6569.075, 4635.633 6547.025, 4636.480 6533 C 4640.687 6463.301, 4641.270 6454.214, 4643.724 6420 C 4646.893 6375.808, 4645.698 6302.511, 4641.351 6274.500 C 4638.250 6254.522, 4627.781 6228.518, 4614.981 6209 C 4607.467 6197.542, 4590.760 6180.491, 4579.985 6173.283 C 4555.061 6156.611, 4532.351 6150.271, 4501.500 6151.371 C 4467.627 6152.580, 4441.433 6161.469, 4416.484 6180.220 C 4394.681 6196.608, 4389.600 6199.380, 4382.455 6198.788 C 4375.954 6198.249, 4367.883 6193.391, 4349.500 6178.954 C 4332.686 6165.748, 4323.422 6159.527, 4314.286 6155.306 C 4299.469 6148.460, 4281.921 6145.847, 4268.199 6148.445 M 6357.290 6160.634 C 6351.372 6163.684, 6336.466 6175.292, 6226.603 6262.404 C 6199.680 6283.752, 6184.602 6297.693, 6185.180 6300.704 C 6185.502 6302.379, 6188.149 6302.553, 6224.513 6303.293 C 6271.559 6304.251, 6514.854 6303.417, 6520.500 6302.279 C 6525.125 6301.347, 6526.059 6298.949, 6523.627 6294.246 C 6521.868 6290.843, 6503.359 6273.213, 6463.973 6237.423 C 6409.892 6188.280, 6380.862 6163.050, 6374.790 6159.915 C 6369.555 6157.213, 6363.443 6157.464, 6357.290 6160.634 M 3549.500 6220.072 C 3499.047 6220.948, 3447.809 6222.692, 3433.041 6224.037 C 3420.573 6225.172, 3418.445 6226.421, 3421.629 6230.739 C 3422.748 6232.258, 3432.177 6240.603, 3442.582 6249.284 C 3465.014 6268.001, 3476.815 6279.434, 3485.639 6291 C 3493.981 6301.934, 3503.221 6320.595, 3506.682 6333.500 C 3509.121 6342.591, 3509.366 6345.136, 3509.371 6361.500 C 3509.377 6378.095, 3509.128 6380.615, 3506.189 6393.785 C 3502.474 6410.427, 3502.221 6414.985, 3504.876 6417.388 C 3507.303 6419.584, 3521.236 6420.781, 3554.500 6421.651 C 3592.994 6422.658, 3602.675 6420.613, 3614 6409.082 C 3621.468 6401.478, 3626.085 6393.162, 3639.304 6363.500 C 3661.557 6313.568, 3675.106 6288.815, 3696.506 6259 C 3711.993 6237.422, 3714.370 6231.829, 3710.439 6226.217 C 3707.222 6221.623, 3703.557 6220.713, 3685 6219.898 C 3664.048 6218.977, 3608.461 6219.049, 3549.500 6220.072 M 4401.170 6302.008 C 4394.464 6303.563, 4384.922 6313.754, 4381.649 6322.856 C 4378.982 6330.274, 4378.193 6341.747, 4377.033 6390 C 4375.563 6451.137, 4370.521 6560.376, 4367.548 6595.500 C 4367.009 6601.864, 4366.837 6604.527, 4364.474 6643 C 4363.646 6656.475, 4362.084 6680.775, 4361.003 6697 C 4346.763 6910.710, 4345.818 6927.243, 4345.695 6965 C 4345.601 6993.817, 4345.777 6997.349, 4347.761 7006.470 C 4350.147 7017.437, 4353.282 7023.092, 4358.741 7026.281 C 4363.570 7029.101, 4374.852 7030.351, 4384.166 7029.097 C 4396.217 7027.475, 4401.453 7024.122, 4405.964 7015.139 C 4410.543 7006.020, 4411.559 6996.658, 4415.476 6927.500 C 4420.388 6840.767, 4421.077 6829.089, 4423.064 6799 C 4424.172 6782.225, 4425.930 6760.175, 4426.972 6750 C 4428.014 6739.825, 4429.131 6727.900, 4429.454 6723.500 C 4430.192 6713.442, 4432.690 6654.021, 4433.488 6627.500 C 4434.761 6585.243, 4437.072 6527.387, 4438.521 6501.500 C 4441.015 6456.951, 4442.614 6439.317, 4449.039 6385.500 C 4453.416 6348.840, 4449.416 6333.148, 4431.046 6314.919 C 4420.383 6304.337, 4410.166 6299.922, 4401.170 6302.008 M 6576 6485.592 C 6573.525 6485.802, 6568.350 6486.418, 6564.500 6486.961 C 6560.650 6487.503, 6555.700 6488.177, 6553.500 6488.459 C 6543.786 6489.702, 6491.628 6491.095, 6404 6492.451 C 6235.316 6495.062, 6213.962 6496.142, 6146 6505.496 C 6088.762 6513.375, 6081.297 6512.920, 6049.939 6499.641 C 6027.880 6490.299, 6016.918 6487.651, 6000.500 6487.699 C 5990.489 6487.728, 5985.661 6488.227, 5979.500 6489.870 C 5968.929 6492.688, 5953.627 6500.236, 5942.500 6508.122 C 5930.218 6516.826, 5909.822 6537.311, 5902.795 6548 C 5886.357 6573.006, 5877.191 6600.777, 5872.926 6638.500 C 5872.295 6644.078, 5871.569 6673.134, 5871.285 6704.204 C 5870.610 6777.884, 5871.659 6791.466, 5879.677 6812.929 C 5892.084 6846.139, 5909.172 6867.413, 5932.476 6878.660 C 5950.262 6887.244, 5960.560 6887.642, 6020.500 6882.057 C 6078.021 6876.697, 6089.649 6876.445, 6347 6874.989 C 6533.448 6873.933, 6580.941 6873.383, 6611 6871.929 C 6636.578 6870.692, 6645.430 6869.614, 6660.193 6865.937 C 6684.764 6859.819, 6697.790 6853.051, 6712.862 6838.572 C 6734.721 6817.574, 6746.025 6792.833, 6755.615 6745 C 6760.994 6718.168, 6762.864 6702.749, 6764.040 6675.500 C 6765.318 6645.903, 6764.162 6617.068, 6761.054 6600.993 C 6755.357 6571.537, 6742.922 6546.811, 6724.912 6529.131 C 6713.192 6517.625, 6700.915 6510.147, 6677.322 6500.144 C 6648.812 6488.056, 6638.723 6486.048, 6604 6485.547 C 6591.075 6485.361, 6578.475 6485.381, 6576 6485.592 M 5049 6525.617 C 5047.625 6525.879, 5042.522 6526.754, 5037.660 6527.562 C 5017.746 6530.871, 4990.468 6542.211, 4970.386 6555.527 C 4965.499 6558.768, 4954.196 6566.924, 4945.268 6573.652 C 4927.025 6587.401, 4915.794 6593.529, 4905.662 6595.265 C 4895.958 6596.927, 4886.836 6594.830, 4870.115 6587.091 C 4842.234 6574.187, 4821.727 6572.027, 4799.063 6579.605 C 4790.045 6582.620, 4766.254 6594.436, 4753 6602.482 C 4726.581 6618.519, 4704.531 6639.475, 4689.532 6662.801 C 4661.977 6705.652, 4647.497 6776.521, 4649.342 6859.500 C 4650.030 6890.424, 4651.117 6905.689, 4654.541 6932.548 C 4659.150 6968.693, 4659.831 6994.975, 4656.883 7023 C 4655.147 7039.514, 4650.832 7058.626, 4638.129 7106.067 C 4618.782 7178.322, 4611.797 7214.105, 4610.377 7248.242 C 4607.642 7313.958, 4636.531 7389.586, 4682.428 7436.867 C 4708.766 7463.999, 4734 7478.592, 4765.898 7485.138 C 4779.995 7488.032, 4810.484 7488.771, 4827 7486.621 C 4842.984 7484.540, 4866.542 7478.941, 4895 7470.460 C 4952.163 7453.424, 4964.571 7451.041, 5000 7450.292 C 5047.187 7449.294, 5059.020 7451.449, 5103.224 7469.097 C 5131.928 7480.556, 5149.334 7485.461, 5178.974 7490.442 C 5233.161 7499.550, 5283.061 7494.098, 5324.500 7474.542 C 5367.025 7454.474, 5399.305 7420.881, 5423.514 7371.500 C 5450.859 7315.722, 5462.643 7257.897, 5459.211 7196.334 C 5458.573 7184.875, 5457.319 7170.325, 5456.425 7164 C 5454.149 7147.884, 5454.157 7119.903, 5456.443 7104.500 C 5459.968 7080.756, 5467.430 7059.674, 5482.849 7029.905 C 5506.198 6984.825, 5516.188 6953.245, 5521.448 6907.888 C 5523.889 6886.835, 5525.307 6848.381, 5524.650 6821 C 5523.978 6792.927, 5523.078 6782.566, 5519.455 6761.154 C 5509.974 6705.119, 5484.875 6643.536, 5455.349 6603.862 C 5431.836 6572.268, 5411.782 6561.902, 5376.785 6563.248 C 5359.295 6563.920, 5343.722 6567.424, 5273.500 6586.482 C 5224.451 6599.794, 5211.913 6602.477, 5202.059 6601.772 C 5189.964 6600.907, 5182.560 6594.765, 5173.627 6578.187 C 5165.431 6562.976, 5155.896 6555.107, 5129.738 6541.965 C 5107.344 6530.714, 5089.246 6526.107, 5065 6525.486 C 5057.575 6525.296, 5050.375 6525.355, 5049 6525.617 M 3281 6597.167 C 3271.642 6598.343, 3254.577 6603.964, 3246 6608.695 C 3219.869 6623.108, 3196.947 6646.389, 3183.532 6672.139 C 3168.531 6700.933, 3163.900 6728.126, 3149.490 6872 C 3141.192 6954.846, 3139.894 6980.756, 3141.877 7024 C 3143.175 7052.309, 3144.631 7062.034, 3149.981 7078.121 C 3162.887 7116.933, 3184.383 7138.636, 3221.500 7150.330 C 3224.250 7151.196, 3231.900 7153.038, 3238.500 7154.423 C 3256.366 7158.172, 3260.625 7159.719, 3264.317 7163.797 C 3266.687 7166.417, 3266.061 7169.854, 3260.273 7186 C 3251.427 7210.675, 3230.825 7254.449, 3217.335 7277.230 C 3174.337 7349.847, 3106.440 7423.682, 3029.413 7481.590 C 2905.634 7574.644, 2756.073 7625.571, 2557 7642.450 C 2513.383 7646.149, 2474.108 7647.987, 2385 7650.500 C 2314.592 7652.486, 2281.354 7654.366, 2261.500 7657.489 C 2215.077 7664.789, 2187.563 7670.887, 2143.500 7683.639 C 2068.743 7705.275, 2021.956 7727.147, 1974.500 7762.643 C 1923.845 7800.532, 1876.488 7856.972, 1851.620 7909.092 C 1837.200 7939.315, 1830.988 7963.229, 1831.013 7988.426 C 1831.035 8010.305, 1836.179 8027.937, 1847.546 8045.095 C 1854.015 8054.861, 1865.251 8066.006, 1871 8068.362 C 1873.475 8069.376, 1876.281 8070.609, 1877.236 8071.103 C 1880.019 8072.541, 1882.124 8072.175, 1887.915 8069.250 C 1891.540 8067.418, 1894.789 8064.677, 1897.644 8061.043 C 1905.300 8051.295, 1906.965 8047.101, 1921.688 8000.500 C 1946.321 7922.532, 1992.302 7864.708, 2064 7821.538 C 2126.146 7784.118, 2201.108 7760.510, 2275.500 7754.929 C 2295.415 7753.435, 2401.705 7752.195, 2519.500 7752.083 C 2716.982 7751.896, 2772.290 7748.332, 2862.500 7729.982 C 2977.623 7706.564, 3051.095 7680.242, 3132.500 7633.249 C 3203.399 7592.321, 3260.015 7549.894, 3309.608 7500.526 C 3376.879 7433.559, 3420.649 7363.888, 3458.830 7263 C 3481.880 7202.092, 3495.234 7171.534, 3503.754 7160.202 C 3514.779 7145.537, 3530.560 7141.862, 3543.936 7150.846 C 3550.495 7155.251, 3551.986 7158.242, 3551.993 7167.016 C 3551.997 7171.150, 3550.412 7185.325, 3548.471 7198.516 C 3540.375 7253.532, 3539.086 7263.760, 3536.500 7293.500 C 3531.461 7351.431, 3532.720 7409.833, 3539.668 7440.500 C 3562.929 7543.176, 3631.444 7600.706, 3741.500 7609.969 C 3757.046 7611.278, 3799.595 7611.277, 3817.500 7609.968 C 3861.099 7606.781, 3904.866 7599.438, 3931 7590.925 C 3980.181 7574.906, 4026.305 7539.640, 4063.429 7489.670 C 4081.467 7465.392, 4090.121 7449.471, 4097.420 7427.139 C 4104.946 7404.110, 4105.256 7401.939, 4105.284 7372 C 4105.312 7342.199, 4104.126 7331.974, 4098.846 7316.500 C 4081.845 7266.673, 4053.928 7234.839, 4018.527 7224.913 C 4009.253 7222.313, 3991.927 7221.410, 3980.500 7222.932 C 3943.481 7227.861, 3903.699 7258.187, 3892.203 7290.238 C 3889.836 7296.838, 3889.599 7298.868, 3889.597 7312.500 C 3889.596 7325.245, 3889.937 7328.627, 3891.871 7335 C 3895.777 7347.871, 3902.932 7358.158, 3924.909 7382.500 C 3929.379 7387.450, 3934.706 7393.905, 3936.748 7396.844 C 3945.626 7409.620, 3939.037 7418.279, 3908.331 7434.185 C 3890.457 7443.443, 3881.186 7446.674, 3867.129 7448.546 C 3821.004 7454.686, 3785.327 7441.805, 3765.375 7411.808 C 3752.260 7392.091, 3747.710 7373.346, 3747.796 7339.394 C 3747.875 7308.057, 3749.564 7290.691, 3762.425 7189 L 3764.891 7169.500 3770.470 7164.271 C 3777.882 7157.323, 3781.863 7156.299, 3804.500 7155.517 C 3834.224 7154.489, 3843.696 7152.741, 3858.804 7145.496 C 3877.936 7136.321, 3893.762 7120.410, 3912.512 7091.500 C 3935.189 7056.537, 3945.240 7031.915, 3950.951 6997.343 C 3955.712 6968.523, 3964.613 6872.196, 3965.074 6844.500 C 3965.157 6839.550, 3964.734 6826.050, 3964.134 6814.500 C 3963.534 6802.950, 3962.579 6775.950, 3962.010 6754.500 C 3961.413 6731.997, 3960.401 6711.859, 3959.618 6706.893 C 3957.046 6690.595, 3949.170 6670.871, 3939.824 6657.324 C 3932.710 6647.011, 3919.821 6634.277, 3910.825 6628.672 C 3898.544 6621.021, 3865.709 6609.189, 3844 6604.592 C 3823.299 6600.209, 3755.890 6598.604, 3622.500 6599.317 C 3495.022 6599.998, 3456.022 6601.395, 3436.500 6605.975 C 3428.254 6607.910, 3414.563 6613.334, 3407.462 6617.479 C 3399.398 6622.186, 3391.286 6624.178, 3379.501 6624.344 C 3363.265 6624.574, 3361.311 6624.012, 3343.455 6613.975 C 3316.546 6598.849, 3300.965 6594.656, 3281 6597.167 M 4987.341 6625.030 C 4980.025 6626.345, 4972.768 6629.401, 4965.116 6634.390 C 4947.061 6646.161, 4941.996 6656.262, 4926.546 6711.299 L 4919.923 6734.893 4920.971 6751.697 C 4923.349 6789.824, 4924.667 6797.610, 4930.927 6810.500 C 4938.309 6825.699, 4948.760 6835.946, 4966 6844.891 C 4996.256 6860.589, 5017.281 6859.076, 5037.639 6839.738 C 5059.932 6818.562, 5072.446 6791.140, 5076.056 6755.559 C 5077.728 6739.078, 5076.738 6708.604, 5074.114 6695.791 C 5067.746 6664.693, 5053.852 6643.728, 5031.832 6631.991 C 5020.758 6626.089, 4999.746 6622.801, 4987.341 6625.030 M 6192 6631.064 C 6161.475 6631.465, 6133.545 6632.084, 6129.934 6632.439 C 6113.435 6634.062, 6104.954 6639.272, 6099.547 6651.106 C 6095.274 6660.458, 6094.780 6666.011, 6095.244 6699.480 C 6095.608 6725.808, 6095.938 6731.214, 6097.421 6735.220 C 6099.754 6741.524, 6104.510 6745.558, 6111.190 6746.899 C 6138.258 6752.331, 6285.432 6750.508, 6427.500 6742.980 C 6505.652 6738.840, 6513.746 6737.412, 6522.143 6726.293 C 6530.140 6715.701, 6532.902 6707.011, 6533.676 6690 C 6534.963 6661.712, 6528.940 6641.151, 6517.383 6634.378 L 6512.982 6631.799 6468.241 6630.948 C 6416.100 6629.955, 6271.798 6630.015, 6192 6631.064 M 5215.892 6642.449 C 5189.731 6649.664, 5161.375 6690.486, 5147.014 6741.607 C 5138.194 6773.008, 5137.620 6800.915, 5145.330 6823.519 C 5158.971 6863.513, 5191.598 6879.240, 5229.468 6864.077 C 5264.661 6849.985, 5291.374 6812.079, 5299.422 6764.815 C 5301.476 6752.750, 5301.577 6732.923, 5299.634 6723 C 5294.472 6696.628, 5272.579 6659.844, 5254.820 6647.703 C 5251.894 6645.702, 5246.818 6643.376, 5243.540 6642.533 C 5236.454 6640.710, 5222.353 6640.668, 5215.892 6642.449 M 3526.500 6725.073 C 3481.709 6727.556, 3418.311 6733.694, 3403.287 6737.002 C 3388.943 6740.160, 3383.977 6751.326, 3383.946 6780.492 C 3383.923 6802.426, 3386.523 6807.347, 3399.135 6809.233 C 3416.406 6811.816, 3655.959 6810.067, 3700 6807.036 C 3718.158 6805.787, 3725.155 6804.175, 3729.228 6800.304 C 3734.293 6795.491, 3735.001 6793.096, 3734.992 6780.800 C 3734.980 6761.602, 3732.304 6751.054, 3725.699 6744.162 C 3719.573 6737.771, 3711.720 6735.152, 3691 6732.592 C 3634.363 6725.593, 3570.098 6722.655, 3526.500 6725.073 M 4781.561 6768.603 C 4763.192 6773.046, 4743.491 6792.485, 4730.991 6818.500 C 4724.509 6831.990, 4721.826 6840.237, 4719.432 6854.031 C 4714.742 6881.047, 4725.954 6913.155, 4748.287 6936.665 C 4774.609 6964.375, 4802.864 6969.954, 4834.500 6953.687 C 4846.548 6947.492, 4858.088 6935.590, 4864.253 6923 C 4871.865 6907.454, 4873.457 6899.745, 4873.442 6878.500 C 4873.431 6862.335, 4873.157 6859.413, 4870.754 6849.833 C 4860.408 6808.583, 4831.755 6774.856, 4801.547 6768.369 C 4793.923 6766.732, 4789.063 6766.789, 4781.561 6768.603 M 5353.203 6833.495 C 5339.262 6837.412, 5323.156 6847.048, 5310.596 6858.987 C 5293.510 6875.227, 5282.255 6895.018, 5277.471 6917.236 C 5275.094 6928.277, 5275.789 6974.712, 5278.455 6983 C 5284.954 7003.198, 5299.097 7018.609, 5317.486 7025.531 C 5329.958 7030.226, 5358.934 7031.290, 5371.623 7027.520 C 5381.992 7024.439, 5397.479 7012.137, 5407.752 6998.821 C 5417.525 6986.154, 5427.170 6966.236, 5431.150 6950.500 C 5434.067 6938.964, 5434.858 6909.151, 5432.591 6896.132 C 5427.808 6868.665, 5407.609 6843.509, 5383.428 6834.906 C 5375.615 6832.126, 5360.574 6831.424, 5353.203 6833.495 M 5047.500 6920.994 C 5017.289 6925.491, 4992.439 6940.666, 4946 6982.976 C 4912.565 7013.439, 4849.841 7060.718, 4816 7080.965 C 4779.380 7102.875, 4756.921 7129.975, 4744.574 7167.148 C 4740.269 7180.111, 4738.450 7189.114, 4736.929 7205 C 4735.616 7218.706, 4736.221 7249.498, 4738.045 7261.845 C 4741.913 7288.024, 4751.365 7305.310, 4768.496 7317.534 C 4781.192 7326.594, 4805.722 7336.574, 4826.686 7341.210 C 4834.474 7342.932, 4839.803 7343.383, 4852.500 7343.394 C 4874.605 7343.414, 4882.358 7341.404, 4912 7327.971 C 4937.905 7316.233, 4953.656 7310.983, 4977.771 7306.053 C 5014.665 7298.509, 5041.156 7300.370, 5072 7312.671 C 5087.293 7318.770, 5098.937 7324.679, 5123.245 7338.678 C 5164.916 7362.675, 5173.495 7365.041, 5206.535 7361.650 C 5225.340 7359.719, 5235.546 7357.643, 5244.509 7353.923 C 5286.473 7336.507, 5307.113 7298.840, 5304.693 7244.093 C 5303.585 7219.042, 5298.466 7197.482, 5288.106 7174.244 C 5268.977 7131.333, 5169.556 6977.249, 5146.854 6955.331 C 5132.859 6941.818, 5108.554 6927.084, 5094.500 6923.592 C 5082.111 6920.513, 5059.226 6919.248, 5047.500 6920.994 M 3606.500 6925.073 C 3595.500 6925.492, 3565.800 6926.552, 3540.500 6927.430 C 3422.929 6931.511, 3397.176 6933.008, 3389.766 6936.196 C 3380.509 6940.178, 3375.198 6949.151, 3373.079 6964.390 C 3371.691 6974.364, 3371.543 7002.714, 3372.860 7006.152 C 3374.046 7009.247, 3379.003 7013.268, 3384.427 7015.534 C 3390.137 7017.920, 3446.293 7018.458, 3548.500 7017.108 C 3639.389 7015.908, 3652.410 7015.325, 3675 7011.449 C 3705.033 7006.296, 3712.518 7002.177, 3719.880 6986.751 C 3725.098 6975.817, 3726.466 6969.037, 3726.484 6954 C 3726.498 6941.887, 3726.271 6940.089, 3724.273 6936.500 C 3719.875 6928.603, 3716.965 6926.687, 3706.883 6925.051 C 3699.666 6923.880, 3637.488 6923.893, 3606.500 6925.073 M 5849.757 6931.034 C 5836.316 6933.296, 5814.322 6943.376, 5801 6953.378 C 5789.135 6962.286, 5771.832 6980.513, 5763.854 6992.508 C 5746.736 7018.245, 5738.815 7043.821, 5737.532 7077.500 C 5735.935 7119.410, 5734.909 7142.231, 5732.496 7189.500 C 5728.809 7261.696, 5726.770 7285.732, 5723.559 7294.832 C 5718.898 7308.044, 5710.447 7310.979, 5671.452 7312.934 C 5625.964 7315.215, 5618.848 7316.563, 5604.863 7325.549 C 5588.839 7335.845, 5572.981 7357.284, 5568.284 7375 C 5567.029 7379.738, 5566.553 7385.567, 5566.531 7396.500 C 5566.504 7409.617, 5566.789 7412.338, 5568.806 7418.173 C 5573.813 7432.662, 5584.458 7443.615, 5603.077 7453.432 L 5611.842 7458.053 5691.171 7458.669 C 5766.159 7459.250, 5938.654 7458.161, 6114.500 7455.995 C 6157.950 7455.460, 6231.750 7454.577, 6278.500 7454.033 C 6325.250 7453.489, 6384.200 7452.796, 6409.500 7452.492 C 6464.104 7451.838, 6629.729 7450.305, 6733.500 7449.493 C 6832.179 7448.721, 6914.557 7447.192, 6925 7445.938 C 6941.604 7443.946, 6960.330 7438.345, 6971.878 7431.917 C 6990.622 7421.485, 7002.773 7407.454, 7008.178 7390 C 7011.399 7379.598, 7011.393 7357.981, 7008.166 7344.242 C 7003.391 7323.910, 6994.916 7305.270, 6984.642 7292.500 C 6973.716 7278.920, 6962.460 7272.313, 6946.250 7269.965 C 6928.991 7267.465, 6917.677 7270.965, 6875.457 7291.861 C 6861.133 7298.950, 6847.941 7305.074, 6846.141 7305.469 C 6839.169 7307, 6834 7302.105, 6834 7293.972 C 6834 7291.701, 6836.499 7273.116, 6839.554 7252.672 C 6842.608 7232.227, 6846.452 7206.500, 6848.095 7195.500 C 6859.968 7116.033, 6859.812 7081.893, 6847.407 7044.428 C 6833.643 7002.858, 6807.186 6971.181, 6771.076 6953.036 C 6748.276 6941.579, 6720.305 6936.207, 6660.500 6931.799 C 6635.123 6929.928, 6562.445 6930.213, 6530 6932.310 C 6493.960 6934.640, 6434.990 6935.793, 6317.500 6936.464 C 6169.145 6937.312, 6093.640 6939.088, 6058 6942.569 C 6042.253 6944.106, 6014.645 6947.767, 5983 6952.514 C 5961.874 6955.682, 5947.761 6956.080, 5940 6953.724 C 5936.975 6952.806, 5929.100 6948.886, 5922.500 6945.012 C 5908.826 6936.986, 5898.165 6932.557, 5888.903 6931.054 C 5881.556 6929.862, 5856.794 6929.849, 5849.757 6931.034 M 1623.500 6944.414 C 1602.463 6949.316, 1582.481 6966.178, 1571.257 6988.500 C 1567.354 6996.261, 1563.062 7009.779, 1558.553 7028.509 C 1551.112 7059.419, 1545.285 7075.641, 1528.740 7111.500 C 1506.291 7160.156, 1502.978 7171.808, 1500.024 7212.500 C 1497.023 7253.853, 1500.765 7280.998, 1512.914 7306 C 1518.640 7317.783, 1523.686 7324.826, 1533.032 7334.080 C 1540.161 7341.140, 1543.363 7343.476, 1551.098 7347.261 C 1569.118 7356.079, 1589.408 7357.889, 1610.500 7352.560 C 1627.671 7348.221, 1630.001 7346.964, 1677 7316.699 C 1783.599 7248.052, 1794.790 7240.348, 1809.500 7225.475 C 1835.077 7199.616, 1847 7171.485, 1847 7137 C 1847 7103.673, 1837.296 7081.902, 1811.338 7056.986 C 1777.623 7024.626, 1694.384 6957.040, 1678.433 6949.074 C 1671.529 6945.625, 1661.601 6943.962, 1645 6943.473 C 1633.832 6943.143, 1627.823 6943.406, 1623.500 6944.414 M 6020.435 7063.979 C 6007.708 7066.652, 5988.919 7076.329, 5979.751 7084.933 C 5967.694 7096.247, 5963.067 7107.686, 5960.032 7133.683 C 5956.212 7166.399, 5951.797 7222.114, 5949.983 7260.500 C 5948.642 7288.879, 5949.534 7298.656, 5954.248 7307.246 C 5959.597 7316.993, 5960.077 7317.194, 5980.424 7318.190 C 5990.049 7318.660, 6006.110 7318.923, 6016.115 7318.773 L 6034.305 7318.500 6037.585 7313.739 C 6043.572 7305.048, 6044.726 7300.229, 6046.409 7276.891 C 6047.792 7257.717, 6048.560 7243.696, 6051.966 7175.500 C 6052.488 7165.050, 6053.683 7141.130, 6054.621 7122.345 L 6056.327 7088.190 6053.653 7082.724 C 6046.534 7068.173, 6034.038 7061.122, 6020.435 7063.979 M 6302.500 7067.041 C 6288.322 7069.603, 6265.890 7075.505, 6261.160 7077.918 C 6252.807 7082.180, 6249.190 7088.142, 6245.948 7102.993 C 6240.501 7127.952, 6229.721 7239.261, 6229.580 7272 C 6229.486 7293.820, 6230.285 7297.548, 6236.359 7303.622 C 6242.746 7310.009, 6247.793 7311.200, 6270.805 7311.751 C 6292.079 7312.261, 6303.909 7311.106, 6310.743 7307.850 C 6322.042 7302.467, 6324.133 7293.212, 6336.472 7194.002 C 6339.448 7170.076, 6342.809 7141.388, 6343.941 7130.251 C 6346.147 7108.554, 6346.619 7085.768, 6344.984 7079.882 C 6343.556 7074.740, 6340.056 7069.937, 6336.021 7067.580 C 6331.040 7064.671, 6316.880 7064.443, 6302.500 7067.041 M 6563.500 7070.617 C 6555.116 7072.790, 6547.486 7076.631, 6543.139 7080.865 C 6539.033 7084.864, 6538.190 7086.376, 6537.199 7091.513 C 6532.754 7114.558, 6516.212 7260.642, 6515.346 7284.500 C 6514.890 7297.072, 6515.036 7298.857, 6516.782 7302 C 6521.011 7309.613, 6529.091 7311.219, 6564 7311.384 L 6588.500 7311.500 6593.559 7308.830 C 6601.169 7304.814, 6609.012 7298.216, 6610.549 7294.538 C 6611.301 7292.738, 6612.806 7285.018, 6613.893 7277.383 C 6619.290 7239.483, 6625 7167.127, 6625 7136.633 C 6625 7116.078, 6623.887 7108.803, 6619.240 7099 C 6611.066 7081.757, 6594.740 7071.351, 6574.500 7070.484 C 6569.550 7070.272, 6564.600 7070.332, 6563.500 7070.617" stroke="none" fill="#f58ae1" fill-rule="evenodd"/>
</svg>